SplineFontDB: 3.2
FontName: HwanaKwana
FullName: HwanaKwana
FamilyName: HwanaKwana
Weight: Regular
Copyright: Copyright (c) fANhAN iNSiDE 2021, 
UComments: "2021-7-20: Created with FontForge (http://fontforge.org)"
Version: 001.000
StrokeWidth: 300
ItalicAngle: 0
UnderlinePosition: -1200
UnderlineWidth: 500
Ascent: 3277
Descent: 819
InvalidEm: 0
LayerCount: 2
Layer: 0 0 "Back" 1
Layer: 1 0 "Fore" 0
XUID: [1021 991 -1287261736 25104]
FSType: 0
OS2Version: 0
OS2_WeightWidthSlopeOnly: 0
OS2_UseTypoMetrics: 1
CreationTime: 1626745112
ModificationTime: 1626826898
PfmFamily: 17
TTFWeight: 400
TTFWidth: 5
LineGap: 1511
VLineGap: 0
OS2TypoAscent: 0
OS2TypoAOffset: 1
OS2TypoDescent: 0
OS2TypoDOffset: 1
OS2TypoLinegap: 1511
OS2WinAscent: 0
OS2WinAOffset: 1
OS2WinDescent: 0
OS2WinDOffset: 1
HheadAscent: 0
HheadAOffset: 1
HheadDescent: 0
HheadDOffset: 1
OS2Vendor: 'PfEd'
MarkAttachClasses: 1
DEI: 91125
LangName: 1033
Encoding: UnicodeFull
UnicodeInterp: none
NameList: AGL For New Fonts
DisplaySize: -48
AntiAlias: 1
FitToEm: 0
WinInfo: 58558 38 14
BeginPrivate: 0
EndPrivate
TeXData: 1 0 0 346030 173015 115343 0 1048576 115343 783286 444596 497025 792723 393216 433062 380633 303038 157286 324010 404750 52429 2506097 1059062 262144
BeginChars: 1114112 56

StartChar: uniE501
Encoding: 58625 58625 0
Width: 5120
Flags: HW
LayerCount: 2
Fore
SplineSet
3260 2829 m 0
 3260 2780.90332031 3271.34277344 2735.43554688 3291.49707031 2695.12695312 c 0
 3461.35449219 2355.41113281 3591.97753906 2018.01367188 3673.44628906 1704.36132812 c 0
 3738.61523438 1453.45996094 3772 1218.09765625 3772 1011.40039062 c 0
 3772 699.366210938 3697.37109375 458.653320312 3562.6640625 290.270507812 c 0
 3461.96582031 164.396484375 3324.18847656 73.2021484375 3148.06347656 13.2060546875 c 0
 2994.48046875 -39.111328125 2799.99023438 -71 2560 -71 c 0
 2320.00976562 -71 2125.51953125 -39.111328125 1971.93652344 13.2060546875 c 0
 1795.68847656 73.244140625 1658.09863281 164.31640625 1557.3359375 290.270507812 c 0
 1422.62890625 458.653320312 1348 699.366210938 1348 1011.40039062 c 0
 1348 1218.09765625 1381.38476562 1453.45996094 1446.55371094 1704.36132812 c 0
 1528.02246094 2018.01367188 1658.64550781 2355.41113281 1828.50292969 2695.12695312 c 0
 1848.65722656 2735.43554688 1860 2780.90332031 1860 2829 c 0
 1860 2994.57421875 1725.57421875 3129 1560 3129 c 0
 1442.52148438 3129 1340.72460938 3061.328125 1291.49707031 2962.87304688 c 0
 1105.79980469 2591.47753906 959.87890625 2217.76464844 865.763671875 1855.421875 c 0
 790.466796875 1565.52734375 748 1282.56933594 748 1011.40039062 c 0
 748 606.633789062 844.038085938 221.568359375 1088.59082031 -84.1220703125 c 0
 1182.38769531 -201.368164062 1296.85449219 -304.477539062 1429.14746094 -388.815429688 c 0
 1534.97949219 -456.283203125 1651.86523438 -511.741210938 1778.59765625 -554.911132812 c 0
 2006.82617188 -632.65625 2266.65722656 -671 2560 -671 c 0
 2853.34277344 -671 3113.17382812 -632.65625 3341.40234375 -554.911132812 c 0
 3468.13476562 -511.741210938 3585.02050781 -456.283203125 3690.85253906 -388.815429688 c 0
 3823.14550781 -304.477539062 3937.61230469 -201.368164062 4031.40917969 -84.1220703125 c 0
 4275.96191406 221.568359375 4372 606.633789062 4372 1011.40039062 c 0
 4372 1282.56933594 4329.53320312 1565.52734375 4254.23632812 1855.421875 c 0
 4160.12109375 2217.76464844 4014.20019531 2591.47753906 3828.50292969 2962.87304688 c 0
 3779.27539062 3061.328125 3677.47851562 3129 3560 3129 c 0
 3394.42578125 3129 3260 2994.57421875 3260 2829 c 0
EndSplineSet
EndChar

StartChar: uniE502
Encoding: 58626 58626 1
Width: 5120
Flags: HW
LayerCount: 2
Fore
SplineSet
4460 229 m 0
 4460 394.57421875 4325.57421875 529 4160 529 c 0
 4111.90332031 529 4066.43554688 517.657226562 4026.12695312 497.502929688 c 0
 3686.41113281 327.645507812 3349.01367188 197.022460938 3035.36132812 115.553710938 c 0
 2784.45996094 50.384765625 2549.09765625 17 2342.40039062 17 c 0
 2030.36621094 17 1789.65332031 91.62890625 1621.27050781 226.3359375 c 0
 1495.39648438 327.034179688 1404.20214844 464.811523438 1344.20605469 640.936523438 c 0
 1291.88867188 794.51953125 1260 989.009765625 1260 1229 c 0
 1260 1468.99023438 1291.88867188 1663.48046875 1344.20605469 1817.06347656 c 0
 1404.24414062 1993.31152344 1495.31640625 2130.90136719 1621.27050781 2231.6640625 c 0
 1789.65332031 2366.37109375 2030.36621094 2441 2342.40039062 2441 c 0
 2549.09765625 2441 2784.45996094 2407.61523438 3035.36132812 2342.44628906 c 0
 3349.01367188 2260.97753906 3686.41113281 2130.35449219 4026.12695312 1960.49707031 c 0
 4066.43554688 1940.34277344 4111.90332031 1929 4160 1929 c 0
 4325.57421875 1929 4460 2063.42578125 4460 2229 c 0
 4460 2346.47851562 4392.328125 2448.27539062 4293.87304688 2497.50292969 c 0
 3922.47753906 2683.20019531 3548.76464844 2829.12109375 3186.421875 2923.23632812 c 0
 2896.52734375 2998.53320312 2613.56933594 3041 2342.40039062 3041 c 0
 1937.63378906 3041 1552.56835938 2944.96191406 1246.87792969 2700.40917969 c 0
 1129.63183594 2606.61230469 1026.52246094 2492.14550781 942.184570312 2359.85253906 c 0
 874.716796875 2254.02050781 819.258789062 2137.13476562 776.088867188 2010.40234375 c 0
 698.34375 1782.17382812 660 1522.34277344 660 1229 c 0
 660 935.657226562 698.34375 675.826171875 776.088867188 447.59765625 c 0
 819.258789062 320.865234375 874.716796875 203.979492188 942.184570312 98.1474609375 c 0
 1026.52246094 -34.1455078125 1129.63183594 -148.612304688 1246.87792969 -242.409179688 c 0
 1552.56835938 -486.961914062 1937.63378906 -583 2342.40039062 -583 c 0
 2613.56933594 -583 2896.52734375 -540.533203125 3186.421875 -465.236328125 c 0
 3548.76464844 -371.12109375 3922.47753906 -225.200195312 4293.87304688 -39.5029296875 c 0
 4392.328125 9.724609375 4460 111.521484375 4460 229 c 0
EndSplineSet
EndChar

StartChar: uniE503
Encoding: 58627 58627 2
Width: 5120
Flags: HW
LayerCount: 2
Fore
SplineSet
1560 -671 m 0
 1725.57421875 -671 1860 -536.57421875 1860 -371 c 0
 1860 -322.903320312 1848.65722656 -277.435546875 1828.50292969 -237.126953125 c 0
 1658.64550781 102.588867188 1528.02246094 439.986328125 1446.55371094 753.638671875 c 0
 1381.38476562 1004.54003906 1348 1239.90234375 1348 1446.59960938 c 0
 1348 1758.63378906 1422.62890625 1999.34667969 1557.3359375 2167.72949219 c 0
 1658.03417969 2293.60351562 1795.81152344 2384.79785156 1971.93652344 2444.79394531 c 0
 2125.51953125 2497.11132812 2320.00976562 2529 2560 2529 c 0
 2799.99023438 2529 2994.48046875 2497.11132812 3148.06347656 2444.79394531 c 0
 3324.31152344 2384.75585938 3461.90136719 2293.68359375 3562.6640625 2167.72949219 c 0
 3697.37109375 1999.34667969 3772 1758.63378906 3772 1446.59960938 c 0
 3772 1239.90234375 3738.61523438 1004.54003906 3673.44628906 753.638671875 c 0
 3591.97753906 439.986328125 3461.35449219 102.588867188 3291.49707031 -237.126953125 c 0
 3271.34277344 -277.435546875 3260 -322.903320312 3260 -371 c 0
 3260 -536.57421875 3394.42578125 -671 3560 -671 c 0
 3677.47851562 -671 3779.27539062 -603.328125 3828.50292969 -504.873046875 c 0
 4014.20019531 -133.477539062 4160.12109375 240.235351562 4254.23632812 602.578125 c 0
 4329.53320312 892.47265625 4372 1175.43066406 4372 1446.59960938 c 0
 4372 1851.36621094 4275.96191406 2236.43164062 4031.40917969 2542.12207031 c 0
 3937.61230469 2659.36816406 3823.14550781 2762.47753906 3690.85253906 2846.81542969 c 0
 3585.02050781 2914.28320312 3468.13476562 2969.74121094 3341.40234375 3012.91113281 c 0
 3113.17382812 3090.65625 2853.34277344 3129 2560 3129 c 0
 2266.65722656 3129 2006.82617188 3090.65625 1778.59765625 3012.91113281 c 0
 1651.86523438 2969.74121094 1534.97949219 2914.28320312 1429.14746094 2846.81542969 c 0
 1296.85449219 2762.47753906 1182.38769531 2659.36816406 1088.59082031 2542.12207031 c 0
 844.038085938 2236.43164062 748 1851.36621094 748 1446.59960938 c 0
 748 1175.43066406 790.466796875 892.47265625 865.763671875 602.578125 c 0
 959.87890625 240.235351562 1105.79980469 -133.477539062 1291.49707031 -504.873046875 c 0
 1340.72460938 -603.328125 1442.52148438 -671 1560 -671 c 0
EndSplineSet
EndChar

StartChar: uniE504
Encoding: 58628 58628 3
Width: 5120
Flags: HW
LayerCount: 2
Fore
SplineSet
960 1929 m 0
 1008.09667969 1929 1053.56445312 1940.34277344 1093.87304688 1960.49707031 c 0
 1433.58886719 2130.35449219 1770.98632812 2260.97753906 2084.63867188 2342.44628906 c 0
 2335.54003906 2407.61523438 2570.90234375 2441 2777.59960938 2441 c 0
 3089.63378906 2441 3330.34667969 2366.37109375 3498.72949219 2231.6640625 c 0
 3624.60351562 2130.96582031 3715.79785156 1993.18847656 3775.79394531 1817.06347656 c 0
 3828.11132812 1663.48046875 3860 1468.99023438 3860 1229 c 0
 3860 989.009765625 3828.11132812 794.51953125 3775.79394531 640.936523438 c 0
 3715.75585938 464.688476562 3624.68359375 327.098632812 3498.72949219 226.3359375 c 0
 3330.34667969 91.62890625 3089.63378906 17 2777.59960938 17 c 0
 2570.90234375 17 2335.54003906 50.384765625 2084.63867188 115.553710938 c 0
 1770.98632812 197.022460938 1433.58886719 327.645507812 1093.87304688 497.502929688 c 0
 1053.56445312 517.657226562 1008.09667969 529 960 529 c 0
 794.42578125 529 660 394.57421875 660 229 c 0
 660 111.521484375 727.671875 9.724609375 826.126953125 -39.5029296875 c 0
 1197.52246094 -225.200195312 1571.23535156 -371.12109375 1933.578125 -465.236328125 c 0
 2223.47265625 -540.533203125 2506.43066406 -583 2777.59960938 -583 c 0
 3182.36621094 -583 3567.43164062 -486.961914062 3873.12207031 -242.409179688 c 0
 3990.36816406 -148.612304688 4093.47753906 -34.1455078125 4177.81542969 98.1474609375 c 0
 4245.28320312 203.979492188 4300.74121094 320.865234375 4343.91113281 447.59765625 c 0
 4421.65625 675.826171875 4460 935.657226562 4460 1229 c 0
 4460 1522.34277344 4421.65625 1782.17382812 4343.91113281 2010.40234375 c 0
 4300.74121094 2137.13476562 4245.28320312 2254.02050781 4177.81542969 2359.85253906 c 0
 4093.47753906 2492.14550781 3990.36816406 2606.61230469 3873.12207031 2700.40917969 c 0
 3567.43164062 2944.96191406 3182.36621094 3041 2777.59960938 3041 c 0
 2506.43066406 3041 2223.47265625 2998.53320312 1933.578125 2923.23632812 c 0
 1571.23535156 2829.12109375 1197.52246094 2683.20019531 826.126953125 2497.50292969 c 0
 727.671875 2448.27539062 660 2346.47851562 660 2229 c 0
 660 2063.42578125 794.42578125 1929 960 1929 c 0
EndSplineSet
EndChar

StartChar: uniE505
Encoding: 58629 58629 4
Width: 5120
Flags: HW
LayerCount: 2
Fore
SplineSet
3260 2829 m 0
 3260 2780.90332031 3271.34277344 2735.43554688 3291.49707031 2695.12695312 c 0
 3461.35449219 2355.41113281 3591.97753906 2018.01367188 3673.44628906 1704.36132812 c 0
 3738.61523438 1453.45996094 3772 1218.09765625 3772 1011.40039062 c 0
 3772 699.366210938 3697.37109375 458.653320312 3562.6640625 290.270507812 c 0
 3461.96582031 164.396484375 3324.18847656 73.2021484375 3148.06347656 13.2060546875 c 0
 2994.48046875 -39.111328125 2799.99023438 -71 2560 -71 c 0
 2320.00976562 -71 2125.51953125 -39.111328125 1971.93652344 13.2060546875 c 0
 1795.68847656 73.244140625 1658.09863281 164.31640625 1557.3359375 290.270507812 c 0
 1422.62890625 458.653320312 1348 699.366210938 1348 1011.40039062 c 0
 1348 1218.09765625 1381.38476562 1453.45996094 1446.55371094 1704.36132812 c 0
 1528.02246094 2018.01367188 1658.64550781 2355.41113281 1828.50292969 2695.12695312 c 0
 1832.16699219 2702.45410156 1835.5390625 2709.95214844 1838.60449219 2717.60449219 c 2
 2838.60449219 5213.60449219 l 2
 2852.40625 5248.05175781 2860 5285.64648438 2860 5325 c 0
 2860 5490.57421875 2725.57421875 5625 2560 5625 c 0
 2433.77929688 5625 2325.66015625 5546.88085938 2281.39550781 5436.39550781 c 2
 1285.92871094 2951.71191406 l 1
 1102.88183594 2583.9921875 958.936523438 2214.13476562 865.763671875 1855.421875 c 0
 790.466796875 1565.52734375 748 1282.56933594 748 1011.40039062 c 0
 748 606.633789062 844.038085938 221.568359375 1088.59082031 -84.1220703125 c 0
 1182.38769531 -201.368164062 1296.85449219 -304.477539062 1429.14746094 -388.815429688 c 0
 1534.97949219 -456.283203125 1651.86523438 -511.741210938 1778.59765625 -554.911132812 c 0
 2006.82617188 -632.65625 2266.65722656 -671 2560 -671 c 0
 2853.34277344 -671 3113.17382812 -632.65625 3341.40234375 -554.911132812 c 0
 3468.13476562 -511.741210938 3585.02050781 -456.283203125 3690.85253906 -388.815429688 c 0
 3823.14550781 -304.477539062 3937.61230469 -201.368164062 4031.40917969 -84.1220703125 c 0
 4275.96191406 221.568359375 4372 606.633789062 4372 1011.40039062 c 0
 4372 1282.56933594 4329.53320312 1565.52734375 4254.23632812 1855.421875 c 0
 4160.12109375 2217.76464844 4014.20019531 2591.47753906 3828.50292969 2962.87304688 c 0
 3779.27539062 3061.328125 3677.47851562 3129 3560 3129 c 0
 3394.42578125 3129 3260 2994.57421875 3260 2829 c 0
EndSplineSet
EndChar

StartChar: uniE506
Encoding: 58630 58630 5
Width: 5120
Flags: HW
LayerCount: 2
Fore
SplineSet
1860 2829 m 0
 1860 2994.57421875 1725.57421875 3129 1560 3129 c 0
 1442.52148438 3129 1340.72460938 3061.328125 1291.49707031 2962.87304688 c 0
 1105.79980469 2591.47753906 959.87890625 2217.76464844 865.763671875 1855.421875 c 0
 790.466796875 1565.52734375 748 1282.56933594 748 1011.40039062 c 0
 748 606.633789062 844.038085938 221.568359375 1088.59082031 -84.1220703125 c 0
 1182.38769531 -201.368164062 1296.85449219 -304.477539062 1429.14746094 -388.815429688 c 0
 1534.97949219 -456.283203125 1651.86523438 -511.741210938 1778.59765625 -554.911132812 c 0
 2006.82617188 -632.65625 2266.65722656 -671 2560 -671 c 0
 2853.34277344 -671 3113.17382812 -632.65625 3341.40234375 -554.911132812 c 0
 3468.13476562 -511.741210938 3585.02050781 -456.283203125 3690.85253906 -388.815429688 c 0
 3823.14550781 -304.477539062 3937.61230469 -201.368164062 4031.40917969 -84.1220703125 c 0
 4275.96191406 221.568359375 4372 606.633789062 4372 1011.40039062 c 0
 4372 1282.56933594 4329.53320312 1565.52734375 4254.23632812 1855.421875 c 0
 4161.06347656 2214.13476562 3986.83398438 2570.41503906 3834.07128906 2951.71191406 c 2
 2838.60449219 5436.39550781 l 2
 2794.33984375 5546.88085938 2686.22070312 5625 2560 5625 c 0
 2394.42578125 5625 2260 5490.57421875 2260 5325 c 0
 2260 5285.64648438 2267.59375 5248.05175781 2281.39550781 5213.60449219 c 2
 3281.39550781 2717.60449219 l 2
 3284.4609375 2709.95214844 3287.83300781 2702.45410156 3291.49707031 2695.12695312 c 0
 3461.35449219 2355.41113281 3591.97753906 2018.01367188 3673.44628906 1704.36132812 c 0
 3738.61523438 1453.45996094 3772 1218.09765625 3772 1011.40039062 c 0
 3772 699.366210938 3697.37109375 458.653320312 3562.6640625 290.270507812 c 0
 3461.96582031 164.396484375 3324.18847656 73.2021484375 3148.06347656 13.2060546875 c 0
 2994.48046875 -39.111328125 2799.99023438 -71 2560 -71 c 0
 2320.00976562 -71 2125.51953125 -39.111328125 1971.93652344 13.2060546875 c 0
 1795.68847656 73.244140625 1658.09863281 164.31640625 1557.3359375 290.270507812 c 0
 1422.62890625 458.653320312 1348 699.366210938 1348 1011.40039062 c 0
 1348 1218.09765625 1381.38476562 1453.45996094 1446.55371094 1704.36132812 c 0
 1528.02246094 2018.01367188 1658.64550781 2355.41113281 1828.50292969 2695.12695312 c 0
 1848.65722656 2735.43554688 1860 2780.90332031 1860 2829 c 0
EndSplineSet
EndChar

StartChar: uniE507
Encoding: 58631 58631 6
Width: 5120
Flags: HW
LayerCount: 2
Fore
SplineSet
3260 -371 m 0
 3260 -536.57421875 3394.42578125 -671 3560 -671 c 0
 3677.47851562 -671 3779.27539062 -603.328125 3828.50292969 -504.873046875 c 0
 4014.20019531 -133.477539062 4160.12109375 240.235351562 4254.23632812 602.578125 c 0
 4329.53320312 892.47265625 4372 1175.43066406 4372 1446.59960938 c 0
 4372 1851.36621094 4275.96191406 2236.43164062 4031.40917969 2542.12207031 c 0
 3937.61230469 2659.36816406 3823.14550781 2762.47753906 3690.85253906 2846.81542969 c 0
 3585.02050781 2914.28320312 3468.13476562 2969.74121094 3341.40234375 3012.91113281 c 0
 3113.17382812 3090.65625 2853.34277344 3129 2560 3129 c 0
 2266.65722656 3129 2006.82617188 3090.65625 1778.59765625 3012.91113281 c 0
 1651.86523438 2969.74121094 1534.97949219 2914.28320312 1429.14746094 2846.81542969 c 0
 1296.85449219 2762.47753906 1182.38769531 2659.36816406 1088.59082031 2542.12207031 c 0
 844.038085938 2236.43164062 748 1851.36621094 748 1446.59960938 c 0
 748 1175.43066406 790.466796875 892.47265625 865.763671875 602.578125 c 0
 958.936523438 243.865234375 1133.16601562 -112.415039062 1285.92871094 -493.711914062 c 2
 2281.39550781 -2978.39550781 l 2
 2325.66015625 -3088.88085938 2433.77929688 -3167 2560 -3167 c 0
 2725.57421875 -3167 2860 -3032.57421875 2860 -2867 c 0
 2860 -2827.64648438 2852.40625 -2790.05175781 2838.60449219 -2755.60449219 c 2
 1838.60449219 -259.604492188 l 2
 1835.5390625 -251.952148438 1832.16699219 -244.454101562 1828.50292969 -237.126953125 c 0
 1658.64550781 102.588867188 1528.02246094 439.986328125 1446.55371094 753.638671875 c 0
 1381.38476562 1004.54003906 1348 1239.90234375 1348 1446.59960938 c 0
 1348 1758.63378906 1422.62890625 1999.34667969 1557.3359375 2167.72949219 c 0
 1658.03417969 2293.60351562 1795.81152344 2384.79785156 1971.93652344 2444.79394531 c 0
 2125.51953125 2497.11132812 2320.00976562 2529 2560 2529 c 0
 2799.99023438 2529 2994.48046875 2497.11132812 3148.06347656 2444.79394531 c 0
 3324.31152344 2384.75585938 3461.90136719 2293.68359375 3562.6640625 2167.72949219 c 0
 3697.37109375 1999.34667969 3772 1758.63378906 3772 1446.59960938 c 0
 3772 1239.90234375 3738.61523438 1004.54003906 3673.44628906 753.638671875 c 0
 3591.97753906 439.986328125 3461.35449219 102.588867188 3291.49707031 -237.126953125 c 0
 3271.34277344 -277.435546875 3260 -322.903320312 3260 -371 c 0
EndSplineSet
EndChar

StartChar: uniE508
Encoding: 58632 58632 7
Width: 5120
Flags: HW
LayerCount: 2
Fore
SplineSet
1560 -671 m 0
 1725.57421875 -671 1860 -536.57421875 1860 -371 c 0
 1860 -322.903320312 1848.65722656 -277.435546875 1828.50292969 -237.126953125 c 0
 1658.64550781 102.588867188 1528.02246094 439.986328125 1446.55371094 753.638671875 c 0
 1381.38476562 1004.54003906 1348 1239.90234375 1348 1446.59960938 c 0
 1348 1758.63378906 1422.62890625 1999.34667969 1557.3359375 2167.72949219 c 0
 1658.03417969 2293.60351562 1795.81152344 2384.79785156 1971.93652344 2444.79394531 c 0
 2125.51953125 2497.11132812 2320.00976562 2529 2560 2529 c 0
 2799.99023438 2529 2994.48046875 2497.11132812 3148.06347656 2444.79394531 c 0
 3324.31152344 2384.75585938 3461.90136719 2293.68359375 3562.6640625 2167.72949219 c 0
 3697.37109375 1999.34667969 3772 1758.63378906 3772 1446.59960938 c 0
 3772 1239.90234375 3738.61523438 1004.54003906 3673.44628906 753.638671875 c 0
 3591.97753906 439.986328125 3461.35449219 102.588867188 3291.49707031 -237.126953125 c 0
 3287.83300781 -244.454101562 3284.4609375 -251.952148438 3281.39550781 -259.604492188 c 2
 2281.39550781 -2755.60449219 l 2
 2267.59375 -2790.05175781 2260 -2827.64648438 2260 -2867 c 0
 2260 -3032.57421875 2394.42578125 -3167 2560 -3167 c 0
 2686.22070312 -3167 2794.33984375 -3088.88085938 2838.60449219 -2978.39550781 c 2
 3834.07128906 -493.711914062 l 1
 4017.11816406 -125.9921875 4161.06347656 243.865234375 4254.23632812 602.578125 c 0
 4329.53320312 892.47265625 4372 1175.43066406 4372 1446.59960938 c 0
 4372 1851.36621094 4275.96191406 2236.43164062 4031.40917969 2542.12207031 c 0
 3937.61230469 2659.36816406 3823.14550781 2762.47753906 3690.85253906 2846.81542969 c 0
 3585.02050781 2914.28320312 3468.13476562 2969.74121094 3341.40234375 3012.91113281 c 0
 3113.17382812 3090.65625 2853.34277344 3129 2560 3129 c 0
 2266.65722656 3129 2006.82617188 3090.65625 1778.59765625 3012.91113281 c 0
 1651.86523438 2969.74121094 1534.97949219 2914.28320312 1429.14746094 2846.81542969 c 0
 1296.85449219 2762.47753906 1182.38769531 2659.36816406 1088.59082031 2542.12207031 c 0
 844.038085938 2236.43164062 748 1851.36621094 748 1446.59960938 c 0
 748 1175.43066406 790.466796875 892.47265625 865.763671875 602.578125 c 0
 959.87890625 240.235351562 1105.79980469 -133.477539062 1291.49707031 -504.873046875 c 0
 1340.72460938 -603.328125 1442.52148438 -671 1560 -671 c 0
EndSplineSet
EndChar

StartChar: uniE509
Encoding: 58633 58633 8
Width: 5120
Flags: HW
LayerCount: 2
Fore
SplineSet
2860 5325 m 0
 2860 5490.57421875 2725.57421875 5625 2560 5625 c 0
 2443.94238281 5625 2343.18945312 5558.95507812 2293.30566406 5462.43066406 c 2
 693.305664062 2366.43066406 l 2
 672.022460938 2325.24804688 660 2278.51660156 660 2229 c 0
 660 2063.42578125 794.42578125 1929 960 1929 c 0
 1008.09667969 1929 1053.56445312 1940.34277344 1093.87304688 1960.49707031 c 0
 1433.58886719 2130.35449219 1770.98632812 2260.97753906 2084.63867188 2342.44628906 c 0
 2335.54003906 2407.61523438 2570.90234375 2441 2777.59960938 2441 c 0
 3089.63378906 2441 3330.34667969 2366.37109375 3498.72949219 2231.6640625 c 0
 3624.60351562 2130.96582031 3715.79785156 1993.18847656 3775.79394531 1817.06347656 c 0
 3828.11132812 1663.48046875 3860 1468.99023438 3860 1229 c 0
 3860 989.009765625 3828.11132812 794.51953125 3775.79394531 640.936523438 c 0
 3715.75585938 464.688476562 3624.68359375 327.098632812 3498.72949219 226.3359375 c 0
 3330.34667969 91.62890625 3089.63378906 17 2777.59960938 17 c 0
 2570.90234375 17 2335.54003906 50.384765625 2084.63867188 115.553710938 c 0
 1770.98632812 197.022460938 1433.58886719 327.645507812 1093.87304688 497.502929688 c 0
 1053.56445312 517.657226562 1008.09667969 529 960 529 c 0
 794.42578125 529 660 394.57421875 660 229 c 0
 660 111.521484375 727.671875 9.724609375 826.126953125 -39.5029296875 c 0
 1197.52246094 -225.200195312 1571.23535156 -371.12109375 1933.578125 -465.236328125 c 0
 2223.47265625 -540.533203125 2506.43066406 -583 2777.59960938 -583 c 0
 3182.36621094 -583 3567.43164062 -486.961914062 3873.12207031 -242.409179688 c 0
 3990.36816406 -148.612304688 4093.47753906 -34.1455078125 4177.81542969 98.1474609375 c 0
 4245.28320312 203.979492188 4300.74121094 320.865234375 4343.91113281 447.59765625 c 0
 4421.65625 675.826171875 4460 935.657226562 4460 1229 c 0
 4460 1522.34277344 4421.65625 1782.17382812 4343.91113281 2010.40234375 c 0
 4300.74121094 2137.13476562 4245.28320312 2254.02050781 4177.81542969 2359.85253906 c 0
 4093.47753906 2492.14550781 3990.36816406 2606.61230469 3873.12207031 2700.40917969 c 0
 3567.43164062 2944.96191406 3182.36621094 3041 2777.59960938 3041 c 0
 2506.43066406 3041 2223.47265625 2998.53320312 1933.578125 2923.23632812 c 0
 1825.22949219 2895.09375 1715.86523438 2862.31933594 1605.84863281 2825.234375 c 1
 2826.69433594 5187.56933594 l 2
 2847.97753906 5228.75195312 2860 5275.48339844 2860 5325 c 0
EndSplineSet
EndChar

StartChar: uniE50A
Encoding: 58634 58634 9
Width: 5120
Flags: HW
LayerCount: 2
Fore
SplineSet
2560 5625 m 0
 2394.42578125 5625 2260 5490.57421875 2260 5325 c 0
 2260 5275.48339844 2272.02246094 5228.75195312 2293.30566406 5187.56933594 c 2
 3514.15136719 2825.234375 l 1
 3404.13476562 2862.31933594 3294.77050781 2895.09375 3186.421875 2923.23632812 c 0
 2896.52734375 2998.53320312 2613.56933594 3041 2342.40039062 3041 c 0
 1937.63378906 3041 1552.56835938 2944.96191406 1246.87792969 2700.40917969 c 0
 1129.63183594 2606.61230469 1026.52246094 2492.14550781 942.184570312 2359.85253906 c 0
 874.716796875 2254.02050781 819.258789062 2137.13476562 776.088867188 2010.40234375 c 0
 698.34375 1782.17382812 660 1522.34277344 660 1229 c 0
 660 935.657226562 698.34375 675.826171875 776.088867188 447.59765625 c 0
 819.258789062 320.865234375 874.716796875 203.979492188 942.184570312 98.1474609375 c 0
 1026.52246094 -34.1455078125 1129.63183594 -148.612304688 1246.87792969 -242.409179688 c 0
 1552.56835938 -486.961914062 1937.63378906 -583 2342.40039062 -583 c 0
 2613.56933594 -583 2896.52734375 -540.533203125 3186.421875 -465.236328125 c 0
 3548.76464844 -371.12109375 3922.47753906 -225.200195312 4293.87304688 -39.5029296875 c 0
 4392.328125 9.724609375 4460 111.521484375 4460 229 c 0
 4460 394.57421875 4325.57421875 529 4160 529 c 0
 4111.90332031 529 4066.43554688 517.657226562 4026.12695312 497.502929688 c 0
 3686.41113281 327.645507812 3349.01367188 197.022460938 3035.36132812 115.553710938 c 0
 2784.45996094 50.384765625 2549.09765625 17 2342.40039062 17 c 0
 2030.36621094 17 1789.65332031 91.62890625 1621.27050781 226.3359375 c 0
 1495.39648438 327.034179688 1404.20214844 464.811523438 1344.20605469 640.936523438 c 0
 1291.88867188 794.51953125 1260 989.009765625 1260 1229 c 0
 1260 1468.99023438 1291.88867188 1663.48046875 1344.20605469 1817.06347656 c 0
 1404.24414062 1993.31152344 1495.31640625 2130.90136719 1621.27050781 2231.6640625 c 0
 1789.65332031 2366.37109375 2030.36621094 2441 2342.40039062 2441 c 0
 2549.09765625 2441 2784.45996094 2407.61523438 3035.36132812 2342.44628906 c 0
 3349.01367188 2260.97753906 3686.41113281 2130.35449219 4026.12695312 1960.49707031 c 0
 4066.43554688 1940.34277344 4111.90332031 1929 4160 1929 c 0
 4325.57421875 1929 4460 2063.42578125 4460 2229 c 0
 4460 2278.51660156 4447.97753906 2325.24804688 4426.69433594 2366.43066406 c 2
 2826.69433594 5462.43066406 l 2
 2776.81054688 5558.95507812 2676.05761719 5625 2560 5625 c 0
EndSplineSet
EndChar

StartChar: uniE50B
Encoding: 58635 58635 10
Width: 5120
Flags: HW
LayerCount: 2
Fore
SplineSet
960 1929 m 0
 1008.09667969 1929 1053.56445312 1940.34277344 1093.87304688 1960.49707031 c 0
 1433.58886719 2130.35449219 1770.98632812 2260.97753906 2084.63867188 2342.44628906 c 0
 2335.54003906 2407.61523438 2570.90234375 2441 2777.59960938 2441 c 0
 3089.63378906 2441 3330.34667969 2366.37109375 3498.72949219 2231.6640625 c 0
 3624.60351562 2130.96582031 3715.79785156 1993.18847656 3775.79394531 1817.06347656 c 0
 3828.11132812 1663.48046875 3860 1468.99023438 3860 1229 c 0
 3860 989.009765625 3828.11132812 794.51953125 3775.79394531 640.936523438 c 0
 3715.75585938 464.688476562 3624.68359375 327.098632812 3498.72949219 226.3359375 c 0
 3330.34667969 91.62890625 3089.63378906 17 2777.59960938 17 c 0
 2570.90234375 17 2335.54003906 50.384765625 2084.63867188 115.553710938 c 0
 1770.98632812 197.022460938 1433.58886719 327.645507812 1093.87304688 497.502929688 c 0
 1053.56445312 517.657226562 1008.09667969 529 960 529 c 0
 794.42578125 529 660 394.57421875 660 229 c 0
 660 179.483398438 672.022460938 132.751953125 693.305664062 91.5693359375 c 2
 2293.30566406 -3004.43066406 l 2
 2343.18945312 -3100.95507812 2443.94238281 -3167 2560 -3167 c 0
 2725.57421875 -3167 2860 -3032.57421875 2860 -2867 c 0
 2860 -2817.48339844 2847.97753906 -2770.75195312 2826.69433594 -2729.56933594 c 2
 1605.84863281 -367.234375 l 1
 1715.86523438 -404.319335938 1825.22949219 -437.09375 1933.578125 -465.236328125 c 0
 2223.47265625 -540.533203125 2506.43066406 -583 2777.59960938 -583 c 0
 3182.36621094 -583 3567.43164062 -486.961914062 3873.12207031 -242.409179688 c 0
 3990.36816406 -148.612304688 4093.47753906 -34.1455078125 4177.81542969 98.1474609375 c 0
 4245.28320312 203.979492188 4300.74121094 320.865234375 4343.91113281 447.59765625 c 0
 4421.65625 675.826171875 4460 935.657226562 4460 1229 c 0
 4460 1522.34277344 4421.65625 1782.17382812 4343.91113281 2010.40234375 c 0
 4300.74121094 2137.13476562 4245.28320312 2254.02050781 4177.81542969 2359.85253906 c 0
 4093.47753906 2492.14550781 3990.36816406 2606.61230469 3873.12207031 2700.40917969 c 0
 3567.43164062 2944.96191406 3182.36621094 3041 2777.59960938 3041 c 0
 2506.43066406 3041 2223.47265625 2998.53320312 1933.578125 2923.23632812 c 0
 1571.23535156 2829.12109375 1197.52246094 2683.20019531 826.126953125 2497.50292969 c 0
 727.671875 2448.27539062 660 2346.47851562 660 2229 c 0
 660 2063.42578125 794.42578125 1929 960 1929 c 0
EndSplineSet
EndChar

StartChar: uniE50C
Encoding: 58636 58636 11
Width: 5120
Flags: HW
LayerCount: 2
Fore
SplineSet
4160 1929 m 0
 4325.57421875 1929 4460 2063.42578125 4460 2229 c 0
 4460 2346.47851562 4392.328125 2448.27539062 4293.87304688 2497.50292969 c 0
 3922.47753906 2683.20019531 3548.76464844 2829.12109375 3186.421875 2923.23632812 c 0
 2896.52734375 2998.53320312 2613.56933594 3041 2342.40039062 3041 c 0
 1937.63378906 3041 1552.56835938 2944.96191406 1246.87792969 2700.40917969 c 0
 1129.63183594 2606.61230469 1026.52246094 2492.14550781 942.184570312 2359.85253906 c 0
 874.716796875 2254.02050781 819.258789062 2137.13476562 776.088867188 2010.40234375 c 0
 698.34375 1782.17382812 660 1522.34277344 660 1229 c 0
 660 935.657226562 698.34375 675.826171875 776.088867188 447.59765625 c 0
 819.258789062 320.865234375 874.716796875 203.979492188 942.184570312 98.1474609375 c 0
 1026.52246094 -34.1455078125 1129.63183594 -148.612304688 1246.87792969 -242.409179688 c 0
 1552.56835938 -486.961914062 1937.63378906 -583 2342.40039062 -583 c 0
 2613.56933594 -583 2896.52734375 -540.533203125 3186.421875 -465.236328125 c 0
 3294.77050781 -437.09375 3404.13476562 -404.319335938 3514.15136719 -367.234375 c 1
 2293.30566406 -2729.56933594 l 2
 2272.02246094 -2770.75195312 2260 -2817.48339844 2260 -2867 c 0
 2260 -3032.57421875 2394.42578125 -3167 2560 -3167 c 0
 2676.05761719 -3167 2776.81054688 -3100.95507812 2826.69433594 -3004.43066406 c 2
 4426.69433594 91.5693359375 l 2
 4447.97753906 132.751953125 4460 179.483398438 4460 229 c 0
 4460 394.57421875 4325.57421875 529 4160 529 c 0
 4111.90332031 529 4066.43554688 517.657226562 4026.12695312 497.502929688 c 0
 3686.41113281 327.645507812 3349.01367188 197.022460938 3035.36132812 115.553710938 c 0
 2784.45996094 50.384765625 2549.09765625 17 2342.40039062 17 c 0
 2030.36621094 17 1789.65332031 91.62890625 1621.27050781 226.3359375 c 0
 1495.39648438 327.034179688 1404.20214844 464.811523438 1344.20605469 640.936523438 c 0
 1291.88867188 794.51953125 1260 989.009765625 1260 1229 c 0
 1260 1468.99023438 1291.88867188 1663.48046875 1344.20605469 1817.06347656 c 0
 1404.24414062 1993.31152344 1495.31640625 2130.90136719 1621.27050781 2231.6640625 c 0
 1789.65332031 2366.37109375 2030.36621094 2441 2342.40039062 2441 c 0
 2549.09765625 2441 2784.45996094 2407.61523438 3035.36132812 2342.44628906 c 0
 3349.01367188 2260.97753906 3686.41113281 2130.35449219 4026.12695312 1960.49707031 c 0
 4066.43554688 1940.34277344 4111.90332031 1929 4160 1929 c 0
EndSplineSet
EndChar

StartChar: uniE50D
Encoding: 58637 58637 12
Width: 5120
Flags: HW
LayerCount: 2
Fore
SplineSet
960 2129 m 0
 1008.09667969 2129 1053.56445312 2140.34277344 1093.87304688 2160.49707031 c 0
 1429.62011719 2328.37109375 1764.0546875 2448.75683594 2077.56347656 2522.04492188 c 0
 2328.32910156 2580.66503906 2565.55957031 2609 2777.59960938 2609 c 0
 3083.60253906 2609 3344.96972656 2550.38574219 3531.8984375 2438.22851562 c 0
 3585.92285156 2405.81347656 3632.11230469 2369.94921875 3671.43652344 2330.87695312 c 0
 3720.58886719 2282.04199219 3759.53417969 2228.07128906 3789.83300781 2165.6953125 c 0
 3833.32421875 2076.15722656 3860 1966.60058594 3860 1829 c 0
 3860 1742.9921875 3842.89648438 1696.23535156 3825.94726562 1667.55957031 c 0
 3813.91601562 1647.203125 3799.7734375 1631.30078125 3775.953125 1613.88574219 c 0
 3756.91699219 1599.96875 3731.1328125 1585.45214844 3697.23242188 1571.90429688 c 0
 3648.49121094 1552.42578125 3583.55273438 1535.56640625 3505.91796875 1523.984375 c 0
 3408.90625 1509.51171875 3292.97167969 1503.1796875 3165.90625 1503.1796875 c 0
 2986.6328125 1503.1796875 2785.421875 1515.50585938 2578.96289062 1528.40917969 c 0
 2372.30371094 1541.32519531 2160.39550781 1554.8203125 1954.09375 1554.8203125 c 0
 1669.97753906 1554.8203125 1413.02734375 1528.44628906 1200.45898438 1443.49902344 c 0
 1127.81933594 1414.46972656 1056.80273438 1377.27832031 990.462890625 1328.77734375 c 0
 907.563476562 1268.16894531 832.837890625 1189.3125 777.145507812 1095.08691406 c 0
 696.573242188 958.763671875 660 799.416992188 660 629 c 0
 660 411.044921875 703.557617188 208.94140625 790.126953125 30.7158203125 c 0
 850.149414062 -92.85546875 930.376953125 -203.663085938 1025.765625 -298.4375 c 0
 1102.07324219 -374.252929688 1187.75195312 -439.728515625 1280.046875 -495.10546875 c 0
 1413.02148438 -574.889648438 1559.58203125 -633.9140625 1715.53613281 -675.19921875 c 0
 1910.546875 -726.82421875 2120.86621094 -751 2342.40039062 -751 c 0
 2608.22558594 -751 2889.31640625 -716.125 3179.34667969 -648.326171875 c 0
 3541.83203125 -563.588867188 3918.50878906 -427.184570312 4293.87304688 -239.502929688 c 0
 4392.328125 -190.275390625 4460 -88.478515625 4460 29 c 0
 4460 194.57421875 4325.57421875 329 4160 329 c 0
 4111.90332031 329 4066.43554688 317.657226562 4026.12695312 297.502929688 c 0
 3690.37988281 129.62890625 3355.9453125 9.2431640625 3042.43652344 -64.044921875 c 0
 2791.67089844 -122.665039062 2554.44042969 -151 2342.40039062 -151 c 0
 2036.39746094 -151 1775.03027344 -92.3857421875 1588.1015625 19.771484375 c 0
 1534.07714844 52.1865234375 1487.88769531 88.05078125 1448.56347656 127.123046875 c 0
 1399.41113281 175.958007812 1360.46582031 229.928710938 1330.16699219 292.3046875 c 0
 1286.67578125 381.842773438 1260 491.399414062 1260 629 c 0
 1260 715.0078125 1277.10351562 761.764648438 1294.05273438 790.440429688 c 0
 1306.08398438 810.796875 1320.2265625 826.69921875 1344.046875 844.114257812 c 0
 1363.08300781 858.03125 1388.8671875 872.547851562 1422.76757812 886.095703125 c 0
 1471.50878906 905.57421875 1536.44726562 922.43359375 1614.08203125 934.015625 c 0
 1711.09375 948.48828125 1827.02832031 954.8203125 1954.09375 954.8203125 c 0
 2133.3671875 954.8203125 2334.578125 942.494140625 2541.03710938 929.590820312 c 0
 2747.69628906 916.674804688 2959.60449219 903.1796875 3165.90625 903.1796875 c 0
 3450.02246094 903.1796875 3706.97265625 929.553710938 3919.54101562 1014.50097656 c 0
 3992.18066406 1043.53027344 4063.19726562 1080.72167969 4129.53710938 1129.22265625 c 0
 4212.43652344 1189.83105469 4287.16210938 1268.6875 4342.85449219 1362.91308594 c 0
 4423.42675781 1499.23632812 4460 1658.58300781 4460 1829 c 0
 4460 2046.95507812 4416.44238281 2249.05859375 4329.87304688 2427.28417969 c 0
 4269.85058594 2550.85546875 4189.62304688 2661.66308594 4094.234375 2756.4375 c 0
 4017.92675781 2832.25292969 3932.24804688 2897.72851562 3839.953125 2953.10546875 c 0
 3706.97851562 3032.88964844 3560.41796875 3091.9140625 3404.46386719 3133.19921875 c 0
 3209.453125 3184.82421875 2999.13378906 3209 2777.59960938 3209 c 0
 2511.77441406 3209 2230.68359375 3174.125 1940.65332031 3106.32617188 c 0
 1578.16796875 3021.58886719 1201.49121094 2885.18457031 826.126953125 2697.50292969 c 0
 727.671875 2648.27539062 660 2546.47851562 660 2429 c 0
 660 2263.42578125 794.42578125 2129 960 2129 c 0
EndSplineSet
EndChar

StartChar: uniE50E
Encoding: 58638 58638 13
Width: 5120
Flags: HW
LayerCount: 2
Fore
SplineSet
1360 -671 m 0
 1525.57421875 -671 1660 -536.57421875 1660 -371 c 0
 1660 -322.903320312 1648.65722656 -277.435546875 1628.50292969 -237.126953125 c 0
 1460.62890625 98.6201171875 1340.24316406 433.0546875 1266.95507812 746.563476562 c 0
 1208.33496094 997.329101562 1180 1234.55957031 1180 1446.59960938 c 0
 1180 1752.60253906 1238.61425781 2013.96972656 1350.77148438 2200.8984375 c 0
 1383.18652344 2254.92285156 1419.05078125 2301.11230469 1458.12304688 2340.43652344 c 0
 1506.95800781 2389.58886719 1560.92871094 2428.53417969 1623.3046875 2458.83300781 c 0
 1712.84277344 2502.32421875 1822.39941406 2529 1960 2529 c 0
 2046.0078125 2529 2092.76464844 2511.89648438 2121.44042969 2494.94726562 c 0
 2141.796875 2482.91601562 2157.69921875 2468.7734375 2175.11425781 2444.953125 c 0
 2189.03125 2425.91699219 2203.54785156 2400.1328125 2217.09570312 2366.23242188 c 0
 2236.57421875 2317.49121094 2253.43359375 2252.55273438 2265.015625 2174.91796875 c 0
 2279.48828125 2077.90625 2285.8203125 1961.97167969 2285.8203125 1834.90625 c 0
 2285.8203125 1655.6328125 2273.49414062 1454.421875 2260.59082031 1247.96289062 c 0
 2247.67480469 1041.30371094 2234.1796875 829.395507812 2234.1796875 623.09375 c 0
 2234.1796875 338.977539062 2260.55371094 82.02734375 2345.50097656 -130.541015625 c 0
 2374.53027344 -203.180664062 2411.72167969 -274.197265625 2460.22265625 -340.537109375 c 0
 2520.83105469 -423.436523438 2599.6875 -498.162109375 2693.91308594 -553.854492188 c 0
 2830.23632812 -634.426757812 2989.58300781 -671 3160 -671 c 0
 3377.95507812 -671 3580.05859375 -627.442382812 3758.28417969 -540.873046875 c 0
 3881.85546875 -480.850585938 3992.66308594 -400.623046875 4087.4375 -305.234375 c 0
 4163.25292969 -228.926757812 4228.72851562 -143.248046875 4284.10546875 -50.953125 c 0
 4363.88964844 82.021484375 4422.9140625 228.58203125 4464.19921875 384.536132812 c 0
 4515.82421875 579.546875 4540 789.866210938 4540 1011.40039062 c 0
 4540 1277.22558594 4505.125 1558.31640625 4437.32617188 1848.34667969 c 0
 4352.58886719 2210.83203125 4216.18457031 2587.50878906 4028.50292969 2962.87304688 c 0
 3979.27539062 3061.328125 3877.47851562 3129 3760 3129 c 0
 3594.42578125 3129 3460 2994.57421875 3460 2829 c 0
 3460 2780.90332031 3471.34277344 2735.43554688 3491.49707031 2695.12695312 c 0
 3659.37109375 2359.37988281 3779.75683594 2024.9453125 3853.04492188 1711.43652344 c 0
 3911.66503906 1460.67089844 3940 1223.44042969 3940 1011.40039062 c 0
 3940 705.397460938 3881.38574219 444.030273438 3769.22851562 257.1015625 c 0
 3736.81347656 203.077148438 3700.94921875 156.887695312 3661.87695312 117.563476562 c 0
 3613.04199219 68.4111328125 3559.07128906 29.4658203125 3496.6953125 -0.8330078125 c 0
 3407.15722656 -44.32421875 3297.60058594 -71 3160 -71 c 0
 3073.9921875 -71 3027.23535156 -53.896484375 2998.55957031 -36.947265625 c 0
 2978.203125 -24.916015625 2962.30078125 -10.7734375 2944.88574219 13.046875 c 0
 2930.96875 32.0830078125 2916.45214844 57.8671875 2902.90429688 91.767578125 c 0
 2883.42578125 140.508789062 2866.56640625 205.447265625 2854.984375 283.08203125 c 0
 2840.51171875 380.09375 2834.1796875 496.028320312 2834.1796875 623.09375 c 0
 2834.1796875 802.3671875 2846.50585938 1003.578125 2859.40917969 1210.03710938 c 0
 2872.32519531 1416.69628906 2885.8203125 1628.60449219 2885.8203125 1834.90625 c 0
 2885.8203125 2119.02246094 2859.44628906 2375.97265625 2774.49902344 2588.54101562 c 0
 2745.46972656 2661.18066406 2708.27832031 2732.19726562 2659.77734375 2798.53710938 c 0
 2599.16894531 2881.43652344 2520.3125 2956.16210938 2426.08691406 3011.85449219 c 0
 2289.76367188 3092.42675781 2130.41699219 3129 1960 3129 c 0
 1742.04492188 3129 1539.94140625 3085.44238281 1361.71582031 2998.87304688 c 0
 1238.14453125 2938.85058594 1127.33691406 2858.62304688 1032.5625 2763.234375 c 0
 956.747070312 2686.92675781 891.271484375 2601.24804688 835.89453125 2508.953125 c 0
 756.110351562 2375.97851562 697.0859375 2229.41796875 655.80078125 2073.46386719 c 0
 604.17578125 1878.453125 580 1668.13378906 580 1446.59960938 c 0
 580 1180.77441406 614.875 899.68359375 682.673828125 609.653320312 c 0
 767.411132812 247.16796875 903.815429688 -129.508789062 1091.49707031 -504.873046875 c 0
 1140.72460938 -603.328125 1242.52148438 -671 1360 -671 c 0
EndSplineSet
EndChar

StartChar: uniE50F
Encoding: 58639 58639 14
Width: 5120
Flags: HW
LayerCount: 2
Fore
SplineSet
960 329 m 0
 794.42578125 329 660 194.57421875 660 29 c 0
 660 -88.478515625 727.671875 -190.275390625 826.126953125 -239.502929688 c 0
 1201.49121094 -427.184570312 1578.16796875 -563.588867188 1940.65332031 -648.326171875 c 0
 2230.68359375 -716.125 2511.77441406 -751 2777.59960938 -751 c 0
 2999.13378906 -751 3209.453125 -726.82421875 3404.46386719 -675.19921875 c 0
 3560.41796875 -633.9140625 3706.97851562 -574.889648438 3839.953125 -495.10546875 c 0
 3932.24804688 -439.728515625 4017.92675781 -374.252929688 4094.234375 -298.4375 c 0
 4189.62304688 -203.663085938 4269.85058594 -92.85546875 4329.87304688 30.7158203125 c 0
 4416.44238281 208.94140625 4460 411.044921875 4460 629 c 0
 4460 799.416992188 4423.42675781 958.763671875 4342.85449219 1095.08691406 c 0
 4287.16210938 1189.3125 4212.43652344 1268.16894531 4129.53710938 1328.77734375 c 0
 4063.19726562 1377.27832031 3992.18066406 1414.46972656 3919.54101562 1443.49902344 c 0
 3706.70410156 1528.55371094 3450.27832031 1554.8203125 3165.90625 1554.8203125 c 0
 2959.60449219 1554.8203125 2747.69628906 1541.32519531 2541.03710938 1528.40917969 c 0
 2334.578125 1515.50585938 2133.3671875 1503.1796875 1954.09375 1503.1796875 c 0
 1827.02832031 1503.1796875 1711.09375 1509.51171875 1614.08203125 1523.984375 c 0
 1536.44726562 1535.56640625 1471.50878906 1552.42578125 1422.76757812 1571.90429688 c 0
 1388.8671875 1585.45214844 1363.08300781 1599.96875 1344.046875 1613.88574219 c 0
 1320.2265625 1631.30078125 1306.08398438 1647.203125 1294.05273438 1667.55957031 c 0
 1277.10351562 1696.23535156 1260 1742.9921875 1260 1829 c 0
 1260 1966.60058594 1286.67578125 2076.15722656 1330.16699219 2165.6953125 c 0
 1360.46582031 2228.07128906 1399.41113281 2282.04199219 1448.56347656 2330.87695312 c 0
 1487.88769531 2369.94921875 1534.07714844 2405.81347656 1588.1015625 2438.22851562 c 0
 1774.91992188 2550.31933594 2036.51464844 2609 2342.40039062 2609 c 0
 2554.44042969 2609 2791.67089844 2580.66503906 3042.43652344 2522.04492188 c 0
 3355.9453125 2448.75683594 3690.37988281 2328.37109375 4026.12695312 2160.49707031 c 0
 4066.43554688 2140.34277344 4111.90332031 2129 4160 2129 c 0
 4325.57421875 2129 4460 2263.42578125 4460 2429 c 0
 4460 2546.47851562 4392.328125 2648.27539062 4293.87304688 2697.50292969 c 0
 3918.50878906 2885.18457031 3541.83203125 3021.58886719 3179.34667969 3106.32617188 c 0
 2889.31640625 3174.125 2608.22558594 3209 2342.40039062 3209 c 0
 2120.86621094 3209 1910.546875 3184.82421875 1715.53613281 3133.19921875 c 0
 1559.58203125 3091.9140625 1413.02148438 3032.88964844 1280.046875 2953.10546875 c 0
 1187.75195312 2897.72851562 1102.07324219 2832.25292969 1025.765625 2756.4375 c 0
 930.376953125 2661.66308594 850.149414062 2550.85546875 790.126953125 2427.28417969 c 0
 703.557617188 2249.05859375 660 2046.95507812 660 1829 c 0
 660 1658.58300781 696.573242188 1499.23632812 777.145507812 1362.91308594 c 0
 832.837890625 1268.6875 907.563476562 1189.83105469 990.462890625 1129.22265625 c 0
 1056.80273438 1080.72167969 1127.81933594 1043.53027344 1200.45898438 1014.50097656 c 0
 1413.29589844 929.446289062 1669.72167969 903.1796875 1954.09375 903.1796875 c 0
 2160.39550781 903.1796875 2372.30371094 916.674804688 2578.96289062 929.590820312 c 0
 2785.421875 942.494140625 2986.6328125 954.8203125 3165.90625 954.8203125 c 0
 3292.97167969 954.8203125 3408.90625 948.48828125 3505.91796875 934.015625 c 0
 3583.55273438 922.43359375 3648.49121094 905.57421875 3697.23242188 886.095703125 c 0
 3731.1328125 872.547851562 3756.91699219 858.03125 3775.953125 844.114257812 c 0
 3799.7734375 826.69921875 3813.91601562 810.796875 3825.94726562 790.440429688 c 0
 3842.89648438 761.764648438 3860 715.0078125 3860 629 c 0
 3860 491.399414062 3833.32421875 381.842773438 3789.83300781 292.3046875 c 0
 3759.53417969 229.928710938 3720.58886719 175.958007812 3671.43652344 127.123046875 c 0
 3632.11230469 88.05078125 3585.92285156 52.1865234375 3531.8984375 19.771484375 c 0
 3345.08007812 -92.3193359375 3083.48535156 -151 2777.59960938 -151 c 0
 2565.55957031 -151 2328.32910156 -122.665039062 2077.56347656 -64.044921875 c 0
 1764.0546875 9.2431640625 1429.62011719 129.62890625 1093.87304688 297.502929688 c 0
 1053.56445312 317.657226562 1008.09667969 329 960 329 c 0
EndSplineSet
EndChar

StartChar: uniE510
Encoding: 58640 58640 15
Width: 5120
Flags: HW
LayerCount: 2
Fore
SplineSet
3460 -371 m 0
 3460 -536.57421875 3594.42578125 -671 3760 -671 c 0
 3877.47851562 -671 3979.27539062 -603.328125 4028.50292969 -504.873046875 c 0
 4216.18457031 -129.508789062 4352.58886719 247.16796875 4437.32617188 609.653320312 c 0
 4505.125 899.68359375 4540 1180.77441406 4540 1446.59960938 c 0
 4540 1668.13378906 4515.82421875 1878.453125 4464.19921875 2073.46386719 c 0
 4422.9140625 2229.41796875 4363.88964844 2375.97851562 4284.10546875 2508.953125 c 0
 4228.72851562 2601.24804688 4163.25292969 2686.92675781 4087.4375 2763.234375 c 0
 3992.66308594 2858.62304688 3881.85546875 2938.85058594 3758.28417969 2998.87304688 c 0
 3580.05859375 3085.44238281 3377.95507812 3129 3160 3129 c 0
 2989.58300781 3129 2830.23632812 3092.42675781 2693.91308594 3011.85449219 c 0
 2599.6875 2956.16210938 2520.83105469 2881.43652344 2460.22265625 2798.53710938 c 0
 2411.72167969 2732.19726562 2374.53027344 2661.18066406 2345.50097656 2588.54101562 c 0
 2260.44628906 2375.70410156 2234.1796875 2119.27832031 2234.1796875 1834.90625 c 0
 2234.1796875 1628.60449219 2247.67480469 1416.69628906 2260.59082031 1210.03710938 c 0
 2273.49414062 1003.578125 2285.8203125 802.3671875 2285.8203125 623.09375 c 0
 2285.8203125 496.028320312 2279.48828125 380.09375 2265.015625 283.08203125 c 0
 2253.43359375 205.447265625 2236.57421875 140.508789062 2217.09570312 91.767578125 c 0
 2203.54785156 57.8671875 2189.03125 32.0830078125 2175.11425781 13.046875 c 0
 2157.69921875 -10.7734375 2141.796875 -24.916015625 2121.44042969 -36.947265625 c 0
 2092.76464844 -53.896484375 2046.0078125 -71 1960 -71 c 0
 1822.39941406 -71 1712.84277344 -44.32421875 1623.3046875 -0.8330078125 c 0
 1560.92871094 29.4658203125 1506.95800781 68.4111328125 1458.12304688 117.563476562 c 0
 1419.05078125 156.887695312 1383.18652344 203.077148438 1350.77148438 257.1015625 c 0
 1238.68066406 443.919921875 1180 705.514648438 1180 1011.40039062 c 0
 1180 1223.44042969 1208.33496094 1460.67089844 1266.95507812 1711.43652344 c 0
 1340.24316406 2024.9453125 1460.62890625 2359.37988281 1628.50292969 2695.12695312 c 0
 1648.65722656 2735.43554688 1660 2780.90332031 1660 2829 c 0
 1660 2994.57421875 1525.57421875 3129 1360 3129 c 0
 1242.52148438 3129 1140.72460938 3061.328125 1091.49707031 2962.87304688 c 0
 903.815429688 2587.50878906 767.411132812 2210.83203125 682.673828125 1848.34667969 c 0
 614.875 1558.31640625 580 1277.22558594 580 1011.40039062 c 0
 580 789.866210938 604.17578125 579.546875 655.80078125 384.536132812 c 0
 697.0859375 228.58203125 756.110351562 82.021484375 835.89453125 -50.953125 c 0
 891.271484375 -143.248046875 956.747070312 -228.926757812 1032.5625 -305.234375 c 0
 1127.33691406 -400.623046875 1238.14453125 -480.850585938 1361.71582031 -540.873046875 c 0
 1539.94140625 -627.442382812 1742.04492188 -671 1960 -671 c 0
 2130.41699219 -671 2289.76367188 -634.426757812 2426.08691406 -553.854492188 c 0
 2520.3125 -498.162109375 2599.16894531 -423.436523438 2659.77734375 -340.537109375 c 0
 2708.27832031 -274.197265625 2745.46972656 -203.180664062 2774.49902344 -130.541015625 c 0
 2859.55371094 82.2958984375 2885.8203125 338.721679688 2885.8203125 623.09375 c 0
 2885.8203125 829.395507812 2872.32519531 1041.30371094 2859.40917969 1247.96289062 c 0
 2846.50585938 1454.421875 2834.1796875 1655.6328125 2834.1796875 1834.90625 c 0
 2834.1796875 1961.97167969 2840.51171875 2077.90625 2854.984375 2174.91796875 c 0
 2866.56640625 2252.55273438 2883.42578125 2317.49121094 2902.90429688 2366.23242188 c 0
 2916.45214844 2400.1328125 2930.96875 2425.91699219 2944.88574219 2444.953125 c 0
 2962.30078125 2468.7734375 2978.203125 2482.91601562 2998.55957031 2494.94726562 c 0
 3027.23535156 2511.89648438 3073.9921875 2529 3160 2529 c 0
 3297.60058594 2529 3407.15722656 2502.32421875 3496.6953125 2458.83300781 c 0
 3559.07128906 2428.53417969 3613.04199219 2389.58886719 3661.87695312 2340.43652344 c 0
 3700.94921875 2301.11230469 3736.81347656 2254.92285156 3769.22851562 2200.8984375 c 0
 3881.31933594 2014.08007812 3940 1752.48535156 3940 1446.59960938 c 0
 3940 1234.55957031 3911.66503906 997.329101562 3853.04492188 746.563476562 c 0
 3779.75683594 433.0546875 3659.37109375 98.6201171875 3491.49707031 -237.126953125 c 0
 3471.34277344 -277.435546875 3460 -322.903320312 3460 -371 c 0
EndSplineSet
EndChar

StartChar: uniE511
Encoding: 58641 58641 16
Width: 5120
Flags: HW
LayerCount: 2
Fore
SplineSet
2860 5325 m 0
 2860 5490.57421875 2725.57421875 5625 2560 5625 c 0
 2446.90429688 5625 2348.34082031 5562.28222656 2297.22265625 5469.75976562 c 2
 697.22265625 2573.75976562 l 2
 673.50390625 2530.82714844 660 2481.47851562 660 2429 c 0
 660 2263.42578125 794.42578125 2129 960 2129 c 0
 1008.09667969 2129 1053.56445312 2140.34277344 1093.87304688 2160.49707031 c 0
 1429.62011719 2328.37109375 1764.0546875 2448.75683594 2077.56347656 2522.04492188 c 0
 2328.32910156 2580.66503906 2565.55957031 2609 2777.59960938 2609 c 0
 3083.60253906 2609 3344.96972656 2550.38574219 3531.8984375 2438.22851562 c 0
 3585.92285156 2405.81347656 3632.11230469 2369.94921875 3671.43652344 2330.87695312 c 0
 3720.58886719 2282.04199219 3759.53417969 2228.07128906 3789.83300781 2165.6953125 c 0
 3833.32421875 2076.15722656 3860 1966.60058594 3860 1829 c 0
 3860 1742.9921875 3842.89648438 1696.23535156 3825.94726562 1667.55957031 c 0
 3813.91601562 1647.203125 3799.7734375 1631.30078125 3775.953125 1613.88574219 c 0
 3756.91699219 1599.96875 3731.1328125 1585.45214844 3697.23242188 1571.90429688 c 0
 3648.49121094 1552.42578125 3583.55273438 1535.56640625 3505.91796875 1523.984375 c 0
 3408.90625 1509.51171875 3292.97167969 1503.1796875 3165.90625 1503.1796875 c 0
 2986.6328125 1503.1796875 2785.421875 1515.50585938 2578.96289062 1528.40917969 c 0
 2372.30371094 1541.32519531 2160.39550781 1554.8203125 1954.09375 1554.8203125 c 0
 1669.97753906 1554.8203125 1413.02734375 1528.44628906 1200.45898438 1443.49902344 c 0
 1127.81933594 1414.46972656 1056.80273438 1377.27832031 990.462890625 1328.77734375 c 0
 907.563476562 1268.16894531 832.837890625 1189.3125 777.145507812 1095.08691406 c 0
 696.573242188 958.763671875 660 799.416992188 660 629 c 0
 660 411.044921875 703.557617188 208.94140625 790.126953125 30.7158203125 c 0
 850.149414062 -92.85546875 930.376953125 -203.663085938 1025.765625 -298.4375 c 0
 1102.07324219 -374.252929688 1187.75195312 -439.728515625 1280.046875 -495.10546875 c 0
 1413.02148438 -574.889648438 1559.58203125 -633.9140625 1715.53613281 -675.19921875 c 0
 1910.546875 -726.82421875 2120.86621094 -751 2342.40039062 -751 c 0
 2608.22558594 -751 2889.31640625 -716.125 3179.34667969 -648.326171875 c 0
 3541.83203125 -563.588867188 3918.50878906 -427.184570312 4293.87304688 -239.502929688 c 0
 4392.328125 -190.275390625 4460 -88.478515625 4460 29 c 0
 4460 194.57421875 4325.57421875 329 4160 329 c 0
 4111.90332031 329 4066.43554688 317.657226562 4026.12695312 297.502929688 c 0
 3690.37988281 129.62890625 3355.9453125 9.2431640625 3042.43652344 -64.044921875 c 0
 2791.67089844 -122.665039062 2554.44042969 -151 2342.40039062 -151 c 0
 2036.39746094 -151 1775.03027344 -92.3857421875 1588.1015625 19.771484375 c 0
 1534.07714844 52.1865234375 1487.88769531 88.05078125 1448.56347656 127.123046875 c 0
 1399.41113281 175.958007812 1360.46582031 229.928710938 1330.16699219 292.3046875 c 0
 1286.67578125 381.842773438 1260 491.399414062 1260 629 c 0
 1260 715.0078125 1277.10351562 761.764648438 1294.05273438 790.440429688 c 0
 1306.08398438 810.796875 1320.2265625 826.69921875 1344.046875 844.114257812 c 0
 1363.08300781 858.03125 1388.8671875 872.547851562 1422.76757812 886.095703125 c 0
 1471.50878906 905.57421875 1536.44726562 922.43359375 1614.08203125 934.015625 c 0
 1711.09375 948.48828125 1827.02832031 954.8203125 1954.09375 954.8203125 c 0
 2133.3671875 954.8203125 2334.578125 942.494140625 2541.03710938 929.590820312 c 0
 2747.69628906 916.674804688 2959.60449219 903.1796875 3165.90625 903.1796875 c 0
 3450.02246094 903.1796875 3706.97265625 929.553710938 3919.54101562 1014.50097656 c 0
 3992.18066406 1043.53027344 4063.19726562 1080.72167969 4129.53710938 1129.22265625 c 0
 4212.43652344 1189.83105469 4287.16210938 1268.6875 4342.85449219 1362.91308594 c 0
 4423.42675781 1499.23632812 4460 1658.58300781 4460 1829 c 0
 4460 2046.95507812 4416.44238281 2249.05859375 4329.87304688 2427.28417969 c 0
 4269.85058594 2550.85546875 4189.62304688 2661.66308594 4094.234375 2756.4375 c 0
 4017.92675781 2832.25292969 3932.24804688 2897.72851562 3839.953125 2953.10546875 c 0
 3706.97851562 3032.88964844 3560.41796875 3091.9140625 3404.46386719 3133.19921875 c 0
 3209.453125 3184.82421875 2999.13378906 3209 2777.59960938 3209 c 0
 2511.77441406 3209 2230.68359375 3174.125 1940.65332031 3106.32617188 c 0
 1838.27539062 3082.39355469 1734.76660156 3054.33984375 1630.47460938 3022.17382812 c 1
 2822.77734375 5180.24023438 l 2
 2846.49609375 5223.17285156 2860 5272.52148438 2860 5325 c 0
EndSplineSet
EndChar

StartChar: uniE512
Encoding: 58642 58642 17
Width: 5120
Flags: HW
LayerCount: 2
Fore
SplineSet
2560 5625 m 0
 2394.42578125 5625 2260 5490.57421875 2260 5325 c 0
 2260 5272.52148438 2273.50390625 5223.17285156 2297.22265625 5180.24023438 c 2
 3489.52539062 3022.17382812 l 1
 3385.23339844 3054.33984375 3281.72460938 3082.39355469 3179.34667969 3106.32617188 c 0
 2889.31640625 3174.125 2608.22558594 3209 2342.40039062 3209 c 0
 2120.86621094 3209 1910.546875 3184.82421875 1715.53613281 3133.19921875 c 0
 1559.58203125 3091.9140625 1413.02148438 3032.88964844 1280.046875 2953.10546875 c 0
 1187.75195312 2897.72851562 1102.07324219 2832.25292969 1025.765625 2756.4375 c 0
 930.376953125 2661.66308594 850.149414062 2550.85546875 790.126953125 2427.28417969 c 0
 703.557617188 2249.05859375 660 2046.95507812 660 1829 c 0
 660 1658.58300781 696.573242188 1499.23632812 777.145507812 1362.91308594 c 0
 832.837890625 1268.6875 907.563476562 1189.83105469 990.462890625 1129.22265625 c 0
 1056.80273438 1080.72167969 1127.81933594 1043.53027344 1200.45898438 1014.50097656 c 0
 1413.29589844 929.446289062 1669.72167969 903.1796875 1954.09375 903.1796875 c 0
 2160.39550781 903.1796875 2372.30371094 916.674804688 2578.96289062 929.590820312 c 0
 2785.421875 942.494140625 2986.6328125 954.8203125 3165.90625 954.8203125 c 0
 3292.97167969 954.8203125 3408.90625 948.48828125 3505.91796875 934.015625 c 0
 3583.55273438 922.43359375 3648.49121094 905.57421875 3697.23242188 886.095703125 c 0
 3731.1328125 872.547851562 3756.91699219 858.03125 3775.953125 844.114257812 c 0
 3799.7734375 826.69921875 3813.91601562 810.796875 3825.94726562 790.440429688 c 0
 3842.89648438 761.764648438 3860 715.0078125 3860 629 c 0
 3860 491.399414062 3833.32421875 381.842773438 3789.83300781 292.3046875 c 0
 3759.53417969 229.928710938 3720.58886719 175.958007812 3671.43652344 127.123046875 c 0
 3632.11230469 88.05078125 3585.92285156 52.1865234375 3531.8984375 19.771484375 c 0
 3345.08007812 -92.3193359375 3083.48535156 -151 2777.59960938 -151 c 0
 2565.55957031 -151 2328.32910156 -122.665039062 2077.56347656 -64.044921875 c 0
 1764.0546875 9.2431640625 1429.62011719 129.62890625 1093.87304688 297.502929688 c 0
 1053.56445312 317.657226562 1008.09667969 329 960 329 c 0
 794.42578125 329 660 194.57421875 660 29 c 0
 660 -88.478515625 727.671875 -190.275390625 826.126953125 -239.502929688 c 0
 1201.49121094 -427.184570312 1578.16796875 -563.588867188 1940.65332031 -648.326171875 c 0
 2230.68359375 -716.125 2511.77441406 -751 2777.59960938 -751 c 0
 2999.13378906 -751 3209.453125 -726.82421875 3404.46386719 -675.19921875 c 0
 3560.41796875 -633.9140625 3706.97851562 -574.889648438 3839.953125 -495.10546875 c 0
 3932.24804688 -439.728515625 4017.92675781 -374.252929688 4094.234375 -298.4375 c 0
 4189.62304688 -203.663085938 4269.85058594 -92.85546875 4329.87304688 30.7158203125 c 0
 4416.44238281 208.94140625 4460 411.044921875 4460 629 c 0
 4460 799.416992188 4423.42675781 958.763671875 4342.85449219 1095.08691406 c 0
 4287.16210938 1189.3125 4212.43652344 1268.16894531 4129.53710938 1328.77734375 c 0
 4063.19726562 1377.27832031 3992.18066406 1414.46972656 3919.54101562 1443.49902344 c 0
 3706.70410156 1528.55371094 3450.27832031 1554.8203125 3165.90625 1554.8203125 c 0
 2959.60449219 1554.8203125 2747.69628906 1541.32519531 2541.03710938 1528.40917969 c 0
 2334.578125 1515.50585938 2133.3671875 1503.1796875 1954.09375 1503.1796875 c 0
 1827.02832031 1503.1796875 1711.09375 1509.51171875 1614.08203125 1523.984375 c 0
 1536.44726562 1535.56640625 1471.50878906 1552.42578125 1422.76757812 1571.90429688 c 0
 1388.8671875 1585.45214844 1363.08300781 1599.96875 1344.046875 1613.88574219 c 0
 1320.2265625 1631.30078125 1306.08398438 1647.203125 1294.05273438 1667.55957031 c 0
 1277.10351562 1696.23535156 1260 1742.9921875 1260 1829 c 0
 1260 1966.60058594 1286.67578125 2076.15722656 1330.16699219 2165.6953125 c 0
 1360.46582031 2228.07128906 1399.41113281 2282.04199219 1448.56347656 2330.87695312 c 0
 1487.88769531 2369.94921875 1534.07714844 2405.81347656 1588.1015625 2438.22851562 c 0
 1774.91992188 2550.31933594 2036.51464844 2609 2342.40039062 2609 c 0
 2554.44042969 2609 2791.67089844 2580.66503906 3042.43652344 2522.04492188 c 0
 3355.9453125 2448.75683594 3690.37988281 2328.37109375 4026.12695312 2160.49707031 c 0
 4066.43554688 2140.34277344 4111.90332031 2129 4160 2129 c 0
 4325.57421875 2129 4460 2263.42578125 4460 2429 c 0
 4460 2481.47851562 4446.49609375 2530.82714844 4422.77734375 2573.75976562 c 2
 2822.77734375 5469.75976562 l 2
 2771.65917969 5562.28222656 2673.09570312 5625 2560 5625 c 0
EndSplineSet
EndChar

StartChar: uniE513
Encoding: 58643 58643 18
Width: 5120
Flags: HW
LayerCount: 2
Fore
SplineSet
2560 -3167 m 0
 2725.57421875 -3167 2860 -3032.57421875 2860 -2867 c 0
 2860 -2814.52148438 2846.49609375 -2765.17285156 2822.77734375 -2722.24023438 c 2
 1630.47460938 -564.173828125 l 1
 1734.76660156 -596.33984375 1838.27539062 -624.393554688 1940.65332031 -648.326171875 c 0
 2230.68359375 -716.125 2511.77441406 -751 2777.59960938 -751 c 0
 2999.13378906 -751 3209.453125 -726.82421875 3404.46386719 -675.19921875 c 0
 3560.41796875 -633.9140625 3706.97851562 -574.889648438 3839.953125 -495.10546875 c 0
 3932.24804688 -439.728515625 4017.92675781 -374.252929688 4094.234375 -298.4375 c 0
 4189.62304688 -203.663085938 4269.85058594 -92.85546875 4329.87304688 30.7158203125 c 0
 4416.44238281 208.94140625 4460 411.044921875 4460 629 c 0
 4460 799.416992188 4423.42675781 958.763671875 4342.85449219 1095.08691406 c 0
 4287.16210938 1189.3125 4212.43652344 1268.16894531 4129.53710938 1328.77734375 c 0
 4063.19726562 1377.27832031 3992.18066406 1414.46972656 3919.54101562 1443.49902344 c 0
 3706.70410156 1528.55371094 3450.27832031 1554.8203125 3165.90625 1554.8203125 c 0
 2959.60449219 1554.8203125 2747.69628906 1541.32519531 2541.03710938 1528.40917969 c 0
 2334.578125 1515.50585938 2133.3671875 1503.1796875 1954.09375 1503.1796875 c 0
 1827.02832031 1503.1796875 1711.09375 1509.51171875 1614.08203125 1523.984375 c 0
 1536.44726562 1535.56640625 1471.50878906 1552.42578125 1422.76757812 1571.90429688 c 0
 1388.8671875 1585.45214844 1363.08300781 1599.96875 1344.046875 1613.88574219 c 0
 1320.2265625 1631.30078125 1306.08398438 1647.203125 1294.05273438 1667.55957031 c 0
 1277.10351562 1696.23535156 1260 1742.9921875 1260 1829 c 0
 1260 1966.60058594 1286.67578125 2076.15722656 1330.16699219 2165.6953125 c 0
 1360.46582031 2228.07128906 1399.41113281 2282.04199219 1448.56347656 2330.87695312 c 0
 1487.88769531 2369.94921875 1534.07714844 2405.81347656 1588.1015625 2438.22851562 c 0
 1774.91992188 2550.31933594 2036.51464844 2609 2342.40039062 2609 c 0
 2554.44042969 2609 2791.67089844 2580.66503906 3042.43652344 2522.04492188 c 0
 3355.9453125 2448.75683594 3690.37988281 2328.37109375 4026.12695312 2160.49707031 c 0
 4066.43554688 2140.34277344 4111.90332031 2129 4160 2129 c 0
 4325.57421875 2129 4460 2263.42578125 4460 2429 c 0
 4460 2546.47851562 4392.328125 2648.27539062 4293.87304688 2697.50292969 c 0
 3918.50878906 2885.18457031 3541.83203125 3021.58886719 3179.34667969 3106.32617188 c 0
 2889.31640625 3174.125 2608.22558594 3209 2342.40039062 3209 c 0
 2120.86621094 3209 1910.546875 3184.82421875 1715.53613281 3133.19921875 c 0
 1559.58203125 3091.9140625 1413.02148438 3032.88964844 1280.046875 2953.10546875 c 0
 1187.75195312 2897.72851562 1102.07324219 2832.25292969 1025.765625 2756.4375 c 0
 930.376953125 2661.66308594 850.149414062 2550.85546875 790.126953125 2427.28417969 c 0
 703.557617188 2249.05859375 660 2046.95507812 660 1829 c 0
 660 1658.58300781 696.573242188 1499.23632812 777.145507812 1362.91308594 c 0
 832.837890625 1268.6875 907.563476562 1189.83105469 990.462890625 1129.22265625 c 0
 1056.80273438 1080.72167969 1127.81933594 1043.53027344 1200.45898438 1014.50097656 c 0
 1413.29589844 929.446289062 1669.72167969 903.1796875 1954.09375 903.1796875 c 0
 2160.39550781 903.1796875 2372.30371094 916.674804688 2578.96289062 929.590820312 c 0
 2785.421875 942.494140625 2986.6328125 954.8203125 3165.90625 954.8203125 c 0
 3292.97167969 954.8203125 3408.90625 948.48828125 3505.91796875 934.015625 c 0
 3583.55273438 922.43359375 3648.49121094 905.57421875 3697.23242188 886.095703125 c 0
 3731.1328125 872.547851562 3756.91699219 858.03125 3775.953125 844.114257812 c 0
 3799.7734375 826.69921875 3813.91601562 810.796875 3825.94726562 790.440429688 c 0
 3842.89648438 761.764648438 3860 715.0078125 3860 629 c 0
 3860 491.399414062 3833.32421875 381.842773438 3789.83300781 292.3046875 c 0
 3759.53417969 229.928710938 3720.58886719 175.958007812 3671.43652344 127.123046875 c 0
 3632.11230469 88.05078125 3585.92285156 52.1865234375 3531.8984375 19.771484375 c 0
 3345.08007812 -92.3193359375 3083.48535156 -151 2777.59960938 -151 c 0
 2565.55957031 -151 2328.32910156 -122.665039062 2077.56347656 -64.044921875 c 0
 1764.0546875 9.2431640625 1429.62011719 129.62890625 1093.87304688 297.502929688 c 0
 1053.56445312 317.657226562 1008.09667969 329 960 329 c 0
 794.42578125 329 660 194.57421875 660 29 c 0
 660 -23.478515625 673.50390625 -72.8271484375 697.22265625 -115.759765625 c 2
 2297.22265625 -3011.75976562 l 2
 2348.34082031 -3104.28222656 2446.90429688 -3167 2560 -3167 c 0
EndSplineSet
EndChar

StartChar: uniE514
Encoding: 58644 58644 19
Width: 5120
Flags: HW
LayerCount: 2
Fore
SplineSet
2260 -2867 m 0
 2260 -3032.57421875 2394.42578125 -3167 2560 -3167 c 0
 2673.09570312 -3167 2771.65917969 -3104.28222656 2822.77734375 -3011.75976562 c 2
 4422.77734375 -115.759765625 l 2
 4446.49609375 -72.8271484375 4460 -23.478515625 4460 29 c 0
 4460 194.57421875 4325.57421875 329 4160 329 c 0
 4111.90332031 329 4066.43554688 317.657226562 4026.12695312 297.502929688 c 0
 3690.37988281 129.62890625 3355.9453125 9.2431640625 3042.43652344 -64.044921875 c 0
 2791.67089844 -122.665039062 2554.44042969 -151 2342.40039062 -151 c 0
 2036.39746094 -151 1775.03027344 -92.3857421875 1588.1015625 19.771484375 c 0
 1534.07714844 52.1865234375 1487.88769531 88.05078125 1448.56347656 127.123046875 c 0
 1399.41113281 175.958007812 1360.46582031 229.928710938 1330.16699219 292.3046875 c 0
 1286.67578125 381.842773438 1260 491.399414062 1260 629 c 0
 1260 715.0078125 1277.10351562 761.764648438 1294.05273438 790.440429688 c 0
 1306.08398438 810.796875 1320.2265625 826.69921875 1344.046875 844.114257812 c 0
 1363.08300781 858.03125 1388.8671875 872.547851562 1422.76757812 886.095703125 c 0
 1471.50878906 905.57421875 1536.44726562 922.43359375 1614.08203125 934.015625 c 0
 1711.09375 948.48828125 1827.02832031 954.8203125 1954.09375 954.8203125 c 0
 2133.3671875 954.8203125 2334.578125 942.494140625 2541.03710938 929.590820312 c 0
 2747.69628906 916.674804688 2959.60449219 903.1796875 3165.90625 903.1796875 c 0
 3450.02246094 903.1796875 3706.97265625 929.553710938 3919.54101562 1014.50097656 c 0
 3992.18066406 1043.53027344 4063.19726562 1080.72167969 4129.53710938 1129.22265625 c 0
 4212.43652344 1189.83105469 4287.16210938 1268.6875 4342.85449219 1362.91308594 c 0
 4423.42675781 1499.23632812 4460 1658.58300781 4460 1829 c 0
 4460 2046.95507812 4416.44238281 2249.05859375 4329.87304688 2427.28417969 c 0
 4269.85058594 2550.85546875 4189.62304688 2661.66308594 4094.234375 2756.4375 c 0
 4017.92675781 2832.25292969 3932.24804688 2897.72851562 3839.953125 2953.10546875 c 0
 3706.97851562 3032.88964844 3560.41796875 3091.9140625 3404.46386719 3133.19921875 c 0
 3209.453125 3184.82421875 2999.13378906 3209 2777.59960938 3209 c 0
 2511.77441406 3209 2230.68359375 3174.125 1940.65332031 3106.32617188 c 0
 1578.16796875 3021.58886719 1201.49121094 2885.18457031 826.126953125 2697.50292969 c 0
 727.671875 2648.27539062 660 2546.47851562 660 2429 c 0
 660 2263.42578125 794.42578125 2129 960 2129 c 0
 1008.09667969 2129 1053.56445312 2140.34277344 1093.87304688 2160.49707031 c 0
 1429.62011719 2328.37109375 1764.0546875 2448.75683594 2077.56347656 2522.04492188 c 0
 2328.32910156 2580.66503906 2565.55957031 2609 2777.59960938 2609 c 0
 3083.60253906 2609 3344.96972656 2550.38574219 3531.8984375 2438.22851562 c 0
 3585.92285156 2405.81347656 3632.11230469 2369.94921875 3671.43652344 2330.87695312 c 0
 3720.58886719 2282.04199219 3759.53417969 2228.07128906 3789.83300781 2165.6953125 c 0
 3833.32421875 2076.15722656 3860 1966.60058594 3860 1829 c 0
 3860 1742.9921875 3842.89648438 1696.23535156 3825.94726562 1667.55957031 c 0
 3813.91601562 1647.203125 3799.7734375 1631.30078125 3775.953125 1613.88574219 c 0
 3756.91699219 1599.96875 3731.1328125 1585.45214844 3697.23242188 1571.90429688 c 0
 3648.49121094 1552.42578125 3583.55273438 1535.56640625 3505.91796875 1523.984375 c 0
 3408.90625 1509.51171875 3292.97167969 1503.1796875 3165.90625 1503.1796875 c 0
 2986.6328125 1503.1796875 2785.421875 1515.50585938 2578.96289062 1528.40917969 c 0
 2372.30371094 1541.32519531 2160.39550781 1554.8203125 1954.09375 1554.8203125 c 0
 1669.97753906 1554.8203125 1413.02734375 1528.44628906 1200.45898438 1443.49902344 c 0
 1127.81933594 1414.46972656 1056.80273438 1377.27832031 990.462890625 1328.77734375 c 0
 907.563476562 1268.16894531 832.837890625 1189.3125 777.145507812 1095.08691406 c 0
 696.573242188 958.763671875 660 799.416992188 660 629 c 0
 660 411.044921875 703.557617188 208.94140625 790.126953125 30.7158203125 c 0
 850.149414062 -92.85546875 930.376953125 -203.663085938 1025.765625 -298.4375 c 0
 1102.07324219 -374.252929688 1187.75195312 -439.728515625 1280.046875 -495.10546875 c 0
 1413.02148438 -574.889648438 1559.58203125 -633.9140625 1715.53613281 -675.19921875 c 0
 1910.546875 -726.82421875 2120.86621094 -751 2342.40039062 -751 c 0
 2608.22558594 -751 2889.31640625 -716.125 3179.34667969 -648.326171875 c 0
 3281.72460938 -624.393554688 3385.23339844 -596.33984375 3489.52539062 -564.173828125 c 1
 2297.22265625 -2722.24023438 l 2
 2273.50390625 -2765.17285156 2260 -2814.52148438 2260 -2867 c 0
EndSplineSet
EndChar

StartChar: uniE515
Encoding: 58645 58645 20
Width: 5120
Flags: HW
LayerCount: 2
Fore
SplineSet
2860 5325 m 0
 2860 5490.57421875 2725.57421875 5625 2560 5625 c 0
 2440.87402344 5625 2337.87207031 5555.41699219 2289.45703125 5454.71191406 c 2
 1090.44726562 2960.77148438 l 1
 903.306640625 2586.10351562 767.252929688 2210.15625 682.673828125 1848.34667969 c 0
 614.875 1558.31640625 580 1277.22558594 580 1011.40039062 c 0
 580 789.866210938 604.17578125 579.546875 655.80078125 384.536132812 c 0
 697.0859375 228.58203125 756.110351562 82.021484375 835.89453125 -50.953125 c 0
 891.271484375 -143.248046875 956.747070312 -228.926757812 1032.5625 -305.234375 c 0
 1127.33691406 -400.623046875 1238.14453125 -480.850585938 1361.71582031 -540.873046875 c 0
 1539.94140625 -627.442382812 1742.04492188 -671 1960 -671 c 0
 2130.41699219 -671 2289.76367188 -634.426757812 2426.08691406 -553.854492188 c 0
 2520.3125 -498.162109375 2599.16894531 -423.436523438 2659.77734375 -340.537109375 c 0
 2708.27832031 -274.197265625 2745.46972656 -203.180664062 2774.49902344 -130.541015625 c 0
 2859.55371094 82.2958984375 2885.8203125 338.721679688 2885.8203125 623.09375 c 0
 2885.8203125 829.395507812 2872.32519531 1041.30371094 2859.40917969 1247.96289062 c 0
 2846.50585938 1454.421875 2834.1796875 1655.6328125 2834.1796875 1834.90625 c 0
 2834.1796875 1961.97167969 2840.51171875 2077.90625 2854.984375 2174.91796875 c 0
 2866.56640625 2252.55273438 2883.42578125 2317.49121094 2902.90429688 2366.23242188 c 0
 2916.45214844 2400.1328125 2930.96875 2425.91699219 2944.88574219 2444.953125 c 0
 2962.30078125 2468.7734375 2978.203125 2482.91601562 2998.55957031 2494.94726562 c 0
 3027.23535156 2511.89648438 3073.9921875 2529 3160 2529 c 0
 3297.60058594 2529 3407.15722656 2502.32421875 3496.6953125 2458.83300781 c 0
 3559.07128906 2428.53417969 3613.04199219 2389.58886719 3661.87695312 2340.43652344 c 0
 3700.94921875 2301.11230469 3736.81347656 2254.92285156 3769.22851562 2200.8984375 c 0
 3881.31933594 2014.08007812 3940 1752.48535156 3940 1446.59960938 c 0
 3940 1234.55957031 3911.66503906 997.329101562 3853.04492188 746.563476562 c 0
 3779.75683594 433.0546875 3659.37109375 98.6201171875 3491.49707031 -237.126953125 c 0
 3471.34277344 -277.435546875 3460 -322.903320312 3460 -371 c 0
 3460 -536.57421875 3594.42578125 -671 3760 -671 c 0
 3877.47851562 -671 3979.27539062 -603.328125 4028.50292969 -504.873046875 c 0
 4216.18457031 -129.508789062 4352.58886719 247.16796875 4437.32617188 609.653320312 c 0
 4505.125 899.68359375 4540 1180.77441406 4540 1446.59960938 c 0
 4540 1668.13378906 4515.82421875 1878.453125 4464.19921875 2073.46386719 c 0
 4422.9140625 2229.41796875 4363.88964844 2375.97851562 4284.10546875 2508.953125 c 0
 4228.72851562 2601.24804688 4163.25292969 2686.92675781 4087.4375 2763.234375 c 0
 3992.66308594 2858.62304688 3881.85546875 2938.85058594 3758.28417969 2998.87304688 c 0
 3580.05859375 3085.44238281 3377.95507812 3129 3160 3129 c 0
 2989.58300781 3129 2830.23632812 3092.42675781 2693.91308594 3011.85449219 c 0
 2599.6875 2956.16210938 2520.83105469 2881.43652344 2460.22265625 2798.53710938 c 0
 2411.72167969 2732.19726562 2374.53027344 2661.18066406 2345.50097656 2588.54101562 c 0
 2260.44628906 2375.70410156 2234.1796875 2119.27832031 2234.1796875 1834.90625 c 0
 2234.1796875 1628.60449219 2247.67480469 1416.69628906 2260.59082031 1210.03710938 c 0
 2273.49414062 1003.578125 2285.8203125 802.3671875 2285.8203125 623.09375 c 0
 2285.8203125 496.028320312 2279.48828125 380.09375 2265.015625 283.08203125 c 0
 2253.43359375 205.447265625 2236.57421875 140.508789062 2217.09570312 91.767578125 c 0
 2203.54785156 57.8671875 2189.03125 32.0830078125 2175.11425781 13.046875 c 0
 2157.69921875 -10.7734375 2141.796875 -24.916015625 2121.44042969 -36.947265625 c 0
 2092.76464844 -53.896484375 2046.0078125 -71 1960 -71 c 0
 1822.39941406 -71 1712.84277344 -44.32421875 1623.3046875 -0.8330078125 c 0
 1560.92871094 29.4658203125 1506.95800781 68.4111328125 1458.12304688 117.563476562 c 0
 1419.05078125 156.887695312 1383.18652344 203.077148438 1350.77148438 257.1015625 c 0
 1238.68066406 443.919921875 1180 705.514648438 1180 1011.40039062 c 0
 1180 1223.44042969 1208.33496094 1460.67089844 1266.95507812 1711.43652344 c 0
 1340.24316406 2024.9453125 1460.62890625 2359.37988281 1628.50292969 2695.12695312 c 0
 1629.19335938 2696.5078125 1629.87304688 2697.89453125 1630.54296875 2699.28808594 c 2
 2830.54296875 5195.28808594 l 2
 2849.42089844 5234.55371094 2860 5278.55078125 2860 5325 c 0
EndSplineSet
EndChar

StartChar: uniE516
Encoding: 58646 58646 21
Width: 5120
Flags: HW
LayerCount: 2
Fore
SplineSet
2560 5625 m 0
 2394.42578125 5625 2260 5490.57421875 2260 5325 c 0
 2260 5278.55078125 2270.57910156 5234.55371094 2289.45703125 5195.28808594 c 2
 3489.45703125 2699.28808594 l 2
 3490.12695312 2697.89453125 3490.80664062 2696.5078125 3491.49707031 2695.12695312 c 0
 3659.37109375 2359.37988281 3779.75683594 2024.9453125 3853.04492188 1711.43652344 c 0
 3911.66503906 1460.67089844 3940 1223.44042969 3940 1011.40039062 c 0
 3940 705.397460938 3881.38574219 444.030273438 3769.22851562 257.1015625 c 0
 3736.81347656 203.077148438 3700.94921875 156.887695312 3661.87695312 117.563476562 c 0
 3613.04199219 68.4111328125 3559.07128906 29.4658203125 3496.6953125 -0.8330078125 c 0
 3407.15722656 -44.32421875 3297.60058594 -71 3160 -71 c 0
 3073.9921875 -71 3027.23535156 -53.896484375 2998.55957031 -36.947265625 c 0
 2978.203125 -24.916015625 2962.30078125 -10.7734375 2944.88574219 13.046875 c 0
 2930.96875 32.0830078125 2916.45214844 57.8671875 2902.90429688 91.767578125 c 0
 2883.42578125 140.508789062 2866.56640625 205.447265625 2854.984375 283.08203125 c 0
 2840.51171875 380.09375 2834.1796875 496.028320312 2834.1796875 623.09375 c 0
 2834.1796875 802.3671875 2846.50585938 1003.578125 2859.40917969 1210.03710938 c 0
 2872.32519531 1416.69628906 2885.8203125 1628.60449219 2885.8203125 1834.90625 c 0
 2885.8203125 2119.02246094 2859.44628906 2375.97265625 2774.49902344 2588.54101562 c 0
 2745.46972656 2661.18066406 2708.27832031 2732.19726562 2659.77734375 2798.53710938 c 0
 2599.16894531 2881.43652344 2520.3125 2956.16210938 2426.08691406 3011.85449219 c 0
 2289.76367188 3092.42675781 2130.41699219 3129 1960 3129 c 0
 1742.04492188 3129 1539.94140625 3085.44238281 1361.71582031 2998.87304688 c 0
 1238.14453125 2938.85058594 1127.33691406 2858.62304688 1032.5625 2763.234375 c 0
 956.747070312 2686.92675781 891.271484375 2601.24804688 835.89453125 2508.953125 c 0
 756.110351562 2375.97851562 697.0859375 2229.41796875 655.80078125 2073.46386719 c 0
 604.17578125 1878.453125 580 1668.13378906 580 1446.59960938 c 0
 580 1180.77441406 614.875 899.68359375 682.673828125 609.653320312 c 0
 767.411132812 247.16796875 903.815429688 -129.508789062 1091.49707031 -504.873046875 c 0
 1140.72460938 -603.328125 1242.52148438 -671 1360 -671 c 0
 1525.57421875 -671 1660 -536.57421875 1660 -371 c 0
 1660 -322.903320312 1648.65722656 -277.435546875 1628.50292969 -237.126953125 c 0
 1460.62890625 98.6201171875 1340.24316406 433.0546875 1266.95507812 746.563476562 c 0
 1208.33496094 997.329101562 1180 1234.55957031 1180 1446.59960938 c 0
 1180 1752.60253906 1238.61425781 2013.96972656 1350.77148438 2200.8984375 c 0
 1383.18652344 2254.92285156 1419.05078125 2301.11230469 1458.12304688 2340.43652344 c 0
 1506.95800781 2389.58886719 1560.92871094 2428.53417969 1623.3046875 2458.83300781 c 0
 1712.84277344 2502.32421875 1822.39941406 2529 1960 2529 c 0
 2046.0078125 2529 2092.76464844 2511.89648438 2121.44042969 2494.94726562 c 0
 2141.796875 2482.91601562 2157.69921875 2468.7734375 2175.11425781 2444.953125 c 0
 2189.03125 2425.91699219 2203.54785156 2400.1328125 2217.09570312 2366.23242188 c 0
 2236.57421875 2317.49121094 2253.43359375 2252.55273438 2265.015625 2174.91796875 c 0
 2279.48828125 2077.90625 2285.8203125 1961.97167969 2285.8203125 1834.90625 c 0
 2285.8203125 1655.6328125 2273.49414062 1454.421875 2260.59082031 1247.96289062 c 0
 2247.67480469 1041.30371094 2234.1796875 829.395507812 2234.1796875 623.09375 c 0
 2234.1796875 338.977539062 2260.55371094 82.02734375 2345.50097656 -130.541015625 c 0
 2374.53027344 -203.180664062 2411.72167969 -274.197265625 2460.22265625 -340.537109375 c 0
 2520.83105469 -423.436523438 2599.6875 -498.162109375 2693.91308594 -553.854492188 c 0
 2830.23632812 -634.426757812 2989.58300781 -671 3160 -671 c 0
 3377.95507812 -671 3580.05859375 -627.442382812 3758.28417969 -540.873046875 c 0
 3881.85546875 -480.850585938 3992.66308594 -400.623046875 4087.4375 -305.234375 c 0
 4163.25292969 -228.926757812 4228.72851562 -143.248046875 4284.10546875 -50.953125 c 0
 4363.88964844 82.021484375 4422.9140625 228.58203125 4464.19921875 384.536132812 c 0
 4515.82421875 579.546875 4540 789.866210938 4540 1011.40039062 c 0
 4540 1277.22558594 4505.125 1558.31640625 4437.32617188 1848.34667969 c 0
 4352.74707031 2210.15625 4211.01855469 2583.32324219 4029.55273438 2960.77148438 c 2
 2830.54296875 5454.71191406 l 2
 2782.12792969 5555.41699219 2679.12597656 5625 2560 5625 c 0
EndSplineSet
EndChar

StartChar: uniE517
Encoding: 58647 58647 22
Width: 5120
Flags: HW
LayerCount: 2
Fore
SplineSet
2560 -3167 m 0
 2725.57421875 -3167 2860 -3032.57421875 2860 -2867 c 0
 2860 -2820.55078125 2849.42089844 -2776.55371094 2830.54296875 -2737.28808594 c 2
 1630.54296875 -241.288085938 l 2
 1629.87304688 -239.89453125 1629.19335938 -238.5078125 1628.50292969 -237.126953125 c 0
 1460.62890625 98.6201171875 1340.24316406 433.0546875 1266.95507812 746.563476562 c 0
 1208.33496094 997.329101562 1180 1234.55957031 1180 1446.59960938 c 0
 1180 1752.60253906 1238.61425781 2013.96972656 1350.77148438 2200.8984375 c 0
 1383.18652344 2254.92285156 1419.05078125 2301.11230469 1458.12304688 2340.43652344 c 0
 1506.95800781 2389.58886719 1560.92871094 2428.53417969 1623.3046875 2458.83300781 c 0
 1712.84277344 2502.32421875 1822.39941406 2529 1960 2529 c 0
 2046.0078125 2529 2092.76464844 2511.89648438 2121.44042969 2494.94726562 c 0
 2141.796875 2482.91601562 2157.69921875 2468.7734375 2175.11425781 2444.953125 c 0
 2189.03125 2425.91699219 2203.54785156 2400.1328125 2217.09570312 2366.23242188 c 0
 2236.57421875 2317.49121094 2253.43359375 2252.55273438 2265.015625 2174.91796875 c 0
 2279.48828125 2077.90625 2285.8203125 1961.97167969 2285.8203125 1834.90625 c 0
 2285.8203125 1655.6328125 2273.49414062 1454.421875 2260.59082031 1247.96289062 c 0
 2247.67480469 1041.30371094 2234.1796875 829.395507812 2234.1796875 623.09375 c 0
 2234.1796875 338.977539062 2260.55371094 82.02734375 2345.50097656 -130.541015625 c 0
 2374.53027344 -203.180664062 2411.72167969 -274.197265625 2460.22265625 -340.537109375 c 0
 2520.83105469 -423.436523438 2599.6875 -498.162109375 2693.91308594 -553.854492188 c 0
 2830.23632812 -634.426757812 2989.58300781 -671 3160 -671 c 0
 3377.95507812 -671 3580.05859375 -627.442382812 3758.28417969 -540.873046875 c 0
 3881.85546875 -480.850585938 3992.66308594 -400.623046875 4087.4375 -305.234375 c 0
 4163.25292969 -228.926757812 4228.72851562 -143.248046875 4284.10546875 -50.953125 c 0
 4363.88964844 82.021484375 4422.9140625 228.58203125 4464.19921875 384.536132812 c 0
 4515.82421875 579.546875 4540 789.866210938 4540 1011.40039062 c 0
 4540 1277.22558594 4505.125 1558.31640625 4437.32617188 1848.34667969 c 0
 4352.58886719 2210.83203125 4216.18457031 2587.50878906 4028.50292969 2962.87304688 c 0
 3979.27539062 3061.328125 3877.47851562 3129 3760 3129 c 0
 3594.42578125 3129 3460 2994.57421875 3460 2829 c 0
 3460 2780.90332031 3471.34277344 2735.43554688 3491.49707031 2695.12695312 c 0
 3659.37109375 2359.37988281 3779.75683594 2024.9453125 3853.04492188 1711.43652344 c 0
 3911.66503906 1460.67089844 3940 1223.44042969 3940 1011.40039062 c 0
 3940 705.397460938 3881.38574219 444.030273438 3769.22851562 257.1015625 c 0
 3736.81347656 203.077148438 3700.94921875 156.887695312 3661.87695312 117.563476562 c 0
 3613.04199219 68.4111328125 3559.07128906 29.4658203125 3496.6953125 -0.8330078125 c 0
 3407.15722656 -44.32421875 3297.60058594 -71 3160 -71 c 0
 3073.9921875 -71 3027.23535156 -53.896484375 2998.55957031 -36.947265625 c 0
 2978.203125 -24.916015625 2962.30078125 -10.7734375 2944.88574219 13.046875 c 0
 2930.96875 32.0830078125 2916.45214844 57.8671875 2902.90429688 91.767578125 c 0
 2883.42578125 140.508789062 2866.56640625 205.447265625 2854.984375 283.08203125 c 0
 2840.51171875 380.09375 2834.1796875 496.028320312 2834.1796875 623.09375 c 0
 2834.1796875 802.3671875 2846.50585938 1003.578125 2859.40917969 1210.03710938 c 0
 2872.32519531 1416.69628906 2885.8203125 1628.60449219 2885.8203125 1834.90625 c 0
 2885.8203125 2119.02246094 2859.44628906 2375.97265625 2774.49902344 2588.54101562 c 0
 2745.46972656 2661.18066406 2708.27832031 2732.19726562 2659.77734375 2798.53710938 c 0
 2599.16894531 2881.43652344 2520.3125 2956.16210938 2426.08691406 3011.85449219 c 0
 2289.76367188 3092.42675781 2130.41699219 3129 1960 3129 c 0
 1742.04492188 3129 1539.94140625 3085.44238281 1361.71582031 2998.87304688 c 0
 1238.14453125 2938.85058594 1127.33691406 2858.62304688 1032.5625 2763.234375 c 0
 956.747070312 2686.92675781 891.271484375 2601.24804688 835.89453125 2508.953125 c 0
 756.110351562 2375.97851562 697.0859375 2229.41796875 655.80078125 2073.46386719 c 0
 604.17578125 1878.453125 580 1668.13378906 580 1446.59960938 c 0
 580 1180.77441406 614.875 899.68359375 682.673828125 609.653320312 c 0
 767.252929688 247.84375 908.981445312 -125.323242188 1090.44726562 -502.771484375 c 2
 2289.45703125 -2996.71191406 l 2
 2337.87207031 -3097.41699219 2440.87402344 -3167 2560 -3167 c 0
EndSplineSet
EndChar

StartChar: uniE518
Encoding: 58648 58648 23
Width: 5120
Flags: HW
LayerCount: 2
Fore
SplineSet
2260 -2867 m 0
 2260 -3032.57421875 2394.42578125 -3167 2560 -3167 c 0
 2679.12597656 -3167 2782.12792969 -3097.41699219 2830.54296875 -2996.71191406 c 2
 4029.55273438 -502.771484375 l 1
 4216.69335938 -128.103515625 4352.74707031 247.84375 4437.32617188 609.653320312 c 0
 4505.125 899.68359375 4540 1180.77441406 4540 1446.59960938 c 0
 4540 1668.13378906 4515.82421875 1878.453125 4464.19921875 2073.46386719 c 0
 4422.9140625 2229.41796875 4363.88964844 2375.97851562 4284.10546875 2508.953125 c 0
 4228.72851562 2601.24804688 4163.25292969 2686.92675781 4087.4375 2763.234375 c 0
 3992.66308594 2858.62304688 3881.85546875 2938.85058594 3758.28417969 2998.87304688 c 0
 3580.05859375 3085.44238281 3377.95507812 3129 3160 3129 c 0
 2989.58300781 3129 2830.23632812 3092.42675781 2693.91308594 3011.85449219 c 0
 2599.6875 2956.16210938 2520.83105469 2881.43652344 2460.22265625 2798.53710938 c 0
 2411.72167969 2732.19726562 2374.53027344 2661.18066406 2345.50097656 2588.54101562 c 0
 2260.44628906 2375.70410156 2234.1796875 2119.27832031 2234.1796875 1834.90625 c 0
 2234.1796875 1628.60449219 2247.67480469 1416.69628906 2260.59082031 1210.03710938 c 0
 2273.49414062 1003.578125 2285.8203125 802.3671875 2285.8203125 623.09375 c 0
 2285.8203125 496.028320312 2279.48828125 380.09375 2265.015625 283.08203125 c 0
 2253.43359375 205.447265625 2236.57421875 140.508789062 2217.09570312 91.767578125 c 0
 2203.54785156 57.8671875 2189.03125 32.0830078125 2175.11425781 13.046875 c 0
 2157.69921875 -10.7734375 2141.796875 -24.916015625 2121.44042969 -36.947265625 c 0
 2092.76464844 -53.896484375 2046.0078125 -71 1960 -71 c 0
 1822.39941406 -71 1712.84277344 -44.32421875 1623.3046875 -0.8330078125 c 0
 1560.92871094 29.4658203125 1506.95800781 68.4111328125 1458.12304688 117.563476562 c 0
 1419.05078125 156.887695312 1383.18652344 203.077148438 1350.77148438 257.1015625 c 0
 1238.68066406 443.919921875 1180 705.514648438 1180 1011.40039062 c 0
 1180 1223.44042969 1208.33496094 1460.67089844 1266.95507812 1711.43652344 c 0
 1340.24316406 2024.9453125 1460.62890625 2359.37988281 1628.50292969 2695.12695312 c 0
 1648.65722656 2735.43554688 1660 2780.90332031 1660 2829 c 0
 1660 2994.57421875 1525.57421875 3129 1360 3129 c 0
 1242.52148438 3129 1140.72460938 3061.328125 1091.49707031 2962.87304688 c 0
 903.815429688 2587.50878906 767.411132812 2210.83203125 682.673828125 1848.34667969 c 0
 614.875 1558.31640625 580 1277.22558594 580 1011.40039062 c 0
 580 789.866210938 604.17578125 579.546875 655.80078125 384.536132812 c 0
 697.0859375 228.58203125 756.110351562 82.021484375 835.89453125 -50.953125 c 0
 891.271484375 -143.248046875 956.747070312 -228.926757812 1032.5625 -305.234375 c 0
 1127.33691406 -400.623046875 1238.14453125 -480.850585938 1361.71582031 -540.873046875 c 0
 1539.94140625 -627.442382812 1742.04492188 -671 1960 -671 c 0
 2130.41699219 -671 2289.76367188 -634.426757812 2426.08691406 -553.854492188 c 0
 2520.3125 -498.162109375 2599.16894531 -423.436523438 2659.77734375 -340.537109375 c 0
 2708.27832031 -274.197265625 2745.46972656 -203.180664062 2774.49902344 -130.541015625 c 0
 2859.55371094 82.2958984375 2885.8203125 338.721679688 2885.8203125 623.09375 c 0
 2885.8203125 829.395507812 2872.32519531 1041.30371094 2859.40917969 1247.96289062 c 0
 2846.50585938 1454.421875 2834.1796875 1655.6328125 2834.1796875 1834.90625 c 0
 2834.1796875 1961.97167969 2840.51171875 2077.90625 2854.984375 2174.91796875 c 0
 2866.56640625 2252.55273438 2883.42578125 2317.49121094 2902.90429688 2366.23242188 c 0
 2916.45214844 2400.1328125 2930.96875 2425.91699219 2944.88574219 2444.953125 c 0
 2962.30078125 2468.7734375 2978.203125 2482.91601562 2998.55957031 2494.94726562 c 0
 3027.23535156 2511.89648438 3073.9921875 2529 3160 2529 c 0
 3297.60058594 2529 3407.15722656 2502.32421875 3496.6953125 2458.83300781 c 0
 3559.07128906 2428.53417969 3613.04199219 2389.58886719 3661.87695312 2340.43652344 c 0
 3700.94921875 2301.11230469 3736.81347656 2254.92285156 3769.22851562 2200.8984375 c 0
 3881.31933594 2014.08007812 3940 1752.48535156 3940 1446.59960938 c 0
 3940 1234.55957031 3911.66503906 997.329101562 3853.04492188 746.563476562 c 0
 3779.75683594 433.0546875 3659.37109375 98.6201171875 3491.49707031 -237.126953125 c 0
 3490.80664062 -238.5078125 3490.12695312 -239.89453125 3489.45703125 -241.288085938 c 2
 2289.45703125 -2737.28808594 l 2
 2270.57910156 -2776.55371094 2260 -2820.55078125 2260 -2867 c 0
EndSplineSet
EndChar

StartChar: uniE519
Encoding: 58649 58649 24
Width: 5120
Flags: HW
LayerCount: 2
Fore
SplineSet
2860 1829 m 2
 2860 1994.57421875 2725.57421875 2129 2560 2129 c 0
 2394.42578125 2129 2260 1994.57421875 2260 1829 c 2
 2260 -52.2421875 l 1
 1948.25585938 -10.5703125 1710.52441406 98.7841796875 1557.3359375 290.270507812 c 0
 1422.62890625 458.653320312 1348 699.366210938 1348 1011.40039062 c 0
 1348 1218.09765625 1381.38476562 1453.45996094 1446.55371094 1704.36132812 c 0
 1528.02246094 2018.01367188 1658.64550781 2355.41113281 1828.50292969 2695.12695312 c 0
 1848.65722656 2735.43554688 1860 2780.90332031 1860 2829 c 0
 1860 2994.57421875 1725.57421875 3129 1560 3129 c 0
 1442.52148438 3129 1340.72460938 3061.328125 1291.49707031 2962.87304688 c 0
 1105.79980469 2591.47753906 959.87890625 2217.76464844 865.763671875 1855.421875 c 0
 790.466796875 1565.52734375 748 1282.56933594 748 1011.40039062 c 0
 748 606.633789062 844.038085938 221.568359375 1088.59082031 -84.1220703125 c 0
 1182.38769531 -201.368164062 1296.85449219 -304.477539062 1429.14746094 -388.815429688 c 0
 1534.97949219 -456.283203125 1651.86523438 -511.741210938 1778.59765625 -554.911132812 c 0
 2006.82617188 -632.65625 2266.65722656 -671 2560 -671 c 0
 2853.34277344 -671 3113.17382812 -632.65625 3341.40234375 -554.911132812 c 0
 3468.13476562 -511.741210938 3585.02050781 -456.283203125 3690.85253906 -388.815429688 c 0
 3823.14550781 -304.477539062 3937.61230469 -201.368164062 4031.40917969 -84.1220703125 c 0
 4275.96191406 221.568359375 4372 606.633789062 4372 1011.40039062 c 0
 4372 1282.56933594 4329.53320312 1565.52734375 4254.23632812 1855.421875 c 0
 4160.12109375 2217.76464844 4014.20019531 2591.47753906 3828.50292969 2962.87304688 c 0
 3779.27539062 3061.328125 3677.47851562 3129 3560 3129 c 0
 3394.42578125 3129 3260 2994.57421875 3260 2829 c 0
 3260 2780.90332031 3271.34277344 2735.43554688 3291.49707031 2695.12695312 c 0
 3461.35449219 2355.41113281 3591.97753906 2018.01367188 3673.44628906 1704.36132812 c 0
 3738.61523438 1453.45996094 3772 1218.09765625 3772 1011.40039062 c 0
 3772 699.366210938 3697.37109375 458.653320312 3562.6640625 290.270507812 c 0
 3409.91503906 99.3330078125 3171.01074219 -10.6689453125 2860 -52.2421875 c 1
 2860 1829 l 2
EndSplineSet
EndChar

StartChar: uniE51A
Encoding: 58650 58650 25
Width: 5120
Flags: HW
LayerCount: 2
Fore
SplineSet
3160 929 m 2
 3325.57421875 929 3460 1063.42578125 3460 1229 c 0
 3460 1394.57421875 3325.57421875 1529 3160 1529 c 2
 1278.7578125 1529 l 1
 1320.4296875 1840.74414062 1429.78417969 2078.47558594 1621.27050781 2231.6640625 c 0
 1789.65332031 2366.37109375 2030.36621094 2441 2342.40039062 2441 c 0
 2549.09765625 2441 2784.45996094 2407.61523438 3035.36132812 2342.44628906 c 0
 3349.01367188 2260.97753906 3686.41113281 2130.35449219 4026.12695312 1960.49707031 c 0
 4066.43554688 1940.34277344 4111.90332031 1929 4160 1929 c 0
 4325.57421875 1929 4460 2063.42578125 4460 2229 c 0
 4460 2346.47851562 4392.328125 2448.27539062 4293.87304688 2497.50292969 c 0
 3922.47753906 2683.20019531 3548.76464844 2829.12109375 3186.421875 2923.23632812 c 0
 2896.52734375 2998.53320312 2613.56933594 3041 2342.40039062 3041 c 0
 1937.63378906 3041 1552.56835938 2944.96191406 1246.87792969 2700.40917969 c 0
 1129.63183594 2606.61230469 1026.52246094 2492.14550781 942.184570312 2359.85253906 c 0
 874.716796875 2254.02050781 819.258789062 2137.13476562 776.088867188 2010.40234375 c 0
 698.34375 1782.17382812 660 1522.34277344 660 1229 c 0
 660 935.657226562 698.34375 675.826171875 776.088867188 447.59765625 c 0
 819.258789062 320.865234375 874.716796875 203.979492188 942.184570312 98.1474609375 c 0
 1026.52246094 -34.1455078125 1129.63183594 -148.612304688 1246.87792969 -242.409179688 c 0
 1552.56835938 -486.961914062 1937.63378906 -583 2342.40039062 -583 c 0
 2613.56933594 -583 2896.52734375 -540.533203125 3186.421875 -465.236328125 c 0
 3548.76464844 -371.12109375 3922.47753906 -225.200195312 4293.87304688 -39.5029296875 c 0
 4392.328125 9.724609375 4460 111.521484375 4460 229 c 0
 4460 394.57421875 4325.57421875 529 4160 529 c 0
 4111.90332031 529 4066.43554688 517.657226562 4026.12695312 497.502929688 c 0
 3686.41113281 327.645507812 3349.01367188 197.022460938 3035.36132812 115.553710938 c 0
 2784.45996094 50.384765625 2549.09765625 17 2342.40039062 17 c 0
 2030.36621094 17 1789.65332031 91.62890625 1621.27050781 226.3359375 c 0
 1430.33300781 379.084960938 1320.33105469 617.989257812 1278.7578125 929 c 1
 3160 929 l 2
EndSplineSet
EndChar

StartChar: uniE51B
Encoding: 58651 58651 26
Width: 5120
Flags: HW
LayerCount: 2
Fore
SplineSet
2260 629 m 2
 2260 463.42578125 2394.42578125 329 2560 329 c 0
 2725.57421875 329 2860 463.42578125 2860 629 c 2
 2860 2510.2421875 l 1
 3171.74414062 2468.5703125 3409.47558594 2359.21582031 3562.6640625 2167.72949219 c 0
 3697.37109375 1999.34667969 3772 1758.63378906 3772 1446.59960938 c 0
 3772 1239.90234375 3738.61523438 1004.54003906 3673.44628906 753.638671875 c 0
 3591.97753906 439.986328125 3461.35449219 102.588867188 3291.49707031 -237.126953125 c 0
 3271.34277344 -277.435546875 3260 -322.903320312 3260 -371 c 0
 3260 -536.57421875 3394.42578125 -671 3560 -671 c 0
 3677.47851562 -671 3779.27539062 -603.328125 3828.50292969 -504.873046875 c 0
 4014.20019531 -133.477539062 4160.12109375 240.235351562 4254.23632812 602.578125 c 0
 4329.53320312 892.47265625 4372 1175.43066406 4372 1446.59960938 c 0
 4372 1851.36621094 4275.96191406 2236.43164062 4031.40917969 2542.12207031 c 0
 3937.61230469 2659.36816406 3823.14550781 2762.47753906 3690.85253906 2846.81542969 c 0
 3585.02050781 2914.28320312 3468.13476562 2969.74121094 3341.40234375 3012.91113281 c 0
 3113.17382812 3090.65625 2853.34277344 3129 2560 3129 c 0
 2266.65722656 3129 2006.82617188 3090.65625 1778.59765625 3012.91113281 c 0
 1651.86523438 2969.74121094 1534.97949219 2914.28320312 1429.14746094 2846.81542969 c 0
 1296.85449219 2762.47753906 1182.38769531 2659.36816406 1088.59082031 2542.12207031 c 0
 844.038085938 2236.43164062 748 1851.36621094 748 1446.59960938 c 0
 748 1175.43066406 790.466796875 892.47265625 865.763671875 602.578125 c 0
 959.87890625 240.235351562 1105.79980469 -133.477539062 1291.49707031 -504.873046875 c 0
 1340.72460938 -603.328125 1442.52148438 -671 1560 -671 c 0
 1725.57421875 -671 1860 -536.57421875 1860 -371 c 0
 1860 -322.903320312 1848.65722656 -277.435546875 1828.50292969 -237.126953125 c 0
 1658.64550781 102.588867188 1528.02246094 439.986328125 1446.55371094 753.638671875 c 0
 1381.38476562 1004.54003906 1348 1239.90234375 1348 1446.59960938 c 0
 1348 1758.63378906 1422.62890625 1999.34667969 1557.3359375 2167.72949219 c 0
 1710.08496094 2358.66699219 1948.98925781 2468.66894531 2260 2510.2421875 c 1
 2260 629 l 2
EndSplineSet
EndChar

StartChar: uniE51C
Encoding: 58652 58652 27
Width: 5120
Flags: HW
LayerCount: 2
Fore
SplineSet
1960 1529 m 2
 1794.42578125 1529 1660 1394.57421875 1660 1229 c 0
 1660 1063.42578125 1794.42578125 929 1960 929 c 2
 3841.2421875 929 l 1
 3799.5703125 617.255859375 3690.21582031 379.524414062 3498.72949219 226.3359375 c 0
 3330.34667969 91.62890625 3089.63378906 17 2777.59960938 17 c 0
 2570.90234375 17 2335.54003906 50.384765625 2084.63867188 115.553710938 c 0
 1770.98632812 197.022460938 1433.58886719 327.645507812 1093.87304688 497.502929688 c 0
 1053.56445312 517.657226562 1008.09667969 529 960 529 c 0
 794.42578125 529 660 394.57421875 660 229 c 0
 660 111.521484375 727.671875 9.724609375 826.126953125 -39.5029296875 c 0
 1197.52246094 -225.200195312 1571.23535156 -371.12109375 1933.578125 -465.236328125 c 0
 2223.47265625 -540.533203125 2506.43066406 -583 2777.59960938 -583 c 0
 3182.36621094 -583 3567.43164062 -486.961914062 3873.12207031 -242.409179688 c 0
 3990.36816406 -148.612304688 4093.47753906 -34.1455078125 4177.81542969 98.1474609375 c 0
 4245.28320312 203.979492188 4300.74121094 320.865234375 4343.91113281 447.59765625 c 0
 4421.65625 675.826171875 4460 935.657226562 4460 1229 c 0
 4460 1522.34277344 4421.65625 1782.17382812 4343.91113281 2010.40234375 c 0
 4300.74121094 2137.13476562 4245.28320312 2254.02050781 4177.81542969 2359.85253906 c 0
 4093.47753906 2492.14550781 3990.36816406 2606.61230469 3873.12207031 2700.40917969 c 0
 3567.43164062 2944.96191406 3182.36621094 3041 2777.59960938 3041 c 0
 2506.43066406 3041 2223.47265625 2998.53320312 1933.578125 2923.23632812 c 0
 1571.23535156 2829.12109375 1197.52246094 2683.20019531 826.126953125 2497.50292969 c 0
 727.671875 2448.27539062 660 2346.47851562 660 2229 c 0
 660 2063.42578125 794.42578125 1929 960 1929 c 0
 1008.09667969 1929 1053.56445312 1940.34277344 1093.87304688 1960.49707031 c 0
 1433.58886719 2130.35449219 1770.98632812 2260.97753906 2084.63867188 2342.44628906 c 0
 2335.54003906 2407.61523438 2570.90234375 2441 2777.59960938 2441 c 0
 3089.63378906 2441 3330.34667969 2366.37109375 3498.72949219 2231.6640625 c 0
 3689.66699219 2078.91503906 3799.66894531 1840.01074219 3841.2421875 1529 c 1
 1960 1529 l 2
EndSplineSet
EndChar

StartChar: uniE51D
Encoding: 58653 58653 28
Width: 5120
Flags: HW
LayerCount: 2
Fore
SplineSet
2860 1829 m 2
 2860 1994.57421875 2725.57421875 2129 2560 2129 c 0
 2394.42578125 2129 2260 1994.57421875 2260 1829 c 2
 2260 -52.2421875 l 1
 1948.25585938 -10.5703125 1710.52441406 98.7841796875 1557.3359375 290.270507812 c 0
 1422.62890625 458.653320312 1348 699.366210938 1348 1011.40039062 c 0
 1348 1218.09765625 1381.38476562 1453.45996094 1446.55371094 1704.36132812 c 0
 1528.02246094 2018.01367188 1658.64550781 2355.41113281 1828.50292969 2695.12695312 c 0
 1832.16699219 2702.45410156 1835.5390625 2709.95214844 1838.60449219 2717.60449219 c 2
 2838.60449219 5213.60449219 l 2
 2852.40625 5248.05175781 2860 5285.64648438 2860 5325 c 0
 2860 5490.57421875 2725.57421875 5625 2560 5625 c 0
 2433.77929688 5625 2325.66015625 5546.88085938 2281.39550781 5436.39550781 c 2
 1285.92871094 2951.71191406 l 1
 1102.88183594 2583.9921875 958.936523438 2214.13476562 865.763671875 1855.421875 c 0
 790.466796875 1565.52734375 748 1282.56933594 748 1011.40039062 c 0
 748 606.633789062 844.038085938 221.568359375 1088.59082031 -84.1220703125 c 0
 1182.38769531 -201.368164062 1296.85449219 -304.477539062 1429.14746094 -388.815429688 c 0
 1534.97949219 -456.283203125 1651.86523438 -511.741210938 1778.59765625 -554.911132812 c 0
 2006.82617188 -632.65625 2266.65722656 -671 2560 -671 c 0
 2853.34277344 -671 3113.17382812 -632.65625 3341.40234375 -554.911132812 c 0
 3468.13476562 -511.741210938 3585.02050781 -456.283203125 3690.85253906 -388.815429688 c 0
 3823.14550781 -304.477539062 3937.61230469 -201.368164062 4031.40917969 -84.1220703125 c 0
 4275.96191406 221.568359375 4372 606.633789062 4372 1011.40039062 c 0
 4372 1282.56933594 4329.53320312 1565.52734375 4254.23632812 1855.421875 c 0
 4160.12109375 2217.76464844 4014.20019531 2591.47753906 3828.50292969 2962.87304688 c 0
 3779.27539062 3061.328125 3677.47851562 3129 3560 3129 c 0
 3394.42578125 3129 3260 2994.57421875 3260 2829 c 0
 3260 2780.90332031 3271.34277344 2735.43554688 3291.49707031 2695.12695312 c 0
 3461.35449219 2355.41113281 3591.97753906 2018.01367188 3673.44628906 1704.36132812 c 0
 3738.61523438 1453.45996094 3772 1218.09765625 3772 1011.40039062 c 0
 3772 699.366210938 3697.37109375 458.653320312 3562.6640625 290.270507812 c 0
 3409.91503906 99.3330078125 3171.01074219 -10.6689453125 2860 -52.2421875 c 1
 2860 1829 l 2
EndSplineSet
EndChar

StartChar: uniE51E
Encoding: 58654 58654 29
Width: 5120
Flags: HW
LayerCount: 2
Fore
SplineSet
2860 1829 m 2
 2860 1994.57421875 2725.57421875 2129 2560 2129 c 0
 2394.42578125 2129 2260 1994.57421875 2260 1829 c 2
 2260 -52.2421875 l 1
 1948.25585938 -10.5703125 1710.52441406 98.7841796875 1557.3359375 290.270507812 c 0
 1422.62890625 458.653320312 1348 699.366210938 1348 1011.40039062 c 0
 1348 1218.09765625 1381.38476562 1453.45996094 1446.55371094 1704.36132812 c 0
 1528.02246094 2018.01367188 1658.64550781 2355.41113281 1828.50292969 2695.12695312 c 0
 1848.65722656 2735.43554688 1860 2780.90332031 1860 2829 c 0
 1860 2994.57421875 1725.57421875 3129 1560 3129 c 0
 1442.52148438 3129 1340.72460938 3061.328125 1291.49707031 2962.87304688 c 0
 1105.79980469 2591.47753906 959.87890625 2217.76464844 865.763671875 1855.421875 c 0
 790.466796875 1565.52734375 748 1282.56933594 748 1011.40039062 c 0
 748 606.633789062 844.038085938 221.568359375 1088.59082031 -84.1220703125 c 0
 1182.38769531 -201.368164062 1296.85449219 -304.477539062 1429.14746094 -388.815429688 c 0
 1534.97949219 -456.283203125 1651.86523438 -511.741210938 1778.59765625 -554.911132812 c 0
 2006.82617188 -632.65625 2266.65722656 -671 2560 -671 c 0
 2853.34277344 -671 3113.17382812 -632.65625 3341.40234375 -554.911132812 c 0
 3468.13476562 -511.741210938 3585.02050781 -456.283203125 3690.85253906 -388.815429688 c 0
 3823.14550781 -304.477539062 3937.61230469 -201.368164062 4031.40917969 -84.1220703125 c 0
 4275.96191406 221.568359375 4372 606.633789062 4372 1011.40039062 c 0
 4372 1282.56933594 4329.53320312 1565.52734375 4254.23632812 1855.421875 c 0
 4161.06347656 2214.13476562 3986.83398438 2570.41503906 3834.07128906 2951.71191406 c 2
 2838.60449219 5436.39550781 l 2
 2794.33984375 5546.88085938 2686.22070312 5625 2560 5625 c 0
 2394.42578125 5625 2260 5490.57421875 2260 5325 c 0
 2260 5285.64648438 2267.59375 5248.05175781 2281.39550781 5213.60449219 c 2
 3281.39550781 2717.60449219 l 2
 3284.4609375 2709.95214844 3287.83300781 2702.45410156 3291.49707031 2695.12695312 c 0
 3461.35449219 2355.41113281 3591.97753906 2018.01367188 3673.44628906 1704.36132812 c 0
 3738.61523438 1453.45996094 3772 1218.09765625 3772 1011.40039062 c 0
 3772 699.366210938 3697.37109375 458.653320312 3562.6640625 290.270507812 c 0
 3409.91503906 99.3330078125 3171.01074219 -10.6689453125 2860 -52.2421875 c 1
 2860 1829 l 2
EndSplineSet
EndChar

StartChar: uniE51F
Encoding: 58655 58655 30
Width: 5120
Flags: HW
LayerCount: 2
Fore
SplineSet
2260 629 m 2
 2260 463.42578125 2394.42578125 329 2560 329 c 0
 2725.57421875 329 2860 463.42578125 2860 629 c 2
 2860 2510.2421875 l 1
 3171.74414062 2468.5703125 3409.47558594 2359.21582031 3562.6640625 2167.72949219 c 0
 3697.37109375 1999.34667969 3772 1758.63378906 3772 1446.59960938 c 0
 3772 1239.90234375 3738.61523438 1004.54003906 3673.44628906 753.638671875 c 0
 3591.97753906 439.986328125 3461.35449219 102.588867188 3291.49707031 -237.126953125 c 0
 3271.34277344 -277.435546875 3260 -322.903320312 3260 -371 c 0
 3260 -536.57421875 3394.42578125 -671 3560 -671 c 0
 3677.47851562 -671 3779.27539062 -603.328125 3828.50292969 -504.873046875 c 0
 4014.20019531 -133.477539062 4160.12109375 240.235351562 4254.23632812 602.578125 c 0
 4329.53320312 892.47265625 4372 1175.43066406 4372 1446.59960938 c 0
 4372 1851.36621094 4275.96191406 2236.43164062 4031.40917969 2542.12207031 c 0
 3937.61230469 2659.36816406 3823.14550781 2762.47753906 3690.85253906 2846.81542969 c 0
 3585.02050781 2914.28320312 3468.13476562 2969.74121094 3341.40234375 3012.91113281 c 0
 3113.17382812 3090.65625 2853.34277344 3129 2560 3129 c 0
 2266.65722656 3129 2006.82617188 3090.65625 1778.59765625 3012.91113281 c 0
 1651.86523438 2969.74121094 1534.97949219 2914.28320312 1429.14746094 2846.81542969 c 0
 1296.85449219 2762.47753906 1182.38769531 2659.36816406 1088.59082031 2542.12207031 c 0
 844.038085938 2236.43164062 748 1851.36621094 748 1446.59960938 c 0
 748 1175.43066406 790.466796875 892.47265625 865.763671875 602.578125 c 0
 958.936523438 243.865234375 1133.16601562 -112.415039062 1285.92871094 -493.711914062 c 2
 2281.39550781 -2978.39550781 l 2
 2325.66015625 -3088.88085938 2433.77929688 -3167 2560 -3167 c 0
 2725.57421875 -3167 2860 -3032.57421875 2860 -2867 c 0
 2860 -2827.64648438 2852.40625 -2790.05175781 2838.60449219 -2755.60449219 c 2
 1838.60449219 -259.604492188 l 2
 1835.5390625 -251.952148438 1832.16699219 -244.454101562 1828.50292969 -237.126953125 c 0
 1658.64550781 102.588867188 1528.02246094 439.986328125 1446.55371094 753.638671875 c 0
 1381.38476562 1004.54003906 1348 1239.90234375 1348 1446.59960938 c 0
 1348 1758.63378906 1422.62890625 1999.34667969 1557.3359375 2167.72949219 c 0
 1710.08496094 2358.66699219 1948.98925781 2468.66894531 2260 2510.2421875 c 1
 2260 629 l 2
EndSplineSet
EndChar

StartChar: uniE520
Encoding: 58656 58656 31
Width: 5120
Flags: HW
LayerCount: 2
Fore
SplineSet
2260 629 m 2
 2260 463.42578125 2394.42578125 329 2560 329 c 0
 2725.57421875 329 2860 463.42578125 2860 629 c 2
 2860 2510.2421875 l 1
 3171.74414062 2468.5703125 3409.47558594 2359.21582031 3562.6640625 2167.72949219 c 0
 3697.37109375 1999.34667969 3772 1758.63378906 3772 1446.59960938 c 0
 3772 1239.90234375 3738.61523438 1004.54003906 3673.44628906 753.638671875 c 0
 3591.97753906 439.986328125 3461.35449219 102.588867188 3291.49707031 -237.126953125 c 0
 3287.83300781 -244.454101562 3284.4609375 -251.952148438 3281.39550781 -259.604492188 c 2
 2281.39550781 -2755.60449219 l 2
 2267.59375 -2790.05175781 2260 -2827.64648438 2260 -2867 c 0
 2260 -3032.57421875 2394.42578125 -3167 2560 -3167 c 0
 2686.22070312 -3167 2794.33984375 -3088.88085938 2838.60449219 -2978.39550781 c 2
 3834.07128906 -493.711914062 l 1
 4017.11816406 -125.9921875 4161.06347656 243.865234375 4254.23632812 602.578125 c 0
 4329.53320312 892.47265625 4372 1175.43066406 4372 1446.59960938 c 0
 4372 1851.36621094 4275.96191406 2236.43164062 4031.40917969 2542.12207031 c 0
 3937.61230469 2659.36816406 3823.14550781 2762.47753906 3690.85253906 2846.81542969 c 0
 3585.02050781 2914.28320312 3468.13476562 2969.74121094 3341.40234375 3012.91113281 c 0
 3113.17382812 3090.65625 2853.34277344 3129 2560 3129 c 0
 2266.65722656 3129 2006.82617188 3090.65625 1778.59765625 3012.91113281 c 0
 1651.86523438 2969.74121094 1534.97949219 2914.28320312 1429.14746094 2846.81542969 c 0
 1296.85449219 2762.47753906 1182.38769531 2659.36816406 1088.59082031 2542.12207031 c 0
 844.038085938 2236.43164062 748 1851.36621094 748 1446.59960938 c 0
 748 1175.43066406 790.466796875 892.47265625 865.763671875 602.578125 c 0
 959.87890625 240.235351562 1105.79980469 -133.477539062 1291.49707031 -504.873046875 c 0
 1340.72460938 -603.328125 1442.52148438 -671 1560 -671 c 0
 1725.57421875 -671 1860 -536.57421875 1860 -371 c 0
 1860 -322.903320312 1848.65722656 -277.435546875 1828.50292969 -237.126953125 c 0
 1658.64550781 102.588867188 1528.02246094 439.986328125 1446.55371094 753.638671875 c 0
 1381.38476562 1004.54003906 1348 1239.90234375 1348 1446.59960938 c 0
 1348 1758.63378906 1422.62890625 1999.34667969 1557.3359375 2167.72949219 c 0
 1710.08496094 2358.66699219 1948.98925781 2468.66894531 2260 2510.2421875 c 1
 2260 629 l 2
EndSplineSet
EndChar

StartChar: uniE521
Encoding: 58657 58657 32
Width: 5120
Flags: HW
LayerCount: 2
Fore
SplineSet
1960 1529 m 2
 1794.42578125 1529 1660 1394.57421875 1660 1229 c 0
 1660 1063.42578125 1794.42578125 929 1960 929 c 2
 3841.2421875 929 l 1
 3799.5703125 617.255859375 3690.21582031 379.524414062 3498.72949219 226.3359375 c 0
 3330.34667969 91.62890625 3089.63378906 17 2777.59960938 17 c 0
 2570.90234375 17 2335.54003906 50.384765625 2084.63867188 115.553710938 c 0
 1770.98632812 197.022460938 1433.58886719 327.645507812 1093.87304688 497.502929688 c 0
 1053.56445312 517.657226562 1008.09667969 529 960 529 c 0
 794.42578125 529 660 394.57421875 660 229 c 0
 660 111.521484375 727.671875 9.724609375 826.126953125 -39.5029296875 c 0
 1197.52246094 -225.200195312 1571.23535156 -371.12109375 1933.578125 -465.236328125 c 0
 2223.47265625 -540.533203125 2506.43066406 -583 2777.59960938 -583 c 0
 3182.36621094 -583 3567.43164062 -486.961914062 3873.12207031 -242.409179688 c 0
 3990.36816406 -148.612304688 4093.47753906 -34.1455078125 4177.81542969 98.1474609375 c 0
 4245.28320312 203.979492188 4300.74121094 320.865234375 4343.91113281 447.59765625 c 0
 4421.65625 675.826171875 4460 935.657226562 4460 1229 c 0
 4460 1522.34277344 4421.65625 1782.17382812 4343.91113281 2010.40234375 c 0
 4300.74121094 2137.13476562 4245.28320312 2254.02050781 4177.81542969 2359.85253906 c 0
 4093.47753906 2492.14550781 3990.36816406 2606.61230469 3873.12207031 2700.40917969 c 0
 3567.43164062 2944.96191406 3182.36621094 3041 2777.59960938 3041 c 0
 2506.43066406 3041 2223.47265625 2998.53320312 1933.578125 2923.23632812 c 0
 1825.22949219 2895.09375 1715.86523438 2862.31933594 1605.84863281 2825.234375 c 1
 2826.69433594 5187.56933594 l 2
 2847.97753906 5228.75195312 2860 5275.48339844 2860 5325 c 0
 2860 5490.57421875 2725.57421875 5625 2560 5625 c 0
 2443.94238281 5625 2343.18945312 5558.95507812 2293.30566406 5462.43066406 c 2
 693.305664062 2366.43066406 l 2
 672.022460938 2325.24804688 660 2278.51660156 660 2229 c 0
 660 2063.42578125 794.42578125 1929 960 1929 c 0
 1008.09667969 1929 1053.56445312 1940.34277344 1093.87304688 1960.49707031 c 0
 1433.58886719 2130.35449219 1770.98632812 2260.97753906 2084.63867188 2342.44628906 c 0
 2335.54003906 2407.61523438 2570.90234375 2441 2777.59960938 2441 c 0
 3089.63378906 2441 3330.34667969 2366.37109375 3498.72949219 2231.6640625 c 0
 3689.66699219 2078.91503906 3799.66894531 1840.01074219 3841.2421875 1529 c 1
 1960 1529 l 2
EndSplineSet
EndChar

StartChar: uniE522
Encoding: 58658 58658 33
Width: 5120
Flags: HW
LayerCount: 2
Fore
SplineSet
3160 929 m 2
 3325.57421875 929 3460 1063.42578125 3460 1229 c 0
 3460 1394.57421875 3325.57421875 1529 3160 1529 c 2
 1278.7578125 1529 l 1
 1320.4296875 1840.74414062 1429.78417969 2078.47558594 1621.27050781 2231.6640625 c 0
 1789.65332031 2366.37109375 2030.36621094 2441 2342.40039062 2441 c 0
 2549.09765625 2441 2784.45996094 2407.61523438 3035.36132812 2342.44628906 c 0
 3349.01367188 2260.97753906 3686.41113281 2130.35449219 4026.12695312 1960.49707031 c 0
 4066.43554688 1940.34277344 4111.90332031 1929 4160 1929 c 0
 4325.57421875 1929 4460 2063.42578125 4460 2229 c 0
 4460 2278.51660156 4447.97753906 2325.24804688 4426.69433594 2366.43066406 c 2
 2826.69433594 5462.43066406 l 2
 2776.81054688 5558.95507812 2676.05761719 5625 2560 5625 c 0
 2394.42578125 5625 2260 5490.57421875 2260 5325 c 0
 2260 5275.48339844 2272.02246094 5228.75195312 2293.30566406 5187.56933594 c 2
 3514.15136719 2825.234375 l 1
 3404.13476562 2862.31933594 3294.77050781 2895.09375 3186.421875 2923.23632812 c 0
 2896.52734375 2998.53320312 2613.56933594 3041 2342.40039062 3041 c 0
 1937.63378906 3041 1552.56835938 2944.96191406 1246.87792969 2700.40917969 c 0
 1129.63183594 2606.61230469 1026.52246094 2492.14550781 942.184570312 2359.85253906 c 0
 874.716796875 2254.02050781 819.258789062 2137.13476562 776.088867188 2010.40234375 c 0
 698.34375 1782.17382812 660 1522.34277344 660 1229 c 0
 660 935.657226562 698.34375 675.826171875 776.088867188 447.59765625 c 0
 819.258789062 320.865234375 874.716796875 203.979492188 942.184570312 98.1474609375 c 0
 1026.52246094 -34.1455078125 1129.63183594 -148.612304688 1246.87792969 -242.409179688 c 0
 1552.56835938 -486.961914062 1937.63378906 -583 2342.40039062 -583 c 0
 2613.56933594 -583 2896.52734375 -540.533203125 3186.421875 -465.236328125 c 0
 3548.76464844 -371.12109375 3922.47753906 -225.200195312 4293.87304688 -39.5029296875 c 0
 4392.328125 9.724609375 4460 111.521484375 4460 229 c 0
 4460 394.57421875 4325.57421875 529 4160 529 c 0
 4111.90332031 529 4066.43554688 517.657226562 4026.12695312 497.502929688 c 0
 3686.41113281 327.645507812 3349.01367188 197.022460938 3035.36132812 115.553710938 c 0
 2784.45996094 50.384765625 2549.09765625 17 2342.40039062 17 c 0
 2030.36621094 17 1789.65332031 91.62890625 1621.27050781 226.3359375 c 0
 1430.33300781 379.084960938 1320.33105469 617.989257812 1278.7578125 929 c 1
 3160 929 l 2
EndSplineSet
EndChar

StartChar: uniE523
Encoding: 58659 58659 34
Width: 5120
Flags: HW
LayerCount: 2
Fore
SplineSet
1960 1529 m 2
 1794.42578125 1529 1660 1394.57421875 1660 1229 c 0
 1660 1063.42578125 1794.42578125 929 1960 929 c 2
 3841.2421875 929 l 1
 3799.5703125 617.255859375 3690.21582031 379.524414062 3498.72949219 226.3359375 c 0
 3330.34667969 91.62890625 3089.63378906 17 2777.59960938 17 c 0
 2570.90234375 17 2335.54003906 50.384765625 2084.63867188 115.553710938 c 0
 1770.98632812 197.022460938 1433.58886719 327.645507812 1093.87304688 497.502929688 c 0
 1053.56445312 517.657226562 1008.09667969 529 960 529 c 0
 794.42578125 529 660 394.57421875 660 229 c 0
 660 179.483398438 672.022460938 132.751953125 693.305664062 91.5693359375 c 2
 2293.30566406 -3004.43066406 l 2
 2343.18945312 -3100.95507812 2443.94238281 -3167 2560 -3167 c 0
 2725.57421875 -3167 2860 -3032.57421875 2860 -2867 c 0
 2860 -2817.48339844 2847.97753906 -2770.75195312 2826.69433594 -2729.56933594 c 2
 1605.84863281 -367.234375 l 1
 1715.86523438 -404.319335938 1825.22949219 -437.09375 1933.578125 -465.236328125 c 0
 2223.47265625 -540.533203125 2506.43066406 -583 2777.59960938 -583 c 0
 3182.36621094 -583 3567.43164062 -486.961914062 3873.12207031 -242.409179688 c 0
 3990.36816406 -148.612304688 4093.47753906 -34.1455078125 4177.81542969 98.1474609375 c 0
 4245.28320312 203.979492188 4300.74121094 320.865234375 4343.91113281 447.59765625 c 0
 4421.65625 675.826171875 4460 935.657226562 4460 1229 c 0
 4460 1522.34277344 4421.65625 1782.17382812 4343.91113281 2010.40234375 c 0
 4300.74121094 2137.13476562 4245.28320312 2254.02050781 4177.81542969 2359.85253906 c 0
 4093.47753906 2492.14550781 3990.36816406 2606.61230469 3873.12207031 2700.40917969 c 0
 3567.43164062 2944.96191406 3182.36621094 3041 2777.59960938 3041 c 0
 2506.43066406 3041 2223.47265625 2998.53320312 1933.578125 2923.23632812 c 0
 1571.23535156 2829.12109375 1197.52246094 2683.20019531 826.126953125 2497.50292969 c 0
 727.671875 2448.27539062 660 2346.47851562 660 2229 c 0
 660 2063.42578125 794.42578125 1929 960 1929 c 0
 1008.09667969 1929 1053.56445312 1940.34277344 1093.87304688 1960.49707031 c 0
 1433.58886719 2130.35449219 1770.98632812 2260.97753906 2084.63867188 2342.44628906 c 0
 2335.54003906 2407.61523438 2570.90234375 2441 2777.59960938 2441 c 0
 3089.63378906 2441 3330.34667969 2366.37109375 3498.72949219 2231.6640625 c 0
 3689.66699219 2078.91503906 3799.66894531 1840.01074219 3841.2421875 1529 c 1
 1960 1529 l 2
EndSplineSet
EndChar

StartChar: uniE524
Encoding: 58660 58660 35
Width: 5120
Flags: HW
LayerCount: 2
Fore
SplineSet
3160 929 m 2
 3325.57421875 929 3460 1063.42578125 3460 1229 c 0
 3460 1394.57421875 3325.57421875 1529 3160 1529 c 2
 1278.7578125 1529 l 1
 1320.4296875 1840.74414062 1429.78417969 2078.47558594 1621.27050781 2231.6640625 c 0
 1789.65332031 2366.37109375 2030.36621094 2441 2342.40039062 2441 c 0
 2549.09765625 2441 2784.45996094 2407.61523438 3035.36132812 2342.44628906 c 0
 3349.01367188 2260.97753906 3686.41113281 2130.35449219 4026.12695312 1960.49707031 c 0
 4066.43554688 1940.34277344 4111.90332031 1929 4160 1929 c 0
 4325.57421875 1929 4460 2063.42578125 4460 2229 c 0
 4460 2346.47851562 4392.328125 2448.27539062 4293.87304688 2497.50292969 c 0
 3922.47753906 2683.20019531 3548.76464844 2829.12109375 3186.421875 2923.23632812 c 0
 2896.52734375 2998.53320312 2613.56933594 3041 2342.40039062 3041 c 0
 1937.63378906 3041 1552.56835938 2944.96191406 1246.87792969 2700.40917969 c 0
 1129.63183594 2606.61230469 1026.52246094 2492.14550781 942.184570312 2359.85253906 c 0
 874.716796875 2254.02050781 819.258789062 2137.13476562 776.088867188 2010.40234375 c 0
 698.34375 1782.17382812 660 1522.34277344 660 1229 c 0
 660 935.657226562 698.34375 675.826171875 776.088867188 447.59765625 c 0
 819.258789062 320.865234375 874.716796875 203.979492188 942.184570312 98.1474609375 c 0
 1026.52246094 -34.1455078125 1129.63183594 -148.612304688 1246.87792969 -242.409179688 c 0
 1552.56835938 -486.961914062 1937.63378906 -583 2342.40039062 -583 c 0
 2613.56933594 -583 2896.52734375 -540.533203125 3186.421875 -465.236328125 c 0
 3294.77050781 -437.09375 3404.13476562 -404.319335938 3514.15136719 -367.234375 c 1
 2293.30566406 -2729.56933594 l 2
 2272.02246094 -2770.75195312 2260 -2817.48339844 2260 -2867 c 0
 2260 -3032.57421875 2394.42578125 -3167 2560 -3167 c 0
 2676.05761719 -3167 2776.81054688 -3100.95507812 2826.69433594 -3004.43066406 c 2
 4426.69433594 91.5693359375 l 2
 4447.97753906 132.751953125 4460 179.483398438 4460 229 c 0
 4460 394.57421875 4325.57421875 529 4160 529 c 0
 4111.90332031 529 4066.43554688 517.657226562 4026.12695312 497.502929688 c 0
 3686.41113281 327.645507812 3349.01367188 197.022460938 3035.36132812 115.553710938 c 0
 2784.45996094 50.384765625 2549.09765625 17 2342.40039062 17 c 0
 2030.36621094 17 1789.65332031 91.62890625 1621.27050781 226.3359375 c 0
 1430.33300781 379.084960938 1320.33105469 617.989257812 1278.7578125 929 c 1
 3160 929 l 2
EndSplineSet
EndChar

StartChar: uniE525
Encoding: 58661 58661 36
Width: 5120
Flags: HW
LayerCount: 2
Fore
SplineSet
2260 629 m 2
 2260 463.42578125 2394.42578125 329 2560 329 c 0
 2725.57421875 329 2860 463.42578125 2860 629 c 2
 2860 2510.2421875 l 1
 3171.74414062 2468.5703125 3409.47558594 2359.21582031 3562.6640625 2167.72949219 c 0
 3697.37109375 1999.34667969 3772 1758.63378906 3772 1446.59960938 c 0
 3772 1239.90234375 3738.61523438 1004.54003906 3673.44628906 753.638671875 c 0
 3591.97753906 439.986328125 3461.35449219 102.588867188 3291.49707031 -237.126953125 c 0
 3271.34277344 -277.435546875 3260 -322.903320312 3260 -371 c 0
 3260 -536.57421875 3394.42578125 -671 3560 -671 c 0
 3677.47851562 -671 3779.27539062 -603.328125 3828.50292969 -504.873046875 c 0
 4014.20019531 -133.477539062 4160.12109375 240.235351562 4254.23632812 602.578125 c 0
 4329.53320312 892.47265625 4372 1175.43066406 4372 1446.59960938 c 0
 4372 1851.36621094 4275.96191406 2236.43164062 4031.40917969 2542.12207031 c 0
 3937.61230469 2659.36816406 3823.14550781 2762.47753906 3690.85253906 2846.81542969 c 0
 3466.97265625 2989.54003906 3189.22363281 3081.03222656 2860 3114.43847656 c 1
 2860 5325 l 2
 2860 5490.57421875 2725.57421875 5625 2560 5625 c 0
 2394.42578125 5625 2260 5490.57421875 2260 5325 c 2
 2260 3114.43847656 l 1
 1737.72753906 3061.44335938 1344.6328125 2862.17578125 1088.59082031 2542.12207031 c 0
 844.038085938 2236.43164062 748 1851.36621094 748 1446.59960938 c 0
 748 1175.43066406 790.466796875 892.47265625 865.763671875 602.578125 c 0
 959.87890625 240.235351562 1105.79980469 -133.477539062 1291.49707031 -504.873046875 c 0
 1340.72460938 -603.328125 1442.52148438 -671 1560 -671 c 0
 1725.57421875 -671 1860 -536.57421875 1860 -371 c 0
 1860 -322.903320312 1848.65722656 -277.435546875 1828.50292969 -237.126953125 c 0
 1658.64550781 102.588867188 1528.02246094 439.986328125 1446.55371094 753.638671875 c 0
 1381.38476562 1004.54003906 1348 1239.90234375 1348 1446.59960938 c 0
 1348 1758.63378906 1422.62890625 1999.34667969 1557.3359375 2167.72949219 c 0
 1710.08496094 2358.66699219 1948.98925781 2468.66894531 2260 2510.2421875 c 1
 2260 629 l 2
EndSplineSet
EndChar

StartChar: uniE526
Encoding: 58662 58662 37
Width: 5120
Flags: HW
LayerCount: 2
Fore
SplineSet
2860 1829 m 2
 2860 1994.57421875 2725.57421875 2129 2560 2129 c 0
 2394.42578125 2129 2260 1994.57421875 2260 1829 c 2
 2260 -52.2421875 l 1
 1948.25585938 -10.5703125 1710.52441406 98.7841796875 1557.3359375 290.270507812 c 0
 1422.62890625 458.653320312 1348 699.366210938 1348 1011.40039062 c 0
 1348 1218.09765625 1381.38476562 1453.45996094 1446.55371094 1704.36132812 c 0
 1528.02246094 2018.01367188 1658.64550781 2355.41113281 1828.50292969 2695.12695312 c 0
 1848.65722656 2735.43554688 1860 2780.90332031 1860 2829 c 0
 1860 2994.57421875 1725.57421875 3129 1560 3129 c 0
 1442.52148438 3129 1340.72460938 3061.328125 1291.49707031 2962.87304688 c 0
 1105.79980469 2591.47753906 959.87890625 2217.76464844 865.763671875 1855.421875 c 0
 790.466796875 1565.52734375 748 1282.56933594 748 1011.40039062 c 0
 748 606.633789062 844.038085938 221.568359375 1088.59082031 -84.1220703125 c 0
 1182.38769531 -201.368164062 1296.85449219 -304.477539062 1429.14746094 -388.815429688 c 0
 1653.02734375 -531.540039062 1930.77636719 -623.032226562 2260 -656.438476562 c 1
 2260 -2867 l 2
 2260 -3032.57421875 2394.42578125 -3167 2560 -3167 c 0
 2725.57421875 -3167 2860 -3032.57421875 2860 -2867 c 2
 2860 -656.438476562 l 1
 3382.27246094 -603.443359375 3775.3671875 -404.17578125 4031.40917969 -84.1220703125 c 0
 4275.96191406 221.568359375 4372 606.633789062 4372 1011.40039062 c 0
 4372 1282.56933594 4329.53320312 1565.52734375 4254.23632812 1855.421875 c 0
 4160.12109375 2217.76464844 4014.20019531 2591.47753906 3828.50292969 2962.87304688 c 0
 3779.27539062 3061.328125 3677.47851562 3129 3560 3129 c 0
 3394.42578125 3129 3260 2994.57421875 3260 2829 c 0
 3260 2780.90332031 3271.34277344 2735.43554688 3291.49707031 2695.12695312 c 0
 3461.35449219 2355.41113281 3591.97753906 2018.01367188 3673.44628906 1704.36132812 c 0
 3738.61523438 1453.45996094 3772 1218.09765625 3772 1011.40039062 c 0
 3772 699.366210938 3697.37109375 458.653320312 3562.6640625 290.270507812 c 0
 3409.91503906 99.3330078125 3171.01074219 -10.6689453125 2860 -52.2421875 c 1
 2860 1829 l 2
EndSplineSet
EndChar

StartChar: uniE527
Encoding: 58663 58663 38
Width: 5120
Flags: HW
LayerCount: 2
Fore
SplineSet
3260 2829 m 0
 3260 2780.90332031 3271.34277344 2735.43554688 3291.49707031 2695.12695312 c 0
 3461.35449219 2355.41113281 3591.97753906 2018.01367188 3673.44628906 1704.36132812 c 0
 3738.61523438 1453.45996094 3772 1218.09765625 3772 1011.40039062 c 0
 3772 699.366210938 3697.37109375 458.653320312 3562.6640625 290.270507812 c 0
 3409.91503906 99.3330078125 3171.01074219 -10.6689453125 2860 -52.2421875 c 1
 2860 5325 l 2
 2860 5490.57421875 2725.57421875 5625 2560 5625 c 0
 2394.42578125 5625 2260 5490.57421875 2260 5325 c 2
 2260 -52.2421875 l 1
 1948.25585938 -10.5703125 1710.52441406 98.7841796875 1557.3359375 290.270507812 c 0
 1422.62890625 458.653320312 1348 699.366210938 1348 1011.40039062 c 0
 1348 1218.09765625 1381.38476562 1453.45996094 1446.55371094 1704.36132812 c 0
 1528.02246094 2018.01367188 1658.64550781 2355.41113281 1828.50292969 2695.12695312 c 0
 1848.65722656 2735.43554688 1860 2780.90332031 1860 2829 c 0
 1860 2994.57421875 1725.57421875 3129 1560 3129 c 0
 1442.52148438 3129 1340.72460938 3061.328125 1291.49707031 2962.87304688 c 0
 1105.79980469 2591.47753906 959.87890625 2217.76464844 865.763671875 1855.421875 c 0
 790.466796875 1565.52734375 748 1282.56933594 748 1011.40039062 c 0
 748 606.633789062 844.038085938 221.568359375 1088.59082031 -84.1220703125 c 0
 1182.38769531 -201.368164062 1296.85449219 -304.477539062 1429.14746094 -388.815429688 c 0
 1534.97949219 -456.283203125 1651.86523438 -511.741210938 1778.59765625 -554.911132812 c 0
 2006.82617188 -632.65625 2266.65722656 -671 2560 -671 c 0
 2853.34277344 -671 3113.17382812 -632.65625 3341.40234375 -554.911132812 c 0
 3468.13476562 -511.741210938 3585.02050781 -456.283203125 3690.85253906 -388.815429688 c 0
 3823.14550781 -304.477539062 3937.61230469 -201.368164062 4031.40917969 -84.1220703125 c 0
 4275.96191406 221.568359375 4372 606.633789062 4372 1011.40039062 c 0
 4372 1282.56933594 4329.53320312 1565.52734375 4254.23632812 1855.421875 c 0
 4160.12109375 2217.76464844 4014.20019531 2591.47753906 3828.50292969 2962.87304688 c 0
 3779.27539062 3061.328125 3677.47851562 3129 3560 3129 c 0
 3394.42578125 3129 3260 2994.57421875 3260 2829 c 0
EndSplineSet
EndChar

StartChar: uniE528
Encoding: 58664 58664 39
Width: 5120
Flags: HW
LayerCount: 2
Fore
SplineSet
3260 -371 m 0
 3260 -536.57421875 3394.42578125 -671 3560 -671 c 0
 3677.47851562 -671 3779.27539062 -603.328125 3828.50292969 -504.873046875 c 0
 4014.20019531 -133.477539062 4160.12109375 240.235351562 4254.23632812 602.578125 c 0
 4329.53320312 892.47265625 4372 1175.43066406 4372 1446.59960938 c 0
 4372 1851.36621094 4275.96191406 2236.43164062 4031.40917969 2542.12207031 c 0
 3937.61230469 2659.36816406 3823.14550781 2762.47753906 3690.85253906 2846.81542969 c 0
 3585.02050781 2914.28320312 3468.13476562 2969.74121094 3341.40234375 3012.91113281 c 0
 3113.17382812 3090.65625 2853.34277344 3129 2560 3129 c 0
 2266.65722656 3129 2006.82617188 3090.65625 1778.59765625 3012.91113281 c 0
 1651.86523438 2969.74121094 1534.97949219 2914.28320312 1429.14746094 2846.81542969 c 0
 1296.85449219 2762.47753906 1182.38769531 2659.36816406 1088.59082031 2542.12207031 c 0
 844.038085938 2236.43164062 748 1851.36621094 748 1446.59960938 c 0
 748 1175.43066406 790.466796875 892.47265625 865.763671875 602.578125 c 0
 959.87890625 240.235351562 1105.79980469 -133.477539062 1291.49707031 -504.873046875 c 0
 1340.72460938 -603.328125 1442.52148438 -671 1560 -671 c 0
 1725.57421875 -671 1860 -536.57421875 1860 -371 c 0
 1860 -322.903320312 1848.65722656 -277.435546875 1828.50292969 -237.126953125 c 0
 1658.64550781 102.588867188 1528.02246094 439.986328125 1446.55371094 753.638671875 c 0
 1381.38476562 1004.54003906 1348 1239.90234375 1348 1446.59960938 c 0
 1348 1758.63378906 1422.62890625 1999.34667969 1557.3359375 2167.72949219 c 0
 1710.08496094 2358.66699219 1948.98925781 2468.66894531 2260 2510.2421875 c 1
 2260 -2867 l 2
 2260 -3032.57421875 2394.42578125 -3167 2560 -3167 c 0
 2725.57421875 -3167 2860 -3032.57421875 2860 -2867 c 2
 2860 2510.2421875 l 1
 3171.74414062 2468.5703125 3409.47558594 2359.21582031 3562.6640625 2167.72949219 c 0
 3697.37109375 1999.34667969 3772 1758.63378906 3772 1446.59960938 c 0
 3772 1239.90234375 3738.61523438 1004.54003906 3673.44628906 753.638671875 c 0
 3591.97753906 439.986328125 3461.35449219 102.588867188 3291.49707031 -237.126953125 c 0
 3271.34277344 -277.435546875 3260 -322.903320312 3260 -371 c 0
EndSplineSet
EndChar

StartChar: uniE529
Encoding: 58665 58665 40
Width: 5120
Flags: HW
LayerCount: 2
Fore
SplineSet
3260 2829 m 0
 3260 2780.90332031 3271.34277344 2735.43554688 3291.49707031 2695.12695312 c 0
 3461.35449219 2355.41113281 3591.97753906 2018.01367188 3673.44628906 1704.36132812 c 0
 3688.87011719 1644.97949219 3702.51367188 1586.46777344 3714.35546875 1529 c 1
 1405.64453125 1529 l 1
 1417.48632812 1586.46777344 1431.12988281 1644.97949219 1446.55371094 1704.36132812 c 0
 1528.02246094 2018.01367188 1658.64550781 2355.41113281 1828.50292969 2695.12695312 c 0
 1848.65722656 2735.43554688 1860 2780.90332031 1860 2829 c 0
 1860 2994.57421875 1725.57421875 3129 1560 3129 c 0
 1442.52148438 3129 1340.72460938 3061.328125 1291.49707031 2962.87304688 c 0
 1105.79980469 2591.47753906 959.87890625 2217.76464844 865.763671875 1855.421875 c 0
 790.466796875 1565.52734375 748 1282.56933594 748 1011.40039062 c 0
 748 606.633789062 844.038085938 221.568359375 1088.59082031 -84.1220703125 c 0
 1182.38769531 -201.368164062 1296.85449219 -304.477539062 1429.14746094 -388.815429688 c 0
 1534.97949219 -456.283203125 1651.86523438 -511.741210938 1778.59765625 -554.911132812 c 0
 2006.82617188 -632.65625 2266.65722656 -671 2560 -671 c 0
 2853.34277344 -671 3113.17382812 -632.65625 3341.40234375 -554.911132812 c 0
 3468.13476562 -511.741210938 3585.02050781 -456.283203125 3690.85253906 -388.815429688 c 0
 3823.14550781 -304.477539062 3937.61230469 -201.368164062 4031.40917969 -84.1220703125 c 0
 4275.96191406 221.568359375 4372 606.633789062 4372 1011.40039062 c 0
 4372 1282.56933594 4329.53320312 1565.52734375 4254.23632812 1855.421875 c 0
 4160.12109375 2217.76464844 4014.20019531 2591.47753906 3828.50292969 2962.87304688 c 0
 3779.27539062 3061.328125 3677.47851562 3129 3560 3129 c 0
 3394.42578125 3129 3260 2994.57421875 3260 2829 c 0
2560 -71 m 0
 2320.00976562 -71 2125.51953125 -39.111328125 1971.93652344 13.2060546875 c 0
 1795.68847656 73.244140625 1658.09863281 164.31640625 1557.3359375 290.270507812 c 0
 1434.73535156 443.520507812 1361.89941406 656.68359375 1349.79785156 929 c 1
 3770.20214844 929 l 1
 3758.10058594 656.68359375 3685.26464844 443.520507812 3562.6640625 290.270507812 c 0
 3461.96582031 164.396484375 3324.18847656 73.2021484375 3148.06347656 13.2060546875 c 0
 2994.48046875 -39.111328125 2799.99023438 -71 2560 -71 c 0
EndSplineSet
EndChar

StartChar: uniE52A
Encoding: 58666 58666 41
Width: 5120
Flags: HW
LayerCount: 2
Fore
SplineSet
4460 229 m 0
 4460 394.57421875 4325.57421875 529 4160 529 c 0
 4111.90332031 529 4066.43554688 517.657226562 4026.12695312 497.502929688 c 0
 3686.41113281 327.645507812 3349.01367188 197.022460938 3035.36132812 115.553710938 c 0
 2975.97949219 100.129882812 2917.46777344 86.486328125 2860 74.64453125 c 1
 2860 2383.35546875 l 1
 2917.46777344 2371.51367188 2975.97949219 2357.87011719 3035.36132812 2342.44628906 c 0
 3349.01367188 2260.97753906 3686.41113281 2130.35449219 4026.12695312 1960.49707031 c 0
 4066.43554688 1940.34277344 4111.90332031 1929 4160 1929 c 0
 4325.57421875 1929 4460 2063.42578125 4460 2229 c 0
 4460 2346.47851562 4392.328125 2448.27539062 4293.87304688 2497.50292969 c 0
 3922.47753906 2683.20019531 3548.76464844 2829.12109375 3186.421875 2923.23632812 c 0
 2896.52734375 2998.53320312 2613.56933594 3041 2342.40039062 3041 c 0
 1937.63378906 3041 1552.56835938 2944.96191406 1246.87792969 2700.40917969 c 0
 1129.63183594 2606.61230469 1026.52246094 2492.14550781 942.184570312 2359.85253906 c 0
 874.716796875 2254.02050781 819.258789062 2137.13476562 776.088867188 2010.40234375 c 0
 698.34375 1782.17382812 660 1522.34277344 660 1229 c 0
 660 935.657226562 698.34375 675.826171875 776.088867188 447.59765625 c 0
 819.258789062 320.865234375 874.716796875 203.979492188 942.184570312 98.1474609375 c 0
 1026.52246094 -34.1455078125 1129.63183594 -148.612304688 1246.87792969 -242.409179688 c 0
 1552.56835938 -486.961914062 1937.63378906 -583 2342.40039062 -583 c 0
 2613.56933594 -583 2896.52734375 -540.533203125 3186.421875 -465.236328125 c 0
 3548.76464844 -371.12109375 3922.47753906 -225.200195312 4293.87304688 -39.5029296875 c 0
 4392.328125 9.724609375 4460 111.521484375 4460 229 c 0
1260 1229 m 0
 1260 1468.99023438 1291.88867188 1663.48046875 1344.20605469 1817.06347656 c 0
 1404.24414062 1993.31152344 1495.31640625 2130.90136719 1621.27050781 2231.6640625 c 0
 1774.52050781 2354.26464844 1987.68359375 2427.10058594 2260 2439.20214844 c 1
 2260 18.7978515625 l 1
 1987.68359375 30.8994140625 1774.52050781 103.735351562 1621.27050781 226.3359375 c 0
 1495.39648438 327.034179688 1404.20214844 464.811523438 1344.20605469 640.936523438 c 0
 1291.88867188 794.51953125 1260 989.009765625 1260 1229 c 0
EndSplineSet
EndChar

StartChar: uniE52B
Encoding: 58667 58667 42
Width: 5120
Flags: HW
LayerCount: 2
Fore
SplineSet
1560 -671 m 0
 1725.57421875 -671 1860 -536.57421875 1860 -371 c 0
 1860 -322.903320312 1848.65722656 -277.435546875 1828.50292969 -237.126953125 c 0
 1658.64550781 102.588867188 1528.02246094 439.986328125 1446.55371094 753.638671875 c 0
 1431.12988281 813.020507812 1417.48632812 871.532226562 1405.64453125 929 c 1
 3714.35546875 929 l 1
 3702.51367188 871.532226562 3688.87011719 813.020507812 3673.44628906 753.638671875 c 0
 3591.97753906 439.986328125 3461.35449219 102.588867188 3291.49707031 -237.126953125 c 0
 3271.34277344 -277.435546875 3260 -322.903320312 3260 -371 c 0
 3260 -536.57421875 3394.42578125 -671 3560 -671 c 0
 3677.47851562 -671 3779.27539062 -603.328125 3828.50292969 -504.873046875 c 0
 4014.20019531 -133.477539062 4160.12109375 240.235351562 4254.23632812 602.578125 c 0
 4329.53320312 892.47265625 4372 1175.43066406 4372 1446.59960938 c 0
 4372 1851.36621094 4275.96191406 2236.43164062 4031.40917969 2542.12207031 c 0
 3937.61230469 2659.36816406 3823.14550781 2762.47753906 3690.85253906 2846.81542969 c 0
 3585.02050781 2914.28320312 3468.13476562 2969.74121094 3341.40234375 3012.91113281 c 0
 3113.17382812 3090.65625 2853.34277344 3129 2560 3129 c 0
 2266.65722656 3129 2006.82617188 3090.65625 1778.59765625 3012.91113281 c 0
 1651.86523438 2969.74121094 1534.97949219 2914.28320312 1429.14746094 2846.81542969 c 0
 1296.85449219 2762.47753906 1182.38769531 2659.36816406 1088.59082031 2542.12207031 c 0
 844.038085938 2236.43164062 748 1851.36621094 748 1446.59960938 c 0
 748 1175.43066406 790.466796875 892.47265625 865.763671875 602.578125 c 0
 959.87890625 240.235351562 1105.79980469 -133.477539062 1291.49707031 -504.873046875 c 0
 1340.72460938 -603.328125 1442.52148438 -671 1560 -671 c 0
2560 2529 m 0
 2799.99023438 2529 2994.48046875 2497.11132812 3148.06347656 2444.79394531 c 0
 3324.31152344 2384.75585938 3461.90136719 2293.68359375 3562.6640625 2167.72949219 c 0
 3685.26464844 2014.47949219 3758.10058594 1801.31640625 3770.20214844 1529 c 1
 1349.79785156 1529 l 1
 1361.89941406 1801.31640625 1434.73535156 2014.47949219 1557.3359375 2167.72949219 c 0
 1658.03417969 2293.60351562 1795.81152344 2384.79785156 1971.93652344 2444.79394531 c 0
 2125.51953125 2497.11132812 2320.00976562 2529 2560 2529 c 0
EndSplineSet
EndChar

StartChar: uniE52C
Encoding: 58668 58668 43
Width: 5120
Flags: HW
LayerCount: 2
Fore
SplineSet
960 1929 m 0
 1008.09667969 1929 1053.56445312 1940.34277344 1093.87304688 1960.49707031 c 0
 1433.58886719 2130.35449219 1770.98632812 2260.97753906 2084.63867188 2342.44628906 c 0
 2144.02050781 2357.87011719 2202.53222656 2371.51367188 2260 2383.35546875 c 1
 2260 74.64453125 l 1
 2202.53222656 86.486328125 2144.02050781 100.129882812 2084.63867188 115.553710938 c 0
 1770.98632812 197.022460938 1433.58886719 327.645507812 1093.87304688 497.502929688 c 0
 1053.56445312 517.657226562 1008.09667969 529 960 529 c 0
 794.42578125 529 660 394.57421875 660 229 c 0
 660 111.521484375 727.671875 9.724609375 826.126953125 -39.5029296875 c 0
 1197.52246094 -225.200195312 1571.23535156 -371.12109375 1933.578125 -465.236328125 c 0
 2223.47265625 -540.533203125 2506.43066406 -583 2777.59960938 -583 c 0
 3182.36621094 -583 3567.43164062 -486.961914062 3873.12207031 -242.409179688 c 0
 3990.36816406 -148.612304688 4093.47753906 -34.1455078125 4177.81542969 98.1474609375 c 0
 4245.28320312 203.979492188 4300.74121094 320.865234375 4343.91113281 447.59765625 c 0
 4421.65625 675.826171875 4460 935.657226562 4460 1229 c 0
 4460 1522.34277344 4421.65625 1782.17382812 4343.91113281 2010.40234375 c 0
 4300.74121094 2137.13476562 4245.28320312 2254.02050781 4177.81542969 2359.85253906 c 0
 4093.47753906 2492.14550781 3990.36816406 2606.61230469 3873.12207031 2700.40917969 c 0
 3567.43164062 2944.96191406 3182.36621094 3041 2777.59960938 3041 c 0
 2506.43066406 3041 2223.47265625 2998.53320312 1933.578125 2923.23632812 c 0
 1571.23535156 2829.12109375 1197.52246094 2683.20019531 826.126953125 2497.50292969 c 0
 727.671875 2448.27539062 660 2346.47851562 660 2229 c 0
 660 2063.42578125 794.42578125 1929 960 1929 c 0
3860 1229 m 0
 3860 989.009765625 3828.11132812 794.51953125 3775.79394531 640.936523438 c 0
 3715.75585938 464.688476562 3624.68359375 327.098632812 3498.72949219 226.3359375 c 0
 3345.47949219 103.735351562 3132.31640625 30.8994140625 2860 18.7978515625 c 1
 2860 2439.20214844 l 1
 3132.31640625 2427.10058594 3345.47949219 2354.26464844 3498.72949219 2231.6640625 c 0
 3624.60351562 2130.96582031 3715.79785156 1993.18847656 3775.79394531 1817.06347656 c 0
 3828.11132812 1663.48046875 3860 1468.99023438 3860 1229 c 0
EndSplineSet
EndChar

StartChar: uniE52D
Encoding: 58669 58669 44
Width: 5120
Flags: HW
LayerCount: 2
Fore
SplineSet
2860 5325 m 0
 2860 5490.57421875 2725.57421875 5625 2560 5625 c 0
 2433.77929688 5625 2325.66015625 5546.88085938 2281.39550781 5436.39550781 c 2
 1285.92871094 2951.71191406 l 1
 1102.88183594 2583.9921875 958.936523438 2214.13476562 865.763671875 1855.421875 c 0
 790.466796875 1565.52734375 748 1282.56933594 748 1011.40039062 c 0
 748 606.633789062 844.038085938 221.568359375 1088.59082031 -84.1220703125 c 0
 1182.38769531 -201.368164062 1296.85449219 -304.477539062 1429.14746094 -388.815429688 c 0
 1534.97949219 -456.283203125 1651.86523438 -511.741210938 1778.59765625 -554.911132812 c 0
 2006.82617188 -632.65625 2266.65722656 -671 2560 -671 c 0
 2853.34277344 -671 3113.17382812 -632.65625 3341.40234375 -554.911132812 c 0
 3468.13476562 -511.741210938 3585.02050781 -456.283203125 3690.85253906 -388.815429688 c 0
 3823.14550781 -304.477539062 3937.61230469 -201.368164062 4031.40917969 -84.1220703125 c 0
 4275.96191406 221.568359375 4372 606.633789062 4372 1011.40039062 c 0
 4372 1282.56933594 4329.53320312 1565.52734375 4254.23632812 1855.421875 c 0
 4160.12109375 2217.76464844 4014.20019531 2591.47753906 3828.50292969 2962.87304688 c 0
 3779.27539062 3061.328125 3677.47851562 3129 3560 3129 c 0
 3394.42578125 3129 3260 2994.57421875 3260 2829 c 0
 3260 2780.90332031 3271.34277344 2735.43554688 3291.49707031 2695.12695312 c 0
 3461.35449219 2355.41113281 3591.97753906 2018.01367188 3673.44628906 1704.36132812 c 0
 3688.87011719 1644.97949219 3702.51367188 1586.46777344 3714.35546875 1529 c 1
 1405.64453125 1529 l 1
 1417.48632812 1586.46777344 1431.12988281 1644.97949219 1446.55371094 1704.36132812 c 0
 1528.02246094 2018.01367188 1658.64550781 2355.41113281 1828.50292969 2695.12695312 c 0
 1832.16699219 2702.45410156 1835.5390625 2709.95214844 1838.60449219 2717.60449219 c 2
 2838.60449219 5213.60449219 l 2
 2852.40625 5248.05175781 2860 5285.64648438 2860 5325 c 0
2560 -71 m 0
 2320.00976562 -71 2125.51953125 -39.111328125 1971.93652344 13.2060546875 c 0
 1795.68847656 73.244140625 1658.09863281 164.31640625 1557.3359375 290.270507812 c 0
 1434.73535156 443.520507812 1361.89941406 656.68359375 1349.79785156 929 c 1
 3770.20214844 929 l 1
 3758.10058594 656.68359375 3685.26464844 443.520507812 3562.6640625 290.270507812 c 0
 3461.96582031 164.396484375 3324.18847656 73.2021484375 3148.06347656 13.2060546875 c 0
 2994.48046875 -39.111328125 2799.99023438 -71 2560 -71 c 0
EndSplineSet
EndChar

StartChar: uniE52E
Encoding: 58670 58670 45
Width: 5120
Flags: HW
LayerCount: 2
Fore
SplineSet
2560 5625 m 0
 2394.42578125 5625 2260 5490.57421875 2260 5325 c 0
 2260 5285.64648438 2267.59375 5248.05175781 2281.39550781 5213.60449219 c 2
 3281.39550781 2717.60449219 l 2
 3284.4609375 2709.95214844 3287.83300781 2702.45410156 3291.49707031 2695.12695312 c 0
 3461.35449219 2355.41113281 3591.97753906 2018.01367188 3673.44628906 1704.36132812 c 0
 3688.87011719 1644.97949219 3702.51367188 1586.46777344 3714.35546875 1529 c 1
 1405.64453125 1529 l 1
 1417.48632812 1586.46777344 1431.12988281 1644.97949219 1446.55371094 1704.36132812 c 0
 1528.02246094 2018.01367188 1658.64550781 2355.41113281 1828.50292969 2695.12695312 c 0
 1848.65722656 2735.43554688 1860 2780.90332031 1860 2829 c 0
 1860 2994.57421875 1725.57421875 3129 1560 3129 c 0
 1442.52148438 3129 1340.72460938 3061.328125 1291.49707031 2962.87304688 c 0
 1105.79980469 2591.47753906 959.87890625 2217.76464844 865.763671875 1855.421875 c 0
 790.466796875 1565.52734375 748 1282.56933594 748 1011.40039062 c 0
 748 606.633789062 844.038085938 221.568359375 1088.59082031 -84.1220703125 c 0
 1182.38769531 -201.368164062 1296.85449219 -304.477539062 1429.14746094 -388.815429688 c 0
 1534.97949219 -456.283203125 1651.86523438 -511.741210938 1778.59765625 -554.911132812 c 0
 2006.82617188 -632.65625 2266.65722656 -671 2560 -671 c 0
 2853.34277344 -671 3113.17382812 -632.65625 3341.40234375 -554.911132812 c 0
 3468.13476562 -511.741210938 3585.02050781 -456.283203125 3690.85253906 -388.815429688 c 0
 3823.14550781 -304.477539062 3937.61230469 -201.368164062 4031.40917969 -84.1220703125 c 0
 4275.96191406 221.568359375 4372 606.633789062 4372 1011.40039062 c 0
 4372 1282.56933594 4329.53320312 1565.52734375 4254.23632812 1855.421875 c 0
 4161.06347656 2214.13476562 3986.83398438 2570.41503906 3834.07128906 2951.71191406 c 2
 2838.60449219 5436.39550781 l 2
 2794.33984375 5546.88085938 2686.22070312 5625 2560 5625 c 0
2560 -71 m 0
 2320.00976562 -71 2125.51953125 -39.111328125 1971.93652344 13.2060546875 c 0
 1795.68847656 73.244140625 1658.09863281 164.31640625 1557.3359375 290.270507812 c 0
 1434.73535156 443.520507812 1361.89941406 656.68359375 1349.79785156 929 c 1
 3770.20214844 929 l 1
 3758.10058594 656.68359375 3685.26464844 443.520507812 3562.6640625 290.270507812 c 0
 3461.96582031 164.396484375 3324.18847656 73.2021484375 3148.06347656 13.2060546875 c 0
 2994.48046875 -39.111328125 2799.99023438 -71 2560 -71 c 0
EndSplineSet
EndChar

StartChar: uniE52F
Encoding: 58671 58671 46
Width: 5120
Flags: HW
LayerCount: 2
Fore
SplineSet
2560 -3167 m 0
 2725.57421875 -3167 2860 -3032.57421875 2860 -2867 c 0
 2860 -2827.64648438 2852.40625 -2790.05175781 2838.60449219 -2755.60449219 c 2
 1838.60449219 -259.604492188 l 2
 1835.5390625 -251.952148438 1832.16699219 -244.454101562 1828.50292969 -237.126953125 c 0
 1658.64550781 102.588867188 1528.02246094 439.986328125 1446.55371094 753.638671875 c 0
 1431.12988281 813.020507812 1417.48632812 871.532226562 1405.64453125 929 c 1
 3714.35546875 929 l 1
 3702.51367188 871.532226562 3688.87011719 813.020507812 3673.44628906 753.638671875 c 0
 3591.97753906 439.986328125 3461.35449219 102.588867188 3291.49707031 -237.126953125 c 0
 3271.34277344 -277.435546875 3260 -322.903320312 3260 -371 c 0
 3260 -536.57421875 3394.42578125 -671 3560 -671 c 0
 3677.47851562 -671 3779.27539062 -603.328125 3828.50292969 -504.873046875 c 0
 4014.20019531 -133.477539062 4160.12109375 240.235351562 4254.23632812 602.578125 c 0
 4329.53320312 892.47265625 4372 1175.43066406 4372 1446.59960938 c 0
 4372 1851.36621094 4275.96191406 2236.43164062 4031.40917969 2542.12207031 c 0
 3937.61230469 2659.36816406 3823.14550781 2762.47753906 3690.85253906 2846.81542969 c 0
 3585.02050781 2914.28320312 3468.13476562 2969.74121094 3341.40234375 3012.91113281 c 0
 3113.17382812 3090.65625 2853.34277344 3129 2560 3129 c 0
 2266.65722656 3129 2006.82617188 3090.65625 1778.59765625 3012.91113281 c 0
 1651.86523438 2969.74121094 1534.97949219 2914.28320312 1429.14746094 2846.81542969 c 0
 1296.85449219 2762.47753906 1182.38769531 2659.36816406 1088.59082031 2542.12207031 c 0
 844.038085938 2236.43164062 748 1851.36621094 748 1446.59960938 c 0
 748 1175.43066406 790.466796875 892.47265625 865.763671875 602.578125 c 0
 958.936523438 243.865234375 1133.16601562 -112.415039062 1285.92871094 -493.711914062 c 2
 2281.39550781 -2978.39550781 l 2
 2325.66015625 -3088.88085938 2433.77929688 -3167 2560 -3167 c 0
2560 2529 m 0
 2799.99023438 2529 2994.48046875 2497.11132812 3148.06347656 2444.79394531 c 0
 3324.31152344 2384.75585938 3461.90136719 2293.68359375 3562.6640625 2167.72949219 c 0
 3685.26464844 2014.47949219 3758.10058594 1801.31640625 3770.20214844 1529 c 1
 1349.79785156 1529 l 1
 1361.89941406 1801.31640625 1434.73535156 2014.47949219 1557.3359375 2167.72949219 c 0
 1658.03417969 2293.60351562 1795.81152344 2384.79785156 1971.93652344 2444.79394531 c 0
 2125.51953125 2497.11132812 2320.00976562 2529 2560 2529 c 0
EndSplineSet
EndChar

StartChar: uniE530
Encoding: 58672 58672 47
Width: 5120
Flags: HW
LayerCount: 2
Fore
SplineSet
2260 -2867 m 0
 2260 -3032.57421875 2394.42578125 -3167 2560 -3167 c 0
 2686.22070312 -3167 2794.33984375 -3088.88085938 2838.60449219 -2978.39550781 c 2
 3834.07128906 -493.711914062 l 1
 4017.11816406 -125.9921875 4161.06347656 243.865234375 4254.23632812 602.578125 c 0
 4329.53320312 892.47265625 4372 1175.43066406 4372 1446.59960938 c 0
 4372 1851.36621094 4275.96191406 2236.43164062 4031.40917969 2542.12207031 c 0
 3937.61230469 2659.36816406 3823.14550781 2762.47753906 3690.85253906 2846.81542969 c 0
 3585.02050781 2914.28320312 3468.13476562 2969.74121094 3341.40234375 3012.91113281 c 0
 3113.17382812 3090.65625 2853.34277344 3129 2560 3129 c 0
 2266.65722656 3129 2006.82617188 3090.65625 1778.59765625 3012.91113281 c 0
 1651.86523438 2969.74121094 1534.97949219 2914.28320312 1429.14746094 2846.81542969 c 0
 1296.85449219 2762.47753906 1182.38769531 2659.36816406 1088.59082031 2542.12207031 c 0
 844.038085938 2236.43164062 748 1851.36621094 748 1446.59960938 c 0
 748 1175.43066406 790.466796875 892.47265625 865.763671875 602.578125 c 0
 959.87890625 240.235351562 1105.79980469 -133.477539062 1291.49707031 -504.873046875 c 0
 1340.72460938 -603.328125 1442.52148438 -671 1560 -671 c 0
 1725.57421875 -671 1860 -536.57421875 1860 -371 c 0
 1860 -322.903320312 1848.65722656 -277.435546875 1828.50292969 -237.126953125 c 0
 1658.64550781 102.588867188 1528.02246094 439.986328125 1446.55371094 753.638671875 c 0
 1431.12988281 813.020507812 1417.48632812 871.532226562 1405.64453125 929 c 1
 3714.35546875 929 l 1
 3702.51367188 871.532226562 3688.87011719 813.020507812 3673.44628906 753.638671875 c 0
 3591.97753906 439.986328125 3461.35449219 102.588867188 3291.49707031 -237.126953125 c 0
 3287.83300781 -244.454101562 3284.4609375 -251.952148438 3281.39550781 -259.604492188 c 2
 2281.39550781 -2755.60449219 l 2
 2267.59375 -2790.05175781 2260 -2827.64648438 2260 -2867 c 0
2560 2529 m 0
 2799.99023438 2529 2994.48046875 2497.11132812 3148.06347656 2444.79394531 c 0
 3324.31152344 2384.75585938 3461.90136719 2293.68359375 3562.6640625 2167.72949219 c 0
 3685.26464844 2014.47949219 3758.10058594 1801.31640625 3770.20214844 1529 c 1
 1349.79785156 1529 l 1
 1361.89941406 1801.31640625 1434.73535156 2014.47949219 1557.3359375 2167.72949219 c 0
 1658.03417969 2293.60351562 1795.81152344 2384.79785156 1971.93652344 2444.79394531 c 0
 2125.51953125 2497.11132812 2320.00976562 2529 2560 2529 c 0
EndSplineSet
EndChar

StartChar: uniE531
Encoding: 58673 58673 48
Width: 5120
Flags: HW
LayerCount: 2
Fore
SplineSet
2860 5325 m 0
 2860 5490.57421875 2725.57421875 5625 2560 5625 c 0
 2443.94238281 5625 2343.18945312 5558.95507812 2293.30566406 5462.43066406 c 2
 693.305664062 2366.43066406 l 2
 672.022460938 2325.24804688 660 2278.51660156 660 2229 c 0
 660 2063.42578125 794.42578125 1929 960 1929 c 0
 1008.09667969 1929 1053.56445312 1940.34277344 1093.87304688 1960.49707031 c 0
 1433.58886719 2130.35449219 1770.98632812 2260.97753906 2084.63867188 2342.44628906 c 0
 2144.02050781 2357.87011719 2202.53222656 2371.51367188 2260 2383.35546875 c 1
 2260 74.64453125 l 1
 2202.53222656 86.486328125 2144.02050781 100.129882812 2084.63867188 115.553710938 c 0
 1770.98632812 197.022460938 1433.58886719 327.645507812 1093.87304688 497.502929688 c 0
 1053.56445312 517.657226562 1008.09667969 529 960 529 c 0
 794.42578125 529 660 394.57421875 660 229 c 0
 660 111.521484375 727.671875 9.724609375 826.126953125 -39.5029296875 c 0
 1197.52246094 -225.200195312 1571.23535156 -371.12109375 1933.578125 -465.236328125 c 0
 2223.47265625 -540.533203125 2506.43066406 -583 2777.59960938 -583 c 0
 3182.36621094 -583 3567.43164062 -486.961914062 3873.12207031 -242.409179688 c 0
 3990.36816406 -148.612304688 4093.47753906 -34.1455078125 4177.81542969 98.1474609375 c 0
 4245.28320312 203.979492188 4300.74121094 320.865234375 4343.91113281 447.59765625 c 0
 4421.65625 675.826171875 4460 935.657226562 4460 1229 c 0
 4460 1522.34277344 4421.65625 1782.17382812 4343.91113281 2010.40234375 c 0
 4300.74121094 2137.13476562 4245.28320312 2254.02050781 4177.81542969 2359.85253906 c 0
 4093.47753906 2492.14550781 3990.36816406 2606.61230469 3873.12207031 2700.40917969 c 0
 3567.43164062 2944.96191406 3182.36621094 3041 2777.59960938 3041 c 0
 2506.43066406 3041 2223.47265625 2998.53320312 1933.578125 2923.23632812 c 0
 1825.22949219 2895.09375 1715.86523438 2862.31933594 1605.84863281 2825.234375 c 1
 2826.69433594 5187.56933594 l 2
 2847.97753906 5228.75195312 2860 5275.48339844 2860 5325 c 0
3860 1229 m 0
 3860 989.009765625 3828.11132812 794.51953125 3775.79394531 640.936523438 c 0
 3715.75585938 464.688476562 3624.68359375 327.098632812 3498.72949219 226.3359375 c 0
 3345.47949219 103.735351562 3132.31640625 30.8994140625 2860 18.7978515625 c 1
 2860 2439.20214844 l 1
 3132.31640625 2427.10058594 3345.47949219 2354.26464844 3498.72949219 2231.6640625 c 0
 3624.60351562 2130.96582031 3715.79785156 1993.18847656 3775.79394531 1817.06347656 c 0
 3828.11132812 1663.48046875 3860 1468.99023438 3860 1229 c 0
EndSplineSet
EndChar

StartChar: uniE532
Encoding: 58674 58674 49
Width: 5120
Flags: HW
LayerCount: 2
Fore
SplineSet
2560 5625 m 0
 2394.42578125 5625 2260 5490.57421875 2260 5325 c 0
 2260 5275.48339844 2272.02246094 5228.75195312 2293.30566406 5187.56933594 c 2
 3514.15136719 2825.234375 l 1
 3404.13476562 2862.31933594 3294.77050781 2895.09375 3186.421875 2923.23632812 c 0
 2896.52734375 2998.53320312 2613.56933594 3041 2342.40039062 3041 c 0
 1937.63378906 3041 1552.56835938 2944.96191406 1246.87792969 2700.40917969 c 0
 1129.63183594 2606.61230469 1026.52246094 2492.14550781 942.184570312 2359.85253906 c 0
 874.716796875 2254.02050781 819.258789062 2137.13476562 776.088867188 2010.40234375 c 0
 698.34375 1782.17382812 660 1522.34277344 660 1229 c 0
 660 935.657226562 698.34375 675.826171875 776.088867188 447.59765625 c 0
 819.258789062 320.865234375 874.716796875 203.979492188 942.184570312 98.1474609375 c 0
 1026.52246094 -34.1455078125 1129.63183594 -148.612304688 1246.87792969 -242.409179688 c 0
 1552.56835938 -486.961914062 1937.63378906 -583 2342.40039062 -583 c 0
 2613.56933594 -583 2896.52734375 -540.533203125 3186.421875 -465.236328125 c 0
 3548.76464844 -371.12109375 3922.47753906 -225.200195312 4293.87304688 -39.5029296875 c 0
 4392.328125 9.724609375 4460 111.521484375 4460 229 c 0
 4460 394.57421875 4325.57421875 529 4160 529 c 0
 4111.90332031 529 4066.43554688 517.657226562 4026.12695312 497.502929688 c 0
 3686.41113281 327.645507812 3349.01367188 197.022460938 3035.36132812 115.553710938 c 0
 2975.97949219 100.129882812 2917.46777344 86.486328125 2860 74.64453125 c 1
 2860 2383.35546875 l 1
 2917.46777344 2371.51367188 2975.97949219 2357.87011719 3035.36132812 2342.44628906 c 0
 3349.01367188 2260.97753906 3686.41113281 2130.35449219 4026.12695312 1960.49707031 c 0
 4066.43554688 1940.34277344 4111.90332031 1929 4160 1929 c 0
 4325.57421875 1929 4460 2063.42578125 4460 2229 c 0
 4460 2278.51660156 4447.97753906 2325.24804688 4426.69433594 2366.43066406 c 2
 2826.69433594 5462.43066406 l 2
 2776.81054688 5558.95507812 2676.05761719 5625 2560 5625 c 0
1260 1229 m 0
 1260 1468.99023438 1291.88867188 1663.48046875 1344.20605469 1817.06347656 c 0
 1404.24414062 1993.31152344 1495.31640625 2130.90136719 1621.27050781 2231.6640625 c 0
 1774.52050781 2354.26464844 1987.68359375 2427.10058594 2260 2439.20214844 c 1
 2260 18.7978515625 l 1
 1987.68359375 30.8994140625 1774.52050781 103.735351562 1621.27050781 226.3359375 c 0
 1495.39648438 327.034179688 1404.20214844 464.811523438 1344.20605469 640.936523438 c 0
 1291.88867188 794.51953125 1260 989.009765625 1260 1229 c 0
EndSplineSet
EndChar

StartChar: uniE533
Encoding: 58675 58675 50
Width: 5120
Flags: HW
LayerCount: 2
Fore
SplineSet
2560 -3167 m 0
 2725.57421875 -3167 2860 -3032.57421875 2860 -2867 c 0
 2860 -2817.48339844 2847.97753906 -2770.75195312 2826.69433594 -2729.56933594 c 2
 1605.84863281 -367.234375 l 1
 1715.86523438 -404.319335938 1825.22949219 -437.09375 1933.578125 -465.236328125 c 0
 2223.47265625 -540.533203125 2506.43066406 -583 2777.59960938 -583 c 0
 3182.36621094 -583 3567.43164062 -486.961914062 3873.12207031 -242.409179688 c 0
 3990.36816406 -148.612304688 4093.47753906 -34.1455078125 4177.81542969 98.1474609375 c 0
 4245.28320312 203.979492188 4300.74121094 320.865234375 4343.91113281 447.59765625 c 0
 4421.65625 675.826171875 4460 935.657226562 4460 1229 c 0
 4460 1522.34277344 4421.65625 1782.17382812 4343.91113281 2010.40234375 c 0
 4300.74121094 2137.13476562 4245.28320312 2254.02050781 4177.81542969 2359.85253906 c 0
 4093.47753906 2492.14550781 3990.36816406 2606.61230469 3873.12207031 2700.40917969 c 0
 3567.43164062 2944.96191406 3182.36621094 3041 2777.59960938 3041 c 0
 2506.43066406 3041 2223.47265625 2998.53320312 1933.578125 2923.23632812 c 0
 1571.23535156 2829.12109375 1197.52246094 2683.20019531 826.126953125 2497.50292969 c 0
 727.671875 2448.27539062 660 2346.47851562 660 2229 c 0
 660 2063.42578125 794.42578125 1929 960 1929 c 0
 1008.09667969 1929 1053.56445312 1940.34277344 1093.87304688 1960.49707031 c 0
 1433.58886719 2130.35449219 1770.98632812 2260.97753906 2084.63867188 2342.44628906 c 0
 2144.02050781 2357.87011719 2202.53222656 2371.51367188 2260 2383.35546875 c 1
 2260 74.64453125 l 1
 2202.53222656 86.486328125 2144.02050781 100.129882812 2084.63867188 115.553710938 c 0
 1770.98632812 197.022460938 1433.58886719 327.645507812 1093.87304688 497.502929688 c 0
 1053.56445312 517.657226562 1008.09667969 529 960 529 c 0
 794.42578125 529 660 394.57421875 660 229 c 0
 660 179.483398438 672.022460938 132.751953125 693.305664062 91.5693359375 c 2
 2293.30566406 -3004.43066406 l 2
 2343.18945312 -3100.95507812 2443.94238281 -3167 2560 -3167 c 0
3860 1229 m 0
 3860 989.009765625 3828.11132812 794.51953125 3775.79394531 640.936523438 c 0
 3715.75585938 464.688476562 3624.68359375 327.098632812 3498.72949219 226.3359375 c 0
 3345.47949219 103.735351562 3132.31640625 30.8994140625 2860 18.7978515625 c 1
 2860 2439.20214844 l 1
 3132.31640625 2427.10058594 3345.47949219 2354.26464844 3498.72949219 2231.6640625 c 0
 3624.60351562 2130.96582031 3715.79785156 1993.18847656 3775.79394531 1817.06347656 c 0
 3828.11132812 1663.48046875 3860 1468.99023438 3860 1229 c 0
EndSplineSet
EndChar

StartChar: uniE534
Encoding: 58676 58676 51
Width: 5120
Flags: HW
LayerCount: 2
Fore
SplineSet
2260 -2867 m 0
 2260 -3032.57421875 2394.42578125 -3167 2560 -3167 c 0
 2676.05761719 -3167 2776.81054688 -3100.95507812 2826.69433594 -3004.43066406 c 2
 4426.69433594 91.5693359375 l 2
 4447.97753906 132.751953125 4460 179.483398438 4460 229 c 0
 4460 394.57421875 4325.57421875 529 4160 529 c 0
 4111.90332031 529 4066.43554688 517.657226562 4026.12695312 497.502929688 c 0
 3686.41113281 327.645507812 3349.01367188 197.022460938 3035.36132812 115.553710938 c 0
 2975.97949219 100.129882812 2917.46777344 86.486328125 2860 74.64453125 c 1
 2860 2383.35546875 l 1
 2917.46777344 2371.51367188 2975.97949219 2357.87011719 3035.36132812 2342.44628906 c 0
 3349.01367188 2260.97753906 3686.41113281 2130.35449219 4026.12695312 1960.49707031 c 0
 4066.43554688 1940.34277344 4111.90332031 1929 4160 1929 c 0
 4325.57421875 1929 4460 2063.42578125 4460 2229 c 0
 4460 2346.47851562 4392.328125 2448.27539062 4293.87304688 2497.50292969 c 0
 3922.47753906 2683.20019531 3548.76464844 2829.12109375 3186.421875 2923.23632812 c 0
 2896.52734375 2998.53320312 2613.56933594 3041 2342.40039062 3041 c 0
 1937.63378906 3041 1552.56835938 2944.96191406 1246.87792969 2700.40917969 c 0
 1129.63183594 2606.61230469 1026.52246094 2492.14550781 942.184570312 2359.85253906 c 0
 874.716796875 2254.02050781 819.258789062 2137.13476562 776.088867188 2010.40234375 c 0
 698.34375 1782.17382812 660 1522.34277344 660 1229 c 0
 660 935.657226562 698.34375 675.826171875 776.088867188 447.59765625 c 0
 819.258789062 320.865234375 874.716796875 203.979492188 942.184570312 98.1474609375 c 0
 1026.52246094 -34.1455078125 1129.63183594 -148.612304688 1246.87792969 -242.409179688 c 0
 1552.56835938 -486.961914062 1937.63378906 -583 2342.40039062 -583 c 0
 2613.56933594 -583 2896.52734375 -540.533203125 3186.421875 -465.236328125 c 0
 3294.77050781 -437.09375 3404.13476562 -404.319335938 3514.15136719 -367.234375 c 1
 2293.30566406 -2729.56933594 l 2
 2272.02246094 -2770.75195312 2260 -2817.48339844 2260 -2867 c 0
1260 1229 m 0
 1260 1468.99023438 1291.88867188 1663.48046875 1344.20605469 1817.06347656 c 0
 1404.24414062 1993.31152344 1495.31640625 2130.90136719 1621.27050781 2231.6640625 c 0
 1774.52050781 2354.26464844 1987.68359375 2427.10058594 2260 2439.20214844 c 1
 2260 18.7978515625 l 1
 1987.68359375 30.8994140625 1774.52050781 103.735351562 1621.27050781 226.3359375 c 0
 1495.39648438 327.034179688 1404.20214844 464.811523438 1344.20605469 640.936523438 c 0
 1291.88867188 794.51953125 1260 989.009765625 1260 1229 c 0
EndSplineSet
EndChar

StartChar: uniE535
Encoding: 58677 58677 52
Width: 5120
Flags: HW
LayerCount: 2
Fore
SplineSet
3260 2829 m 0
 3260 2780.90332031 3271.34277344 2735.43554688 3291.49707031 2695.12695312 c 0
 3461.35449219 2355.41113281 3591.97753906 2018.01367188 3673.44628906 1704.36132812 c 0
 3688.87011719 1644.97949219 3702.51367188 1586.46777344 3714.35546875 1529 c 1
 1405.64453125 1529 l 1
 1417.48632812 1586.46777344 1431.12988281 1644.97949219 1446.55371094 1704.36132812 c 0
 1528.02246094 2018.01367188 1658.64550781 2355.41113281 1828.50292969 2695.12695312 c 0
 1848.65722656 2735.43554688 1860 2780.90332031 1860 2829 c 0
 1860 2994.57421875 1725.57421875 3129 1560 3129 c 0
 1442.52148438 3129 1340.72460938 3061.328125 1291.49707031 2962.87304688 c 0
 1105.79980469 2591.47753906 959.87890625 2217.76464844 865.763671875 1855.421875 c 0
 790.466796875 1565.52734375 748 1282.56933594 748 1011.40039062 c 0
 748 606.633789062 844.038085938 221.568359375 1088.59082031 -84.1220703125 c 0
 1182.38769531 -201.368164062 1296.85449219 -304.477539062 1429.14746094 -388.815429688 c 0
 1653.02734375 -531.540039062 1930.77636719 -623.032226562 2260 -656.438476562 c 1
 2260 -2867 l 2
 2260 -3032.57421875 2394.42578125 -3167 2560 -3167 c 0
 2725.57421875 -3167 2860 -3032.57421875 2860 -2867 c 2
 2860 -656.438476562 l 1
 3382.27246094 -603.443359375 3775.3671875 -404.17578125 4031.40917969 -84.1220703125 c 0
 4275.96191406 221.568359375 4372 606.633789062 4372 1011.40039062 c 0
 4372 1282.56933594 4329.53320312 1565.52734375 4254.23632812 1855.421875 c 0
 4160.12109375 2217.76464844 4014.20019531 2591.47753906 3828.50292969 2962.87304688 c 0
 3779.27539062 3061.328125 3677.47851562 3129 3560 3129 c 0
 3394.42578125 3129 3260 2994.57421875 3260 2829 c 0
2560 -71 m 0
 2320.00976562 -71 2125.51953125 -39.111328125 1971.93652344 13.2060546875 c 0
 1795.68847656 73.244140625 1658.09863281 164.31640625 1557.3359375 290.270507812 c 0
 1434.73535156 443.520507812 1361.89941406 656.68359375 1349.79785156 929 c 1
 3770.20214844 929 l 1
 3758.10058594 656.68359375 3685.26464844 443.520507812 3562.6640625 290.270507812 c 0
 3461.96582031 164.396484375 3324.18847656 73.2021484375 3148.06347656 13.2060546875 c 0
 2994.48046875 -39.111328125 2799.99023438 -71 2560 -71 c 0
EndSplineSet
EndChar

StartChar: uniE536
Encoding: 58678 58678 53
Width: 5120
Flags: HW
LayerCount: 2
Fore
SplineSet
3260 -371 m 0
 3260 -536.57421875 3394.42578125 -671 3560 -671 c 0
 3677.47851562 -671 3779.27539062 -603.328125 3828.50292969 -504.873046875 c 0
 4014.20019531 -133.477539062 4160.12109375 240.235351562 4254.23632812 602.578125 c 0
 4329.53320312 892.47265625 4372 1175.43066406 4372 1446.59960938 c 0
 4372 1851.36621094 4275.96191406 2236.43164062 4031.40917969 2542.12207031 c 0
 3937.61230469 2659.36816406 3823.14550781 2762.47753906 3690.85253906 2846.81542969 c 0
 3466.97265625 2989.54003906 3189.22363281 3081.03222656 2860 3114.43847656 c 1
 2860 5325 l 2
 2860 5490.57421875 2725.57421875 5625 2560 5625 c 0
 2394.42578125 5625 2260 5490.57421875 2260 5325 c 2
 2260 3114.43847656 l 1
 1737.72753906 3061.44335938 1344.6328125 2862.17578125 1088.59082031 2542.12207031 c 0
 844.038085938 2236.43164062 748 1851.36621094 748 1446.59960938 c 0
 748 1175.43066406 790.466796875 892.47265625 865.763671875 602.578125 c 0
 959.87890625 240.235351562 1105.79980469 -133.477539062 1291.49707031 -504.873046875 c 0
 1340.72460938 -603.328125 1442.52148438 -671 1560 -671 c 0
 1725.57421875 -671 1860 -536.57421875 1860 -371 c 0
 1860 -322.903320312 1848.65722656 -277.435546875 1828.50292969 -237.126953125 c 0
 1658.64550781 102.588867188 1528.02246094 439.986328125 1446.55371094 753.638671875 c 0
 1431.12988281 813.020507812 1417.48632812 871.532226562 1405.64453125 929 c 1
 3714.35546875 929 l 1
 3702.51367188 871.532226562 3688.87011719 813.020507812 3673.44628906 753.638671875 c 0
 3591.97753906 439.986328125 3461.35449219 102.588867188 3291.49707031 -237.126953125 c 0
 3271.34277344 -277.435546875 3260 -322.903320312 3260 -371 c 0
2560 2529 m 0
 2799.99023438 2529 2994.48046875 2497.11132812 3148.06347656 2444.79394531 c 0
 3324.31152344 2384.75585938 3461.90136719 2293.68359375 3562.6640625 2167.72949219 c 0
 3685.26464844 2014.47949219 3758.10058594 1801.31640625 3770.20214844 1529 c 1
 1349.79785156 1529 l 1
 1361.89941406 1801.31640625 1434.73535156 2014.47949219 1557.3359375 2167.72949219 c 0
 1658.03417969 2293.60351562 1795.81152344 2384.79785156 1971.93652344 2444.79394531 c 0
 2125.51953125 2497.11132812 2320.00976562 2529 2560 2529 c 0
EndSplineSet
EndChar

StartChar: uniE537
Encoding: 58679 58679 54
Width: 5120
Flags: HW
LayerCount: 2
Fore
SplineSet
3260 2829 m 0
 3260 2780.90332031 3271.34277344 2735.43554688 3291.49707031 2695.12695312 c 0
 3461.35449219 2355.41113281 3591.97753906 2018.01367188 3673.44628906 1704.36132812 c 0
 3688.87011719 1644.97949219 3702.51367188 1586.46777344 3714.35546875 1529 c 1
 2860 1529 l 1
 2860 5325 l 2
 2860 5490.57421875 2725.57421875 5625 2560 5625 c 0
 2394.42578125 5625 2260 5490.57421875 2260 5325 c 2
 2260 1529 l 1
 1405.64453125 1529 l 1
 1417.48632812 1586.46777344 1431.12988281 1644.97949219 1446.55371094 1704.36132812 c 0
 1528.02246094 2018.01367188 1658.64550781 2355.41113281 1828.50292969 2695.12695312 c 0
 1848.65722656 2735.43554688 1860 2780.90332031 1860 2829 c 0
 1860 2994.57421875 1725.57421875 3129 1560 3129 c 0
 1442.52148438 3129 1340.72460938 3061.328125 1291.49707031 2962.87304688 c 0
 1105.79980469 2591.47753906 959.87890625 2217.76464844 865.763671875 1855.421875 c 0
 790.466796875 1565.52734375 748 1282.56933594 748 1011.40039062 c 0
 748 606.633789062 844.038085938 221.568359375 1088.59082031 -84.1220703125 c 0
 1182.38769531 -201.368164062 1296.85449219 -304.477539062 1429.14746094 -388.815429688 c 0
 1534.97949219 -456.283203125 1651.86523438 -511.741210938 1778.59765625 -554.911132812 c 0
 2006.82617188 -632.65625 2266.65722656 -671 2560 -671 c 0
 2853.34277344 -671 3113.17382812 -632.65625 3341.40234375 -554.911132812 c 0
 3468.13476562 -511.741210938 3585.02050781 -456.283203125 3690.85253906 -388.815429688 c 0
 3823.14550781 -304.477539062 3937.61230469 -201.368164062 4031.40917969 -84.1220703125 c 0
 4275.96191406 221.568359375 4372 606.633789062 4372 1011.40039062 c 0
 4372 1282.56933594 4329.53320312 1565.52734375 4254.23632812 1855.421875 c 0
 4160.12109375 2217.76464844 4014.20019531 2591.47753906 3828.50292969 2962.87304688 c 0
 3779.27539062 3061.328125 3677.47851562 3129 3560 3129 c 0
 3394.42578125 3129 3260 2994.57421875 3260 2829 c 0
3770.20214844 929 m 1
 3758.10058594 656.68359375 3685.26464844 443.520507812 3562.6640625 290.270507812 c 0
 3461.96582031 164.396484375 3324.18847656 73.2021484375 3148.06347656 13.2060546875 c 0
 2994.48046875 -39.111328125 2799.99023438 -71 2560 -71 c 0
 2320.00976562 -71 2125.51953125 -39.111328125 1971.93652344 13.2060546875 c 0
 1795.68847656 73.244140625 1658.09863281 164.31640625 1557.3359375 290.270507812 c 0
 1434.73535156 443.520507812 1361.89941406 656.68359375 1349.79785156 929 c 1
 3770.20214844 929 l 1
EndSplineSet
EndChar

StartChar: uniE538
Encoding: 58680 58680 55
Width: 5120
Flags: HW
LayerCount: 2
Fore
SplineSet
3260 -371 m 0
 3260 -536.57421875 3394.42578125 -671 3560 -671 c 0
 3677.47851562 -671 3779.27539062 -603.328125 3828.50292969 -504.873046875 c 0
 4014.20019531 -133.477539062 4160.12109375 240.235351562 4254.23632812 602.578125 c 0
 4329.53320312 892.47265625 4372 1175.43066406 4372 1446.59960938 c 0
 4372 1851.36621094 4275.96191406 2236.43164062 4031.40917969 2542.12207031 c 0
 3937.61230469 2659.36816406 3823.14550781 2762.47753906 3690.85253906 2846.81542969 c 0
 3585.02050781 2914.28320312 3468.13476562 2969.74121094 3341.40234375 3012.91113281 c 0
 3113.17382812 3090.65625 2853.34277344 3129 2560 3129 c 0
 2266.65722656 3129 2006.82617188 3090.65625 1778.59765625 3012.91113281 c 0
 1651.86523438 2969.74121094 1534.97949219 2914.28320312 1429.14746094 2846.81542969 c 0
 1296.85449219 2762.47753906 1182.38769531 2659.36816406 1088.59082031 2542.12207031 c 0
 844.038085938 2236.43164062 748 1851.36621094 748 1446.59960938 c 0
 748 1175.43066406 790.466796875 892.47265625 865.763671875 602.578125 c 0
 959.87890625 240.235351562 1105.79980469 -133.477539062 1291.49707031 -504.873046875 c 0
 1340.72460938 -603.328125 1442.52148438 -671 1560 -671 c 0
 1725.57421875 -671 1860 -536.57421875 1860 -371 c 0
 1860 -322.903320312 1848.65722656 -277.435546875 1828.50292969 -237.126953125 c 0
 1658.64550781 102.588867188 1528.02246094 439.986328125 1446.55371094 753.638671875 c 0
 1431.12988281 813.020507812 1417.48632812 871.532226562 1405.64453125 929 c 1
 2260 929 l 1
 2260 -2867 l 2
 2260 -3032.57421875 2394.42578125 -3167 2560 -3167 c 0
 2725.57421875 -3167 2860 -3032.57421875 2860 -2867 c 2
 2860 929 l 1
 3714.35546875 929 l 1
 3702.51367188 871.532226562 3688.87011719 813.020507812 3673.44628906 753.638671875 c 0
 3591.97753906 439.986328125 3461.35449219 102.588867188 3291.49707031 -237.126953125 c 0
 3271.34277344 -277.435546875 3260 -322.903320312 3260 -371 c 0
3770.20214844 1529 m 1
 2963.40039062 1529 2156.59960938 1529 1349.79785156 1529 c 1
 1361.89941406 1801.31640625 1434.73535156 2014.47949219 1557.3359375 2167.72949219 c 0
 1658.03417969 2293.60351562 1795.81152344 2384.79785156 1971.93652344 2444.79394531 c 0
 2125.51953125 2497.11132812 2320.00976562 2529 2560 2529 c 0
 2799.99023438 2529 2994.48046875 2497.11132812 3148.06347656 2444.79394531 c 0
 3324.31152344 2384.75585938 3461.90136719 2293.68359375 3562.6640625 2167.72949219 c 0
 3685.26464844 2014.47949219 3758.10058594 1801.31640625 3770.20214844 1529 c 1
EndSplineSet
EndChar
